<?xml version="1.0" standalone="no"?>
<!DOCTYPE svg PUBLIC "-//W3C//DTD SVG 1.1//EN" "http://www.w3.org/Graphics/SVG/1.1/DTD/svg11.dtd" >
<svg xmlns="http://www.w3.org/2000/svg" xmlns:xlink="http://www.w3.org/1999/xlink" version="1.1">
<metadata>
Created by FontForge 20170731 at Fri May 27 20:49:28 2022
 By Aleksey,,,
Copyright (c) 2020 by Martin Va'cha. All rights reserved.
</metadata>
<defs>
<font id="RoobertENEL-Black" horiz-adv-x="1208" >
  <font-face 
    font-family="Roobert ENEL Black"
    font-weight="900"
    font-stretch="normal"
    units-per-em="2048"
    panose-1="0 0 10 0 0 0 0 0 0 0"
    ascent="1536"
    descent="-512"
    x-height="1032"
    cap-height="1434"
    bbox="-879 -528 4045 2335"
    underline-thickness="102"
    underline-position="-307"
    unicode-range="U+000D-F8FF"
  />
<missing-glyph horiz-adv-x="2170" 
d="M1051 -418v2048q-201 -7 -384 -92t-316 -222.5t-211.5 -324t-78.5 -387.5q0 -202 78 -388t210.5 -322.5t316 -220.5t385.5 -91zM1120 1624v-2036q85 24 156.5 166.5t113.5 368t42 481.5t-42.5 482.5t-114 369.5t-155.5 168zM1497 604q0 -327 -62.5 -591t-168.5 -394
q150 56 268.5 199.5t185 349t66.5 436.5q0 229 -66.5 435t-185 351t-268.5 203q106 -131 168.5 -396.5t62.5 -592.5zM1466 -344q287 115 465 375t178 573t-179.5 574.5t-469.5 377.5q182 -145 287.5 -400t105.5 -552q0 -296 -104.5 -550.5t-282.5 -397.5z" />
    <glyph glyph-name="f_f.liga" unicode="ff" horiz-adv-x="1609" 
d="M1559 1212h-156q-57 0 -92 -31t-35 -83v-66h283v-278h-283v-754h-338v754h-369v-754h-338v754h-190v278h190v86q0 167 114 270t300 103h207v-279h-156q-57 0 -92 -31t-35 -83v-66h369v86q0 167 114 270t300 103h207v-279z" />
    <glyph glyph-name="f_f_i.liga" unicode="ffi" horiz-adv-x="2066" 
d="M1982 1032v-1032h-337v754h-369v-754h-338v754h-369v-754h-338v754h-190v278h190v86q0 167 114 270t300 103h207v-279h-156q-57 0 -92 -31t-35 -83v-66h369v86q0 167 114 270t300 103h207v-279h-156q-57 0 -92 -31t-35 -83v-66h706z" />
    <glyph glyph-name="f_f_l.liga" unicode="ffl" horiz-adv-x="2074" 
d="M1645 1032v459h337v-1491h-337v754h-369v-754h-338v754h-369v-754h-338v754h-190v278h190v86q0 167 114 270t300 103h207v-279h-156q-57 0 -92 -31t-35 -83v-66h369v86q0 167 114 270t300 103h145v-279h-94q-57 0 -92 -31t-35 -83v-66h369z" />
    <glyph glyph-name="f_i.liga" unicode="fi" horiz-adv-x="1359" 
d="M1276 1032v-1032h-338v754h-369v-754h-338v754h-190v278h190v86q0 167 114 270t300 103h207v-279h-156q-57 0 -92 -31t-35 -83v-66h707z" />
    <glyph glyph-name="f_l.liga" unicode="fl" horiz-adv-x="1368" 
d="M938 1032v459h338v-1491h-338v754h-369v-754h-338v754h-190v278h190v86q0 167 114 270t300 103h146v-279h-95q-57 0 -92 -31t-35 -83v-66h369z" />
    <glyph glyph-name="r_f.liga" unicode="rf" horiz-adv-x="1490" 
d="M1157 0h-338v1118q0 167 114 270t300 103h207v-279h-156q-57 0 -92 -31t-35 -83v-66h283v-278h-283v-754zM727 1032v-278h-119q-84 0 -131 -61.5t-47 -170.5v-522h-338v1032h338v-155q42 88 100.5 121.5t149.5 33.5h47z" />
    <glyph glyph-name="r_t.liga" unicode="rt" horiz-adv-x="1468" 
d="M819 397v928h338v-293h260v-278h-260v-340q0 -135 135 -135h125v-279h-176q-194 0 -308 104t-114 293zM727 1032v-278h-119q-84 0 -131 -61.5t-47 -170.5v-522h-338v1032h338v-155q42 88 100.5 121.5t149.5 33.5h47z" />
    <glyph glyph-name="t_t.liga" unicode="tt" horiz-adv-x="1644" 
d="M1593 1032v-278h-260v-340q0 -135 135 -135h125v-279h-176q-194 0 -308 104t-114 293v357h-426v-340q0 -135 136 -135h124v-279h-176q-194 0 -308 104t-114 293v357h-190v278h190v293h338v-293h426v293h338v-293h260z" />
    <glyph glyph-name=".notdef" horiz-adv-x="2170" 
d="M1051 -418v2048q-201 -7 -384 -92t-316 -222.5t-211.5 -324t-78.5 -387.5q0 -202 78 -388t210.5 -322.5t316 -220.5t385.5 -91zM1120 1624v-2036q85 24 156.5 166.5t113.5 368t42 481.5t-42.5 482.5t-114 369.5t-155.5 168zM1497 604q0 -327 -62.5 -591t-168.5 -394
q150 56 268.5 199.5t185 349t66.5 436.5q0 229 -66.5 435t-185 351t-268.5 203q106 -131 168.5 -396.5t62.5 -592.5zM1466 -344q287 115 465 375t178 573t-179.5 574.5t-469.5 377.5q182 -145 287.5 -400t105.5 -552q0 -296 -104.5 -550.5t-282.5 -397.5z" />
    <glyph glyph-name=".null" horiz-adv-x="0" 
 />
    <glyph glyph-name="nonmarkingreturn" horiz-adv-x="682" 
 />
    <glyph glyph-name="CR" unicode="&#xd;" horiz-adv-x="507" 
 />
    <glyph glyph-name="space" unicode=" " horiz-adv-x="409" 
 />
    <glyph glyph-name="exclam" unicode="!" horiz-adv-x="647" 
d="M459 442h-271l-77 992h426zM143 0v340h361v-340h-361z" />
    <glyph glyph-name="quotedbl" unicode="&#x22;" horiz-adv-x="1034" 
d="M401 920h-231l-57 571h346zM864 920h-231l-58 571h347z" />
    <glyph glyph-name="numbersign" unicode="#" horiz-adv-x="1505" 
d="M496 0h-250l84 375h-240v241h289l45 201h-248v242h297l80 375h250l-80 -375h205l82 375h250l-82 -375h237v-242h-287l-45 -201h248v-241h-299l-80 -375h-247l81 375h-208zM672 817l-43 -201h205l47 201h-209z" />
    <glyph glyph-name="dollar" unicode="$" horiz-adv-x="1245" 
d="M1143 432q0 -165 -98 -278.5t-271 -151.5v-207l-311 2v199q-190 37 -304 169t-120 329h348q6 -91 63.5 -145t149.5 -54q82 0 130 35.5t48 95.5q0 38 -24 65t-64.5 42.5t-93.5 27.5t-111 25.5t-116 32t-111 51t-93.5 78t-64.5 118t-24 166.5q0 157 106 268t281 140v174
h311v-191q156 -44 245.5 -159t92.5 -277h-344q-6 70 -56 111t-134 41q-67 0 -108.5 -30t-41.5 -77q0 -43 24.5 -72t66 -45.5t95 -28t113 -24t118.5 -29.5t112.5 -47.5t95 -74t66 -115t24.5 -164.5z" />
    <glyph glyph-name="percent" unicode="%" horiz-adv-x="1552" 
d="M418 795q-139 0 -227.5 93.5t-88.5 233.5t88.5 234t227.5 94t226 -94t87 -234t-87 -233.5t-226 -93.5zM1446 1434l-1040 -1434h-295l1040 1434h295zM418 1001q42 0 69 33.5t27 87.5t-27 87.5t-69 33.5q-40 0 -66 -33.5t-26 -87.5t26 -87.5t66 -33.5zM1139 -16
q-139 0 -227.5 93.5t-88.5 233.5t88.5 234t227.5 94t226 -94t87 -234t-87 -233.5t-226 -93.5zM1139 190q42 0 69 33.5t27 87.5t-27 87.5t-69 33.5q-40 0 -66 -33.5t-26 -87.5t26 -87.5t66 -33.5z" />
    <glyph glyph-name="ampersand" unicode="&#x26;" horiz-adv-x="1396" 
d="M1114 291l264 -291h-362l-103 115q-85 -66 -168 -98.5t-186 -32.5q-217 0 -358.5 120.5t-141.5 323.5q0 59 13 110t34.5 89.5t54 72.5t66 58t76.5 47q-106 141 -106 254q0 177 110.5 284t294.5 107q181 0 290 -107t109 -284q0 -72 -20 -131t-58 -102t-80 -73t-98 -57
l181 -196l420 407v-407zM483 1077q0 -58 74 -164q80 35 122 73t42 95q0 54 -32.5 85.5t-86.5 31.5t-86.5 -33t-32.5 -88zM563 276q75 0 158 52l-227 256q-113 -61 -113 -156q0 -69 49 -110.5t133 -41.5z" />
    <glyph glyph-name="quotesingle" unicode="'" horiz-adv-x="571" 
d="M401 920h-231l-57 571h346z" />
    <glyph glyph-name="parenleft" unicode="(" horiz-adv-x="591" 
d="M551 -139h-303q-85 154 -136 369t-51 417q0 203 51 418t136 369h303q-80 -189 -128 -404.5t-48 -382.5t48 -382t128 -404z" />
    <glyph glyph-name="parenright" unicode=")" horiz-adv-x="591" 
d="M344 -139h-303q80 189 128 404t48 382t-48 382.5t-128 404.5h303q85 -153 135.5 -368.5t50.5 -418.5t-50.5 -418t-135.5 -368z" />
    <glyph glyph-name="asterisk" unicode="*" horiz-adv-x="954" 
d="M477 903l-141 -201l-182 134l141 196l-227 76l71 215l226 -76v244h225v-244l227 76l70 -215l-225 -76l139 -196l-183 -134z" />
    <glyph glyph-name="plus" unicode="+" horiz-adv-x="1376" 
d="M831 793h418v-287h-418v-418h-286v418h-422v287h422v421h286v-421z" />
    <glyph glyph-name="comma" unicode="," horiz-adv-x="626" 
d="M51 -283l139 572h345l-238 -572h-246z" />
    <glyph glyph-name="hyphen" unicode="-" horiz-adv-x="1013" 
d="M924 403h-834v287h834v-287z" />
    <glyph glyph-name="period" unicode="." horiz-adv-x="544" 
d="M92 0v340h361v-340h-361z" />
    <glyph glyph-name="slash" unicode="/" horiz-adv-x="972" 
d="M319 -2h-311l643 1436h314z" />
    <glyph glyph-name="zero" unicode="0" horiz-adv-x="1357" 
d="M723 -16h-90q-251 0 -401 182.5t-150 488.5v123q0 306 150 489t401 183h90q252 0 402.5 -183t150.5 -489v-123q0 -306 -150.5 -488.5t-402.5 -182.5zM657 295h43q91 0 150 79t59 199v287q0 120 -59 199.5t-150 79.5h-43q-90 0 -149 -79.5t-59 -199.5v-287
q0 -120 58.5 -199t149.5 -79z" />
    <glyph glyph-name="one" unicode="1" horiz-adv-x="1189" 
d="M807 1434v-1123h260v-311h-944v311h319v662q-20 -28 -87.5 -45t-123.5 -17h-88v312h88q103 0 159.5 47t74.5 164h342z" />
    <glyph glyph-name="two" unicode="2" horiz-adv-x="1189" 
d="M436 905h-364q0 254 145.5 399.5t394.5 145.5q242 0 389.5 -126t147.5 -335q0 -291 -346 -465l-236 -118q-4 -2 -17 -9t-18 -9.5t-17 -9t-17 -10.5t-14 -10t-13 -11t-9 -11t-7 -12.5t-2 -12.5h688v-311h-1051l-2 272q-1 73 29 142t80 121t100.5 89t103.5 62l240 117
q65 31 104 78.5t39 107.5q0 79 -44 124.5t-128 45.5q-88 0 -133 -68.5t-43 -185.5z" />
    <glyph glyph-name="three" unicode="3" horiz-adv-x="1265" 
d="M633 -16q-154 0 -277.5 53.5t-198.5 162t-75 255.5h350q0 -81 57 -120.5t144 -39.5q88 0 140 40.5t52 108.5q0 66 -52 106t-140 40h-146v293h138q66 0 107.5 36t41.5 93t-46 92t-120 35q-77 0 -124 -37.5t-46 -118.5h-344q0 108 44.5 198t118.5 147.5t167 89.5t192 32
q141 0 258.5 -54.5t183.5 -145t66 -195.5q0 -96 -41 -174.5t-114 -122.5q101 -40 158 -126.5t57 -197.5q0 -135 -76.5 -239t-201 -157.5t-273.5 -53.5z" />
    <glyph glyph-name="four" unicode="4" horiz-adv-x="1361" 
d="M1126 0h-366v250h-699v311l682 873h383v-873h144v-311h-144v-250zM762 979l-346 -418h346v418z" />
    <glyph glyph-name="five" unicode="5" horiz-adv-x="1261" 
d="M625 -16q-218 0 -369 131t-156 323h342q11 -68 58.5 -105.5t124.5 -37.5q86 0 139 51.5t53 136.5t-52.5 138t-137.5 53q-64 0 -106 -20.5t-75 -65.5h-323l123 846h841v-312h-571l-37 -213q81 62 228 62q200 0 337.5 -142.5t137.5 -345.5q0 -140 -74 -255t-201.5 -179.5
t-281.5 -64.5z" />
    <glyph glyph-name="six" unicode="6" horiz-adv-x="1345" 
d="M727 956q223 0 360.5 -138t137.5 -345q0 -134 -73.5 -246.5t-200 -177.5t-275.5 -65q-142 0 -254 56t-182.5 153t-107 223.5t-36.5 273.5q0 348 161.5 554t436.5 206q158 0 282 -60.5t192.5 -158t80.5 -215.5h-331q-11 57 -69.5 97t-139.5 40q-115 0 -190 -89t-83 -230
q42 52 127 87t164 35zM684 295q81 0 128.5 49t47.5 129q0 78 -47.5 126t-128.5 48q-82 0 -132 -48.5t-50 -125.5q0 -80 49.5 -129t132.5 -49z" />
    <glyph glyph-name="seven" unicode="7" horiz-adv-x="1159" 
d="M641 0h-365q0 215 44 374.5t147 317.5l278 430h-675v312h1077v-283l-356 -537q-82 -120 -116 -260.5t-34 -353.5z" />
    <glyph glyph-name="eight" unicode="8" horiz-adv-x="1280" 
d="M641 -16q-245 0 -402 126t-157 322q0 115 59.5 200.5t161.5 139.5q-71 54 -112 128t-41 157q0 172 137.5 282.5t353.5 110.5q217 0 355.5 -110.5t138.5 -282.5q0 -83 -42.5 -157t-117.5 -128q223 -109 223 -340q0 -197 -156.5 -322.5t-400.5 -125.5zM641 915q74 0 119 33
t45 90t-45 91t-119 34t-118 -34t-44 -91t44 -90t118 -33zM641 293q95 0 149 40t54 109t-54 109.5t-149 40.5q-94 0 -150.5 -40.5t-56.5 -109.5t56.5 -109t150.5 -40z" />
    <glyph glyph-name="nine" unicode="9" horiz-adv-x="1327" 
d="M604 477q-148 0 -262.5 65t-175 174.5t-60.5 244.5q0 134 73.5 246.5t200 177.5t275.5 65q142 0 254 -56t182.5 -153.5t107 -224t36.5 -273.5q0 -348 -161.5 -553.5t-436.5 -205.5q-158 0 -282 60.5t-192.5 158t-80.5 215.5h332q11 -57 69.5 -97t139.5 -40
q115 0 189.5 89t82.5 230q-42 -52 -127 -87.5t-164 -35.5zM647 1139q-81 0 -128.5 -49t-47.5 -129q0 -78 47.5 -126.5t128.5 -48.5q82 0 132 49t50 126q0 80 -49.5 129t-132.5 49z" />
    <glyph glyph-name="colon" unicode=":" horiz-adv-x="544" 
d="M92 711v340h361v-340h-361zM92 0v340h361v-340h-361z" />
    <glyph glyph-name="semicolon" unicode=";" horiz-adv-x="626" 
d="M174 711v340h361v-340h-361zM51 -283l139 572h345l-238 -572h-246z" />
    <glyph glyph-name="less" unicode="&#x3c;" horiz-adv-x="1009" 
d="M938 406v-345l-875 439v270l875 438v-344l-494 -229z" />
    <glyph glyph-name="equal" unicode="=" horiz-adv-x="1372" 
d="M1249 694h-1126v287h1126v-287zM1249 236h-1126v286h1126v-286z" />
    <glyph glyph-name="greater" unicode="&#x3e;" horiz-adv-x="1009" 
d="M946 500l-874 -439v345l491 229l-491 229v344l874 -438v-270z" />
    <glyph glyph-name="question" unicode="?" horiz-adv-x="1218" 
d="M723 504h-340v10q0 100 42 164.5t116 114.5l145 92q46 31 71 64t25 77q0 57 -45 96t-127 39q-81 0 -126 -54t-48 -134h-364q3 151 74 260t190.5 163t273.5 54q240 0 388.5 -119t148.5 -305q0 -66 -16.5 -119t-48.5 -91.5t-67 -65t-85 -52.5l-144 -82q-30 -17 -46.5 -44.5
t-16.5 -57.5v-10zM371 0v340h360v-340h-360z" />
    <glyph glyph-name="at" unicode="@" horiz-adv-x="1929" 
d="M823 1497h299q205 0 371 -88t260 -243.5t94 -348.5v-135q0 -218 -98 -344.5t-262 -126.5q-110 0 -190 36.5t-103 100.5q-60 -151 -283 -151q-179 0 -283.5 114.5t-103.5 311.5t104 310.5t277 113.5q138 0 209 -78v63h268v-463q0 -37 26 -61.5t62 -24.5q48 0 70.5 42
t22.5 157v135q0 175 -126 290.5t-315 115.5h-299q-197 0 -326.5 -122t-129.5 -308v-289q0 -211 130 -350.5t326 -139.5h563v-272l-563 -2q-210 -1 -379.5 97.5t-265.5 274t-96 392.5v289q0 200 96 361.5t265.5 252t379.5 90.5zM956 426q78 1 125 55t47 142t-47 141t-125 53
q-75 0 -122.5 -53.5t-47.5 -140.5q0 -88 47.5 -143t122.5 -54z" />
    <glyph glyph-name="A" unicode="A" horiz-adv-x="1433" 
d="M1425 0h-376l-97 281h-469l-96 -281h-379l535 1434h348zM610 645l-20 -61h256l-21 61q-29 84 -55.5 171t-38.5 132l-12 45q-46 -160 -109 -348z" />
    <glyph glyph-name="B" unicode="B" horiz-adv-x="1314" 
d="M727 0h-604v1434h594q130 0 233.5 -41t166.5 -126t63 -202q0 -95 -47 -170.5t-113 -112.5q103 -44 169 -133t66 -217q0 -204 -146.5 -318t-381.5 -114zM481 1151v-246h205q162 0 162 123t-170 123h-197zM481 602v-291h219q113 0 164 36t51 108q0 73 -51.5 110t-163.5 37
h-219z" />
    <glyph glyph-name="C" unicode="C" horiz-adv-x="1525" 
d="M795 -16q-153 0 -285 48t-232.5 138t-158.5 231t-58 316t59 316t160.5 231t233 138t281.5 48q284 0 471.5 -146t216.5 -391h-383q-13 102 -97.5 164t-209.5 62q-158 0 -261.5 -110.5t-103.5 -311.5q0 -202 103 -312t262 -110q126 0 212.5 61t106.5 164h363
q-20 -244 -205.5 -390t-474.5 -146z" />
    <glyph glyph-name="D" unicode="D" horiz-adv-x="1443" 
d="M631 0h-508v1434h508q120 0 228.5 -26t204.5 -82.5t166.5 -139t111 -203t40.5 -266.5t-40.5 -266.5t-111 -203t-166.5 -139t-204.5 -82.5t-228.5 -26zM487 1122v-811h101q68 0 128 12t116 41t96 74.5t64 116.5t24 162q0 113 -35.5 194.5t-98 126t-135 64.5t-159.5 20
h-101z" />
    <glyph glyph-name="E" unicode="E" horiz-adv-x="1214" 
d="M1155 0h-1032v1434h1010v-312h-646v-237h508v-312h-508v-262h668v-311z" />
    <glyph glyph-name="F" unicode="F" horiz-adv-x="1191" 
d="M487 0h-364v1434h1010v-312h-646v-254h508v-311h-508v-557z" />
    <glyph glyph-name="G" unicode="G" horiz-adv-x="1511" 
d="M791 -16q-207 0 -374 94t-261.5 262t-94.5 377q0 143 40 263.5t109 206t162 145.5t199 89t220 29q289 0 469.5 -149t189.5 -390h-356q-14 106 -92 167t-211 61q-161 0 -263 -114t-102 -308t102 -308t263 -114q128 0 202 57t94 156l3 10h-271v287h621q6 -70 6 -207
q0 -181 -84.5 -321t-233.5 -216.5t-337 -76.5z" />
    <glyph glyph-name="H" unicode="H" horiz-adv-x="1492" 
d="M1006 885v549h364v-1434h-364v573h-519v-573h-364v1434h364v-549h519z" />
    <glyph glyph-name="I" unicode="I" horiz-adv-x="612" 
d="M489 0h-366v1434h366v-1434z" />
    <glyph glyph-name="J" unicode="J" horiz-adv-x="782" 
d="M51 0v311h137q81 0 109.5 37t28.5 127v959h364v-977q0 -229 -110 -343t-310 -114h-219z" />
    <glyph glyph-name="K" unicode="K" horiz-adv-x="1480" 
d="M1475 0h-463l-334 592l-191 -213v-379h-364v1434h364v-562l490 562h453l-502 -564z" />
    <glyph glyph-name="L" unicode="L" horiz-adv-x="1134" 
d="M1114 0h-989v1434h367v-1123h622v-311z" />
    <glyph glyph-name="M" unicode="M" horiz-adv-x="1828" 
d="M459 0h-336v1434h397l264 -615q36 -82 68 -181t46 -158l15 -58q54 213 134 397l264 615h395v-1434h-336v428q0 89 5 194.5t11 166.5l5 61q-72 -211 -152 -395l-195 -455h-258l-196 455q-36 82 -73.5 180.5t-56.5 156.5l-20 58q19 -221 19 -422v-428z" />
    <glyph glyph-name="N" unicode="N" horiz-adv-x="1499" 
d="M487 0h-364v1434h383l338 -572q45 -77 89 -157t65 -121l22 -41q-8 163 -8 364v527h364v-1434h-383l-338 571q-45 77 -89 157t-66 122l-21 41q8 -164 8 -365v-526z" />
    <glyph glyph-name="O" unicode="O" horiz-adv-x="1611" 
d="M809 -16q-159 0 -298 55.5t-237.5 152.5t-155.5 233t-57 292t57 292t155.5 233t237.5 152.5t298 55.5q210 0 379.5 -94.5t265.5 -262.5t96 -376t-96 -376t-265.5 -262.5t-379.5 -94.5zM807 295q165 0 272 120t107 302t-107 302t-272 120q-166 0 -273.5 -120t-107.5 -302
t107.5 -302t273.5 -120z" />
    <glyph glyph-name="P" unicode="P" horiz-adv-x="1257" 
d="M489 0h-366v1434h610q231 0 363.5 -129.5t132.5 -335.5t-132.5 -335.5t-363.5 -129.5h-244v-504zM489 1135v-332h220q83 0 127.5 47.5t44.5 118.5t-44.5 118.5t-127.5 47.5h-220z" />
    <glyph glyph-name="Q" unicode="Q" horiz-adv-x="1734" 
d="M1559 274h135v-274h-719q-85 -16 -166 -16q-159 0 -298 55.5t-237.5 152.5t-155.5 233t-57 292t57 292t155.5 233t237.5 152.5t298 55.5q210 0 379.5 -94.5t265.5 -262.5t96 -376q0 -271 -164 -475q98 32 173 32zM807 295q165 0 272 120t107 302t-107 302t-272 120
q-166 0 -273.5 -120t-107.5 -302t107.5 -302t273.5 -120z" />
    <glyph glyph-name="R" unicode="R" horiz-adv-x="1386" 
d="M1239 412l45 -412h-366l-46 358q-7 60 -49 97t-102 37h-232v-492h-366v1434h631q231 0 363 -129.5t132 -335.5q0 -197 -164 -285q136 -96 154 -272zM729 1135h-240v-332h240q83 0 127.5 47.5t44.5 118.5t-44.5 118.5t-127.5 47.5z" />
    <glyph glyph-name="S" unicode="S" horiz-adv-x="1183" 
d="M600 -16q-247 0 -400 139t-161 371h348q6 -91 63.5 -145t149.5 -54q82 0 130 35.5t48 95.5q0 38 -24 65t-64.5 42.5t-93.5 27.5t-111 25.5t-116 32t-111 51t-93.5 78t-64.5 118t-24 166.5q0 183 141 300.5t361 117.5q239 0 385 -126t149 -337h-344q-6 70 -56 111t-134 41
q-67 0 -108.5 -30t-41.5 -77q0 -43 24.5 -72t66 -45.5t95 -28t113 -24t118.5 -29.5t112.5 -47.5t95 -74t66 -115t24.5 -164.5q0 -204 -148 -326t-395 -122z" />
    <glyph glyph-name="T" unicode="T" 
d="M786 0h-364v1122h-410v312h1184v-312h-410v-1122z" />
    <glyph glyph-name="U" unicode="U" horiz-adv-x="1357" 
d="M680 -16q-131 0 -237 34.5t-184.5 102t-121.5 175.5t-43 249v889h338v-885q0 -129 67 -189.5t181 -60.5q113 0 180.5 61t67.5 189v885h336v-889q0 -141 -42.5 -249t-120.5 -175.5t-184 -102t-237 -34.5z" />
    <glyph glyph-name="V" unicode="V" horiz-adv-x="1374" 
d="M860 0h-346l-506 1434h367l211 -658q27 -84 51.5 -171.5t35.5 -132.5l11 -46q41 160 104 350l213 658h365z" />
    <glyph glyph-name="W" unicode="W" horiz-adv-x="2105" 
d="M799 0h-355l-417 1434h368l156 -580q23 -87 43.5 -190.5t29.5 -163.5l9 -60q39 217 94 410l172 584h305l172 -584q25 -86 48.5 -188.5t34.5 -161.5l11 -60q33 219 86 412l156 582h367l-416 -1434h-356l-162 549q-24 86 -46.5 188t-32.5 161l-11 60q-39 -216 -94 -409z
" />
    <glyph glyph-name="X" unicode="X" horiz-adv-x="1298" 
d="M889 1434h379l-428 -723l426 -711h-385l-232 391l-231 -391h-387l426 713l-426 721h377l241 -402z" />
    <glyph glyph-name="Y" unicode="Y" horiz-adv-x="1325" 
d="M846 0h-367v590l-479 844h385l277 -504l280 504h383l-479 -844v-590z" />
    <glyph glyph-name="Z" unicode="Z" 
d="M1161 0h-1120v307l713 819h-678v308h1083v-308l-710 -819h712v-307z" />
    <glyph glyph-name="bracketleft" unicode="[" horiz-adv-x="606" 
d="M565 -139h-442v1573h442v-275h-141v-1024h141v-274z" />
    <glyph glyph-name="backslash" unicode="\" horiz-adv-x="972" 
d="M322 1434l643 -1436h-312l-645 1436h314z" />
    <glyph glyph-name="bracketright" unicode="]" horiz-adv-x="606" 
d="M483 1434v-1573h-442v274h141v1024h-141v275h442z" />
    <glyph glyph-name="asciicircum" unicode="^" horiz-adv-x="1263" 
d="M397 825h-325l420 609h280l420 -609h-326l-233 326z" />
    <glyph glyph-name="underscore" unicode="_" horiz-adv-x="1372" 
d="M1249 -287h-1126v287h1126v-287z" />
    <glyph glyph-name="grave" unicode="`" horiz-adv-x="888" 
d="M557 1450l127 -303h-276l-203 303h352z" />
    <glyph glyph-name="a" unicode="a" horiz-adv-x="1071" 
d="M530 1049q197 0 328 -106.5t131 -278.5v-664h-336v127q-20 -65 -92 -104t-172 -39q-143 0 -236.5 89t-93.5 220q0 151 100 238t265 87h147q39 0 60.5 24.5t21.5 62.5q0 47 -37.5 75.5t-105.5 28.5q-79 0 -116.5 -40.5t-39.5 -102.5h-295q3 80 34.5 148.5t89 121t147 83
t200.5 30.5zM653 406v8h-172q-44 0 -73 -29.5t-29 -75.5q0 -39 29.5 -64.5t74.5 -25.5q78 0 124 55.5t46 131.5z" />
    <glyph glyph-name="b" unicode="b" horiz-adv-x="1210" 
d="M686 -16q-81 0 -148 27t-108 77v-88h-338v1491h338v-541q92 99 262 99q219 0 348 -143t129 -390t-130 -389.5t-353 -142.5zM627 270q95 0 154 68t59 178t-59 178t-154 68q-97 0 -156 -68t-59 -178t59 -178t156 -68z" />
    <glyph glyph-name="c" unicode="c" horiz-adv-x="1146" 
d="M586 -16q-238 0 -391.5 149.5t-153.5 382.5t153.5 383t391.5 150q217 0 363 -118.5t157 -301.5h-340q-12 59 -60.5 96t-115.5 37q-99 0 -155 -66.5t-56 -179.5t59.5 -179.5t161.5 -66.5q66 0 112.5 38t57.5 98h346q-20 -177 -174 -299.5t-356 -122.5z" />
    <glyph glyph-name="d" unicode="d" horiz-adv-x="1210" 
d="M524 -16q-223 0 -353 142.5t-130 389.5t129 390t348 143q170 0 262 -99v541h338v-1491h-338v88q-41 -50 -108 -77t-148 -27zM584 270q97 0 156 68t59 178t-59 178t-156 68q-95 0 -154 -68t-59 -178t59 -178t154 -68z" />
    <glyph glyph-name="e" unicode="e" horiz-adv-x="1120" 
d="M580 256q148 0 174 102h325q-32 -170 -169.5 -272t-329.5 -102q-133 0 -239.5 48.5t-170 127t-96.5 170t-33 186.5q0 76 18 149.5t58 143.5t99 123t147.5 85t195.5 32q113 0 204 -32.5t148.5 -85t96.5 -121t55 -136.5t16 -137q0 -51 -4 -101h-710q15 -87 69.5 -133.5
t145.5 -46.5zM559 809q-84 0 -130.5 -40t-63.5 -132h380q-5 71 -54 121.5t-132 50.5z" />
    <glyph glyph-name="f" unicode="f" horiz-adv-x="903" 
d="M569 0h-338v754h-190v278h190v86q0 167 114 270t300 103h207v-279h-156q-57 0 -92 -31t-35 -83v-66h283v-278h-283v-754z" />
    <glyph glyph-name="g" unicode="g" horiz-adv-x="1247" 
d="M799 946v86h338v-1005q0 -202 -145.5 -323.5t-387.5 -121.5q-246 0 -390 106.5t-144 297.5h336q0 -62 52.5 -93.5t145.5 -31.5q88 0 142.5 46.5t54.5 119.5v149q-76 -110 -258 -110q-220 0 -352 134t-132 357t130.5 357.5t347.5 134.5q181 0 262 -103zM602 350
q94 0 154.5 59t60.5 148t-60.5 147t-154.5 58q-92 0 -152.5 -58t-60.5 -147t60.5 -148t152.5 -59z" />
    <glyph glyph-name="h" unicode="h" 
d="M430 0h-338v1491h338v-578q46 62 125.5 99t177.5 37q171 0 277 -113t106 -287v-649h-338v569q0 77 -49 129t-125 52t-125 -52t-49 -129v-569z" />
    <glyph glyph-name="i" unicode="i" horiz-adv-x="522" 
d="M86 1159v332h352v-332h-352zM430 0h-338v1032h338v-1032z" />
    <glyph glyph-name="j" unicode="j" horiz-adv-x="522" 
d="M88 1159v332h352v-332h-352zM92 -27v1059h338v-1100q0 -160 -107 -255t-286 -95h-123v258h61q51 0 84 37.5t33 95.5z" />
    <glyph glyph-name="k" unicode="k" horiz-adv-x="1191" 
d="M1186 0h-402l-245 399l-107 -108v-291h-340v1491h340v-774l303 315h422l-399 -407z" />
    <glyph glyph-name="l" unicode="l" horiz-adv-x="522" 
d="M430 0h-338v1491h338v-1491z" />
    <glyph glyph-name="m" unicode="m" horiz-adv-x="1837" 
d="M430 0h-338v1032h338v-123q104 140 285 140q210 0 295 -175q45 74 139 124.5t221 50.5q164 0 269.5 -108t105.5 -255v-686h-338v578q0 86 -44 137t-116 51t-116 -51t-44 -137v-578h-337v578q0 86 -44 137t-116 51t-116 -51t-44 -137v-578z" />
    <glyph glyph-name="n" unicode="n" 
d="M430 0h-338v1032h338v-119q46 62 125.5 99t177.5 37q171 0 277 -113t106 -287v-649h-338v569q0 77 -49 129t-125 52t-125 -52t-49 -129v-569z" />
    <glyph glyph-name="o" unicode="o" horiz-adv-x="1187" 
d="M594 -16q-159 0 -285.5 69t-197 190.5t-70.5 272.5t70.5 272.5t197 191t285.5 69.5t285.5 -69.5t197 -191t70.5 -272.5t-70.5 -272.5t-197 -190.5t-285.5 -69zM594 270q97 0 156 68t59 178t-59 178t-156 68t-156 -68t-59 -178t59 -178t156 -68z" />
    <glyph glyph-name="p" unicode="p" horiz-adv-x="1210" 
d="M430 -418h-338v1450h338v-88q94 105 275 105q209 0 336.5 -144t127.5 -389q0 -244 -138 -388t-357 -144q-170 0 -244 77v-479zM627 270q95 0 154 68t59 178t-59 178t-154 68q-97 0 -156 -68t-59 -178t59 -178t156 -68z" />
    <glyph glyph-name="q" unicode="q" horiz-adv-x="1210" 
d="M1118 1032v-1450h-338v479q-74 -77 -243 -77q-219 0 -357.5 144t-138.5 388q0 245 128 389t337 144q180 0 274 -105v88h338zM584 270q97 0 156 68t59 178t-59 178t-156 68q-95 0 -154 -68t-59 -178t59 -178t154 -68z" />
    <glyph glyph-name="r" unicode="r" horiz-adv-x="815" 
d="M788 1032v-278h-180q-84 0 -131 -61.5t-47 -170.5v-522h-338v1032h338v-155q42 88 100.5 121.5t149.5 33.5h108z" />
    <glyph glyph-name="s" unicode="s" horiz-adv-x="927" 
d="M475 -16q-194 0 -315.5 101t-128.5 269h284q7 -55 51 -89t109 -34q54 0 87.5 20t33.5 54q0 27 -18.5 44.5t-49.5 27.5t-71 17t-84.5 15.5t-88.5 20.5t-84 35t-71 55.5t-49.5 85t-18.5 121.5q0 138 107 230t264 92q193 0 313.5 -95t126.5 -252h-286q-7 52 -47 85.5
t-93 33.5q-49 0 -77.5 -20.5t-28.5 -59.5q0 -32 23.5 -51.5t62 -26t87.5 -14t100.5 -14t100.5 -27.5t87.5 -53t62 -92.5t23.5 -143.5q0 -152 -112.5 -243.5t-299.5 -91.5z" />
    <glyph glyph-name="t" unicode="t" horiz-adv-x="880" 
d="M231 1032v293h338v-293h260v-278h-260v-340q0 -135 136 -135h124v-279h-176q-194 0 -308 104t-114 293v357h-190v278h190z" />
    <glyph glyph-name="u" unicode="u" 
d="M778 1032h338v-1032h-338v119q-46 -62 -125 -98.5t-178 -36.5q-171 0 -277 112.5t-106 286.5v649h338v-569q0 -77 49 -128.5t125 -51.5t125 51.5t49 128.5v569z" />
    <glyph glyph-name="v" unicode="v" horiz-adv-x="1064" 
d="M682 0h-299l-377 1032h342l184 -600l183 600h344z" />
    <glyph glyph-name="w" unicode="w" horiz-adv-x="1622" 
d="M649 0h-289l-344 1032h338l154 -559l151 559h304l153 -559l152 559h338l-344 -1032h-289l-160 567z" />
    <glyph glyph-name="x" unicode="x" horiz-adv-x="1126" 
d="M745 535l371 -535h-360l-193 274l-192 -274h-361l371 535l-348 497h368l162 -233l162 233h369z" />
    <glyph glyph-name="y" unicode="y" horiz-adv-x="1064" 
d="M715 1032h344l-373 -1024l-149 -426h-322l162 438l-371 1012h342l184 -600z" />
    <glyph glyph-name="z" unicode="z" horiz-adv-x="1024" 
d="M971 0h-914v279l498 475h-461v278h846v-278l-494 -475h525v-279z" />
    <glyph glyph-name="braceleft" unicode="{" horiz-adv-x="720" 
d="M680 -139h-188q-112 0 -183 68.5t-71 176.5v267q0 83 -35.5 117t-120.5 34v246q85 0 120.5 34.5t35.5 117.5v266q0 108 71 177t183 69h188v-275h-51q-53 0 -71.5 -19.5t-18.5 -72.5v-219q0 -98 -40 -144.5t-118 -56.5q78 -10 118 -56.5t40 -144.5v-219q0 -53 18.5 -72.5
t71.5 -19.5h51v-274z" />
    <glyph glyph-name="bar" unicode="|" horiz-adv-x="583" 
d="M459 -102h-334v1638h334v-1638z" />
    <glyph glyph-name="braceright" unicode="}" horiz-adv-x="720" 
d="M229 -139h-188v274h51q53 0 71.5 19.5t18.5 72.5v219q0 98 40 144.5t118 56.5q-78 10 -118 56.5t-40 144.5v219q0 53 -18.5 72.5t-71.5 19.5h-51v275h188q112 0 183 -69t71 -177v-266q0 -83 35.5 -117.5t120.5 -34.5v-246q-85 0 -120.5 -34t-35.5 -117v-267
q0 -108 -71 -176.5t-183 -68.5z" />
    <glyph glyph-name="asciitilde" unicode="~" horiz-adv-x="1482" 
d="M946 442q-65 0 -125.5 22t-98 48t-82 48t-81.5 22q-103 0 -119 -152h-317q6 214 126 347.5t296 133.5q55 0 105 -14.5t86 -34.5t68.5 -40.5t64.5 -35t61 -14.5q94 0 112 152h318q-9 -220 -127 -351t-287 -131z" />
    <glyph glyph-name="exclamdown" unicode="&#xa1;" horiz-adv-x="671" 
d="M481 676h-360v340h360v-340zM88 -418l78 991h270l78 -991h-426z" />
    <glyph glyph-name="cent" unicode="&#xa2;" horiz-adv-x="1146" 
d="M770 406h346q-15 -138 -115.5 -246.5t-248.5 -151.5v-211l-312 2v201q-181 43 -290 182t-109 334t109 334t290 182v201h312v-205q153 -40 249 -147t105 -252h-340q-12 59 -60.5 96t-115.5 37q-99 0 -155 -66.5t-56 -179.5t59.5 -179.5t161.5 -66.5q66 0 112.5 38t57.5 98
z" />
    <glyph glyph-name="sterling" unicode="&#xa3;" horiz-adv-x="1320" 
d="M897 383v53h365v-139q0 -145 -76 -221t-221 -76h-854v287q188 57 192 299h-240v270h140q-33 86 -33 150q0 202 137 323t371 121q123 0 221 -36.5t160.5 -100t98.5 -143t46 -173.5h-364q-6 65 -49.5 103.5t-112.5 38.5q-66 0 -109 -42.5t-43 -111.5q0 -61 33 -129h459
v-270h-352q-3 -77 -36.5 -152t-84.5 -123h280q34 0 53 19t19 53z" />
    <glyph glyph-name="currency" unicode="&#xa4;" horiz-adv-x="1333" 
d="M1219 516q0 -152 -74 -278l129 -129l-203 -201l-135 137q-125 -61 -270 -61q-147 0 -269 61l-135 -137l-203 201l129 129q-75 122 -75 278q0 153 73 277l-127 129l201 200l135 -135q124 62 271 62q145 0 272 -62l135 135l201 -200l-129 -129q74 -126 74 -277zM666 270
q97 0 156 68t59 178t-59 178t-156 68t-156 -68t-59 -178t59 -178t156 -68z" />
    <glyph glyph-name="yen" unicode="&#xa5;" horiz-adv-x="1325" 
d="M942 1434h383l-358 -633h235v-215h-356v-131h356v-215h-356v-240h-367v240h-354v215h354v131h-354v215h235l-360 633h385l277 -504z" />
    <glyph glyph-name="brokenbar" unicode="&#xa6;" horiz-adv-x="583" 
d="M459 821h-334v715h334v-715zM459 -102h-334v714h334v-714z" />
    <glyph glyph-name="section" unicode="&#xa7;" horiz-adv-x="1159" 
d="M1004 242q73 -92 73 -248q1 -195 -136.5 -311.5t-369.5 -116.5t-375 131.5t-149 351.5h346q4 -78 52.5 -124t125.5 -46q65 0 104.5 30.5t39.5 78.5q0 37 -29 62t-76.5 36t-108.5 25t-124 27t-124 43.5t-108.5 73.5t-76.5 118.5t-29 175.5q0 125 119 239q-78 101 -78 265
q0 173 131.5 285t335.5 112q227 0 364 -119.5t138 -320.5h-342q-6 59 -47.5 93t-112.5 34q-52 0 -85.5 -23.5t-33.5 -60.5q0 -38 23.5 -64t63.5 -40.5t92 -24.5t109 -21t114 -26.5t109 -44.5t92 -70.5t63.5 -109t23.5 -156.5q0 -127 -114 -254zM389 549q0 -24 8 -42.5
t26.5 -32t36 -23t50.5 -18t55.5 -13t64.5 -12.5t66 -13q60 41 60 94q0 24 -12.5 42.5t-30 29.5t-51.5 22t-60.5 16.5t-73 15t-75.5 16.5q-64 -33 -64 -82z" />
    <glyph glyph-name="dieresis" unicode="&#xa8;" horiz-adv-x="1138" 
d="M205 1171v275h291v-275h-291zM643 1171v275h291v-275h-291z" />
    <glyph glyph-name="copyright" unicode="&#xa9;" horiz-adv-x="1814" 
d="M922 -82q-172 0 -320.5 60t-253.5 165t-165 253.5t-60 320.5t60 320.5t165 253.5t253.5 165t320.5 60t320.5 -60t253.5 -165t164.5 -253.5t59.5 -320.5t-59.5 -320.5t-164.5 -253.5t-253.5 -165t-320.5 -60zM922 88q134 0 249.5 47t197.5 129.5t128.5 199.5t46.5 253
t-46.5 253t-128.5 199.5t-197.5 129.5t-249.5 47q-274 0 -449 -177t-174 -452q-1 -275 174 -452t449 -177zM920 276q-124 0 -223 49.5t-159.5 151t-60.5 240.5t61.5 240.5t160.5 150.5t221 49q172 0 287.5 -87.5t133.5 -240.5h-247q-6 58 -55 92.5t-119 34.5
q-89 0 -148 -62.5t-59 -176.5q0 -115 59 -177.5t148 -62.5q71 0 120.5 34.5t61.5 92.5h233q-12 -150 -124.5 -239t-290.5 -89z" />
    <glyph glyph-name="ordfeminine" unicode="&#xaa;" horiz-adv-x="630" 
d="M301 1450q129 0 206 -62.5t77 -168.5v-398h-203v78q-11 -36 -54.5 -62t-97.5 -26q-85 0 -140.5 54t-55.5 132q0 88 60 139.5t155 51.5h86q47 0 47 47v2q0 25 -20.5 43t-55.5 18q-44 0 -64 -24t-18 -57h-190q3 100 74 166.5t194 66.5zM381 1057v8h-84q-29 0 -45 -15
t-16 -40q0 -20 15.5 -33.5t37.5 -13.5q41 0 66.5 27t25.5 67z" />
    <glyph glyph-name="guillemotleft" unicode="&#xab;" horiz-adv-x="1417" 
d="M717 406v-336l-684 469v192l684 469v-336l-346 -229zM1352 406v-336l-684 469v192l684 469v-336l-346 -229z" />
    <glyph glyph-name="logicalnot" unicode="&#xac;" horiz-adv-x="1245" 
d="M1147 246h-334v325h-731v299h1065v-624z" />
    <glyph glyph-name="uni00AD" unicode="&#xad;" horiz-adv-x="1013" 
d="M924 403h-834v287h834v-287z" />
    <glyph glyph-name="registered" unicode="&#xae;" horiz-adv-x="1808" 
d="M922 -82q-172 0 -320.5 60t-253.5 165t-165 253.5t-60 320.5t60 320.5t165 253.5t253.5 165t320.5 60t320.5 -60t253.5 -165t164.5 -253.5t59.5 -320.5t-59.5 -320.5t-164.5 -253.5t-253.5 -165t-320.5 -60zM922 88q134 0 249.5 47t197.5 129.5t128.5 199.5t46.5 253
t-46.5 253t-128.5 199.5t-197.5 129.5t-249.5 47q-274 0 -449 -177t-174 -452q-1 -275 174 -452t449 -177zM811 297h-238v860h385q140 0 222 -79.5t82 -203.5q0 -114 -93 -165q74 -59 86 -160l29 -252h-235l-29 215q-4 32 -28.5 52t-55.5 20h-125v-287zM811 965v-181h131
q45 0 69.5 26.5t24.5 63.5t-25 64t-69 27h-131z" />
    <glyph glyph-name="macron" unicode="&#xaf;" horiz-adv-x="999" 
d="M795 1184h-590v250h590v-250z" />
    <glyph glyph-name="degree" unicode="&#xb0;" horiz-adv-x="768" 
d="M383 881q-130 0 -215.5 82.5t-85.5 207.5t85.5 208t215.5 83t216.5 -83t86.5 -208t-86.5 -207.5t-216.5 -82.5zM383 1075q45 0 72.5 26.5t27.5 69.5t-27.5 70t-72.5 27q-44 0 -72 -27t-28 -70t28 -69.5t72 -26.5z" />
    <glyph glyph-name="plusminus" unicode="&#xb1;" horiz-adv-x="1228" 
d="M831 1595v-421h418v-287h-418v-418h-286v418h-422v287h422v421h286zM1249 0h-1126v287h1126v-287z" />
    <glyph glyph-name="uni00B2" unicode="&#xb2;" horiz-adv-x="737" 
d="M274 1192h-235q0 156 89.5 245t242.5 89q147 0 237 -77t90 -204q0 -87 -49.5 -151t-159.5 -123l-79 -43q-87 -47 -95 -72h377v-201h-639l-2 162q-1 87 57.5 153t133.5 103l143 70q34 16 56 44.5t22 61.5q0 42 -25 66t-67 24q-48 0 -74.5 -39.5t-22.5 -107.5z" />
    <glyph glyph-name="uni00B3" unicode="&#xb3;" horiz-adv-x="780" 
d="M389 645q-143 0 -238.5 75.5t-95.5 209.5h226q0 -44 31 -64t77 -20q47 0 75 22t28 58q0 34 -29 56t-74 22h-88v186h82q35 0 57.5 21.5t22.5 56.5q0 32 -25.5 51.5t-64.5 19.5q-36 0 -64.5 -22.5t-27.5 -61.5h-209q-1 117 89 194t218 77q129 0 219 -71.5t90 -168.5
q0 -46 -24 -94t-64 -80q61 -35 93 -80.5t32 -113.5q0 -121 -98.5 -197t-237.5 -76z" />
    <glyph glyph-name="acute" unicode="&#xb4;" horiz-adv-x="888" 
d="M481 1147h-276l127 303h352z" />
    <glyph glyph-name="uni00B5" unicode="&#xb5;" 
d="M778 463v569h338v-1032h-338v119q-31 -61 -91.5 -98t-129.5 -37q-66 0 -127 34v-436h-338v1450h338v-569q0 -77 49 -128.5t125 -51.5t125 51.5t49 128.5z" />
    <glyph glyph-name="paragraph" unicode="&#xb6;" horiz-adv-x="1564" 
d="M874 -418h-288v856q-139 0 -257 67t-186.5 181.5t-68.5 249.5t68.5 249.5t186.5 181.5t257 67h897v-254h-133v-1598h-289v1598h-187v-1598z" />
    <glyph glyph-name="periodcentered" unicode="&#xb7;" horiz-adv-x="544" 
d="M453 543h-361v340h361v-340z" />
    <glyph glyph-name="cedilla" unicode="&#xb8;" horiz-adv-x="890" 
d="M313 -262l-67 67l96 230h170l-78 -164q116 16 184 -41t68 -143q0 -92 -87 -153.5t-218 -61.5q-84 0 -176 28v160q95 -31 174 -31q41 0 68.5 14.5t27.5 41.5q0 34 -46.5 50.5t-115.5 2.5z" />
    <glyph glyph-name="uni00B9" unicode="&#xb9;" horiz-adv-x="542" 
d="M231 1516h220v-861h-236v572q-12 -18 -55 -29.5t-78 -11.5h-49v200h51q63 0 98.5 29t48.5 101z" />
    <glyph glyph-name="ordmasculine" unicode="&#xba;" horiz-adv-x="739" 
d="M369 811q-145 0 -239.5 91t-94.5 228t94.5 228.5t239.5 91.5q146 0 241 -91.5t95 -228.5t-95 -228t-241 -91zM369 995q53 0 84.5 37t31.5 98q0 62 -32 99t-84 37q-53 0 -85 -37.5t-32 -98.5t32 -98t85 -37z" />
    <glyph glyph-name="guillemotright" unicode="&#xbb;" horiz-adv-x="1419" 
d="M741 539l-684 -469v336l346 229l-346 229v336l684 -469v-192zM1376 539l-684 -469v336l346 229l-346 229v336l684 -469v-192z" />
    <glyph glyph-name="onequarter" unicode="&#xbc;" horiz-adv-x="1796" 
d="M231 1434h220v-861h-236v572q-12 -18 -55 -29.5t-78 -11.5h-49v201h51q63 0 98.5 28.5t48.5 100.5zM489 0h-294l1040 1434h295zM1663 0h-236v141h-413v199l405 520h244v-520h78v-199h-78v-141zM1427 565l-186 -225h186v225z" />
    <glyph glyph-name="onehalf" unicode="&#xbd;" horiz-adv-x="1857" 
d="M231 1434h220v-861h-236v572q-12 -18 -55 -29.5t-78 -11.5h-49v201h51q63 0 98.5 28.5t48.5 100.5zM489 0h-294l1040 1434h295zM1395 537h-236q0 156 89.5 244.5t242.5 88.5q147 0 237.5 -76.5t90.5 -203.5q0 -87 -49.5 -151.5t-159.5 -123.5l-80 -43q-27 -15 -41 -23
t-31.5 -22t-21.5 -26h376v-201h-638l-3 162q-1 87 57.5 153t133.5 103l143 69q33 16 55.5 45t22.5 62q0 42 -25 66t-67 24q-48 0 -74 -39.5t-22 -107.5z" />
    <glyph glyph-name="threequarters" unicode="&#xbe;" horiz-adv-x="1972" 
d="M389 563q-143 0 -238.5 75.5t-95.5 209.5h226q0 -44 31 -64t77 -20q47 0 75 22t28 58q0 34 -29 56t-74 22h-88v186h82q35 0 57.5 21.5t22.5 56.5q0 32 -25.5 51.5t-64.5 19.5q-36 0 -64.5 -22.5t-27.5 -60.5h-209q-1 117 89 193.5t218 76.5q129 0 219 -71.5t90 -168.5
q0 -46 -24 -94t-64 -80q61 -35 93 -80.5t32 -113.5q0 -121 -98.5 -197t-237.5 -76zM666 0h-295l1040 1434h295zM1839 0h-235v141h-414v199l405 520h244v-520h78v-199h-78v-141zM1604 565l-187 -225h187v225z" />
    <glyph glyph-name="questiondown" unicode="&#xbf;" horiz-adv-x="1136" 
d="M817 1016v-340h-360v340h360zM465 512h340v-10q0 -100 -42 -164.5t-116 -114.5l-145 -92q-46 -31 -71 -64t-25 -77q0 -57 45 -96t127 -39q81 0 126 54t48 134h364q-3 -151 -74 -260t-190.5 -163t-273.5 -54q-240 0 -388.5 119t-148.5 305q0 126 56 199t161 128l143 82
q30 17 47 45t17 58v10z" />
    <glyph glyph-name="Agrave" unicode="&#xc0;" horiz-adv-x="1433" 
d="M788 1851l127 -303h-276l-203 303h352zM1425 0h-376l-97 281h-469l-96 -281h-379l535 1434h348zM610 645l-20 -61h256l-21 61q-29 84 -55.5 171t-38.5 132l-12 45q-46 -160 -109 -348z" />
    <glyph glyph-name="Aacute" unicode="&#xc1;" horiz-adv-x="1433" 
d="M709 1851h352l-203 -303h-276zM1425 0h-376l-97 281h-469l-96 -281h-379l535 1434h348zM610 645l-20 -61h256l-21 61q-29 84 -55.5 171t-38.5 132l-12 45q-46 -160 -109 -348z" />
    <glyph glyph-name="Acircumflex" unicode="&#xc2;" horiz-adv-x="1433" 
d="M807 1548l-92 103l-94 -103h-273l217 287h303l217 -287h-278zM1425 0h-376l-97 281h-469l-96 -281h-379l535 1434h348zM610 645l-20 -61h256l-21 61q-29 84 -55.5 171t-38.5 132l-12 45q-46 -160 -109 -348z" />
    <glyph glyph-name="Atilde" unicode="&#xc3;" horiz-adv-x="1433" 
d="M543 1546h-203q-4 129 73 219t187 90q37 0 69.5 -11.5t51 -26t42.5 -26t48 -11.5q34 0 55.5 20t26.5 53h199q3 -138 -75 -223.5t-188 -85.5q-47 0 -86 19t-69.5 38t-57.5 19q-30 0 -49 -20.5t-24 -53.5zM1425 0h-376l-97 281h-469l-96 -281h-379l535 1434h348zM610 645
l-20 -61h256l-21 61q-29 84 -55.5 171t-38.5 132l-12 45q-46 -160 -109 -348z" />
    <glyph glyph-name="Adieresis" unicode="&#xc4;" horiz-adv-x="1433" 
d="M352 1847h291v-274h-291v274zM791 1847h290v-274h-290v274zM1425 0h-376l-97 281h-469l-96 -281h-379l535 1434h348zM610 645l-20 -61h256l-21 61q-29 84 -55.5 171t-38.5 132l-12 45q-46 -160 -109 -348z" />
    <glyph glyph-name="Aring" unicode="&#xc5;" horiz-adv-x="1433" 
d="M715 1520q-129 0 -212 76.5t-83 193.5q0 116 83.5 193t211.5 77q131 0 215 -77t84 -193q0 -118 -84 -194t-215 -76zM715 1892q-49 0 -80 -28.5t-31 -73.5q0 -46 31 -75t80 -29q52 0 83 29t31 75q0 45 -31 73.5t-83 28.5zM1425 0h-376l-97 281h-469l-96 -281h-379
l535 1434h348zM610 645l-20 -61h256l-21 61q-29 84 -55.5 171t-38.5 132l-12 45q-46 -160 -109 -348z" />
    <glyph glyph-name="AE" unicode="&#xc6;" horiz-adv-x="2009" 
d="M1384 573v-262h566v-311h-930v285h-467l-158 -285h-387l852 1434h1067v-312h-543v-237h406v-312h-406zM1020 1133l-297 -537h297v537z" />
    <glyph glyph-name="Ccedilla" unicode="&#xc7;" horiz-adv-x="1525" 
d="M793 295q126 0 212.5 61t106.5 164h363q-19 -231 -186.5 -375t-432.5 -159l-55 -115q116 16 184 -41t68 -143q0 -92 -87 -153.5t-218 -61.5q-85 0 -177 28v160q95 -31 174 -31q41 0 69 15t28 41q0 34 -46.5 50.5t-115.5 2.5l-68 67l78 185q-134 16 -247.5 70.5
t-199.5 144t-134 221t-48 291.5q0 175 59 316t160.5 231t233 138t281.5 48q284 0 471.5 -146t216.5 -391h-383q-13 102 -97.5 164t-209.5 62q-158 0 -261.5 -110.5t-103.5 -311.5q0 -202 103 -312t262 -110z" />
    <glyph glyph-name="Egrave" unicode="&#xc8;" horiz-adv-x="1214" 
d="M709 1851l127 -303h-277l-203 303h353zM1155 0h-1032v1434h1010v-312h-646v-237h508v-312h-508v-262h668v-311z" />
    <glyph glyph-name="Eacute" unicode="&#xc9;" horiz-adv-x="1214" 
d="M778 1548h-276l127 303h352zM1155 0h-1032v1434h1010v-312h-646v-237h508v-312h-508v-262h668v-311z" />
    <glyph glyph-name="Ecircumflex" unicode="&#xca;" horiz-adv-x="1214" 
d="M268 1548l217 287h303l218 -287h-279l-92 103l-94 -103h-273zM1155 0h-1032v1434h1010v-312h-646v-237h508v-312h-508v-262h668v-311z" />
    <glyph glyph-name="Edieresis" unicode="&#xcb;" horiz-adv-x="1214" 
d="M272 1573v274h291v-274h-291zM711 1573v274h290v-274h-290zM1155 0h-1032v1434h1010v-312h-646v-237h508v-312h-508v-262h668v-311z" />
    <glyph glyph-name="Igrave" unicode="&#xcc;" horiz-adv-x="612" 
d="M377 1851l127 -303h-277l-202 303h352zM489 0h-366v1434h366v-1434z" />
    <glyph glyph-name="Iacute" unicode="&#xcd;" horiz-adv-x="612" 
d="M446 1548h-276l127 303h352zM489 0h-366v1434h366v-1434z" />
    <glyph glyph-name="Icircumflex" unicode="&#xce;" horiz-adv-x="612" 
d="M-63 1548l217 287h303l217 -287h-279l-92 103l-94 -103h-272zM489 0h-366v1434h366v-1434z" />
    <glyph glyph-name="Idieresis" unicode="&#xcf;" horiz-adv-x="612" 
d="M-59 1573v274h290v-274h-290zM379 1573v274h291v-274h-291zM489 0h-366v1434h366v-1434z" />
    <glyph glyph-name="Eth" unicode="&#xd0;" horiz-adv-x="1607" 
d="M287 1434h508q120 0 228.5 -26t204.5 -82.5t166.5 -139t111 -203t40.5 -266.5t-40.5 -266.5t-111 -203t-166.5 -139t-204.5 -82.5t-228.5 -26h-508v588h-205v266h205v580zM651 311h101q68 0 128 12t116 41t96 74.5t64 116.5t24 162q0 113 -35.5 194.5t-98 126t-135 64.5
t-159.5 20h-101v-268h271v-266h-271v-277z" />
    <glyph glyph-name="Ntilde" unicode="&#xd1;" horiz-adv-x="1499" 
d="M862 1544q-47 0 -86 19t-69.5 38t-57.5 19q-30 0 -49.5 -20.5t-24.5 -53.5h-202q-4 129 73 219t187 90q37 0 69.5 -11.5t51 -26t42.5 -26t48 -11.5q34 0 55.5 20t26.5 53h198q3 -138 -74.5 -223.5t-187.5 -85.5zM487 0h-364v1434h383l338 -572q45 -77 89 -157t65 -121
l22 -41q-8 163 -8 364v527h364v-1434h-383l-338 571q-45 77 -89 157t-66 122l-21 41q8 -164 8 -365v-526z" />
    <glyph glyph-name="Ograve" unicode="&#xd2;" horiz-adv-x="1611" 
d="M881 1851l127 -303h-277l-203 303h353zM809 -16q-159 0 -298 55.5t-237.5 152.5t-155.5 233t-57 292t57 292t155.5 233t237.5 152.5t298 55.5q210 0 379.5 -94.5t265.5 -262.5t96 -376t-96 -376t-265.5 -262.5t-379.5 -94.5zM807 295q165 0 272 120t107 302t-107 302
t-272 120q-166 0 -273.5 -120t-107.5 -302t107.5 -302t273.5 -120z" />
    <glyph glyph-name="Oacute" unicode="&#xd3;" horiz-adv-x="1611" 
d="M950 1548h-276l127 303h352zM809 -16q-159 0 -298 55.5t-237.5 152.5t-155.5 233t-57 292t57 292t155.5 233t237.5 152.5t298 55.5q210 0 379.5 -94.5t265.5 -262.5t96 -376t-96 -376t-265.5 -262.5t-379.5 -94.5zM807 295q165 0 272 120t107 302t-107 302t-272 120
q-166 0 -273.5 -120t-107.5 -302t107.5 -302t273.5 -120z" />
    <glyph glyph-name="Ocircumflex" unicode="&#xd4;" horiz-adv-x="1611" 
d="M440 1548l217 287h304l217 -287h-279l-92 103l-94 -103h-273zM809 -16q-159 0 -298 55.5t-237.5 152.5t-155.5 233t-57 292t57 292t155.5 233t237.5 152.5t298 55.5q210 0 379.5 -94.5t265.5 -262.5t96 -376t-96 -376t-265.5 -262.5t-379.5 -94.5zM807 295q165 0 272 120
t107 302t-107 302t-272 120q-166 0 -273.5 -120t-107.5 -302t107.5 -302t273.5 -120z" />
    <glyph glyph-name="Otilde" unicode="&#xd5;" horiz-adv-x="1611" 
d="M922 1544q-47 0 -86 19t-69.5 38t-57.5 19q-30 0 -49.5 -20.5t-24.5 -53.5h-203q-4 129 73 219t187 90q37 0 69.5 -11.5t51 -26t42.5 -26t48 -11.5q34 0 55.5 20t26.5 53h199q3 -138 -74.5 -223.5t-187.5 -85.5zM809 -16q-159 0 -298 55.5t-237.5 152.5t-155.5 233
t-57 292t57 292t155.5 233t237.5 152.5t298 55.5q210 0 379.5 -94.5t265.5 -262.5t96 -376t-96 -376t-265.5 -262.5t-379.5 -94.5zM807 295q165 0 272 120t107 302t-107 302t-272 120q-166 0 -273.5 -120t-107.5 -302t107.5 -302t273.5 -120z" />
    <glyph glyph-name="Odieresis" unicode="&#xd6;" horiz-adv-x="1611" 
d="M444 1573v274h291v-274h-291zM883 1573v274h291v-274h-291zM809 -16q-159 0 -298 55.5t-237.5 152.5t-155.5 233t-57 292t57 292t155.5 233t237.5 152.5t298 55.5q210 0 379.5 -94.5t265.5 -262.5t96 -376t-96 -376t-265.5 -262.5t-379.5 -94.5zM807 295q165 0 272 120
t107 302t-107 302t-272 120q-166 0 -273.5 -120t-107.5 -302t107.5 -302t273.5 -120z" />
    <glyph glyph-name="multiply" unicode="&#xd7;" horiz-adv-x="1304" 
d="M856 709l326 -326l-205 -205l-326 326l-323 -326l-205 205l323 326l-323 323l205 205l323 -324l324 324l205 -205z" />
    <glyph glyph-name="Oslash" unicode="&#xd8;" horiz-adv-x="1611" 
d="M1495 1341l-115 -143q170 -204 170 -481q0 -208 -96 -376t-265.5 -262.5t-379.5 -94.5q-190 0 -346 75l-123 -151l-217 182l115 141q-177 203 -177 486q0 156 57 292t155.5 233t237.5 152.5t298 55.5q184 0 346 -78l123 152zM426 717q0 -112 41 -199l479 594
q-73 27 -139 27q-166 0 -273.5 -120t-107.5 -302zM807 295q165 0 272 120t107 302q0 106 -39 192l-475 -590q62 -24 135 -24z" />
    <glyph glyph-name="Ugrave" unicode="&#xd9;" horiz-adv-x="1357" 
d="M752 1851l127 -303h-277l-203 303h353zM680 -16q-131 0 -237 34.5t-184.5 102t-121.5 175.5t-43 249v889h338v-885q0 -129 67 -189.5t181 -60.5q113 0 180.5 61t67.5 189v885h336v-889q0 -141 -42.5 -249t-120.5 -175.5t-184 -102t-237 -34.5z" />
    <glyph glyph-name="Uacute" unicode="&#xda;" horiz-adv-x="1357" 
d="M821 1548h-276l127 303h352zM680 -16q-131 0 -237 34.5t-184.5 102t-121.5 175.5t-43 249v889h338v-885q0 -129 67 -189.5t181 -60.5q113 0 180.5 61t67.5 189v885h336v-889q0 -141 -42.5 -249t-120.5 -175.5t-184 -102t-237 -34.5z" />
    <glyph glyph-name="Ucircumflex" unicode="&#xdb;" horiz-adv-x="1357" 
d="M311 1548l217 287h303l218 -287h-279l-92 103l-94 -103h-273zM680 -16q-131 0 -237 34.5t-184.5 102t-121.5 175.5t-43 249v889h338v-885q0 -129 67 -189.5t181 -60.5q113 0 180.5 61t67.5 189v885h336v-889q0 -141 -42.5 -249t-120.5 -175.5t-184 -102t-237 -34.5z" />
    <glyph glyph-name="Udieresis" unicode="&#xdc;" horiz-adv-x="1357" 
d="M315 1573v274h291v-274h-291zM754 1573v274h290v-274h-290zM680 -16q-131 0 -237 34.5t-184.5 102t-121.5 175.5t-43 249v889h338v-885q0 -129 67 -189.5t181 -60.5q113 0 180.5 61t67.5 189v885h336v-889q0 -141 -42.5 -249t-120.5 -175.5t-184 -102t-237 -34.5z" />
    <glyph glyph-name="Yacute" unicode="&#xdd;" horiz-adv-x="1325" 
d="M803 1548h-277l127 303h353zM846 0h-367v590l-479 844h385l277 -504l280 504h383l-479 -844v-590z" />
    <glyph glyph-name="Thorn" unicode="&#xde;" horiz-adv-x="1259" 
d="M492 0h-367v1434h367v-273h243q233 0 364.5 -120t131.5 -324t-131.5 -324.5t-364.5 -120.5h-243v-272zM492 862v-291h219q85 0 128.5 39t43.5 107t-43.5 106.5t-128.5 38.5h-219z" />
    <glyph glyph-name="germandbls" unicode="&#xdf;" horiz-adv-x="1286" 
d="M1001 782q98 -44 162 -133t64 -217q0 -136 -67.5 -235t-182 -148t-262.5 -49h-127v311h102q100 0 149.5 34t49.5 110q0 147 -199 147h-102v303h88q147 0 147 123q0 61 -37.5 100t-117.5 39t-129.5 -61t-49.5 -160v-946h-358v602h-119v303h119v56q0 146 70 258t192 171.5
t275 59.5q216 0 350.5 -103.5t134.5 -281.5q0 -95 -44.5 -170.5t-107.5 -112.5z" />
    <glyph glyph-name="agrave" unicode="&#xe0;" horiz-adv-x="1071" 
d="M608 1450l127 -303h-276l-203 303h352zM530 1049q197 0 328 -106.5t131 -278.5v-664h-336v127q-20 -65 -92 -104t-172 -39q-143 0 -236.5 89t-93.5 220q0 151 100 238t265 87h147q39 0 60.5 24.5t21.5 62.5q0 47 -37.5 75.5t-105.5 28.5q-79 0 -116.5 -40.5t-39.5 -102.5
h-295q3 80 34.5 148.5t89 121t147 83t200.5 30.5zM653 406v8h-172q-44 0 -73 -29.5t-29 -75.5q0 -39 29.5 -64.5t74.5 -25.5q78 0 124 55.5t46 131.5z" />
    <glyph glyph-name="aacute" unicode="&#xe1;" horiz-adv-x="1071" 
d="M528 1450h353l-203 -303h-277zM530 1049q197 0 328 -106.5t131 -278.5v-664h-336v127q-20 -65 -92 -104t-172 -39q-143 0 -236.5 89t-93.5 220q0 151 100 238t265 87h147q39 0 60.5 24.5t21.5 62.5q0 47 -37.5 75.5t-105.5 28.5q-79 0 -116.5 -40.5t-39.5 -102.5h-295
q3 80 34.5 148.5t89 121t147 83t200.5 30.5zM653 406v8h-172q-44 0 -73 -29.5t-29 -75.5q0 -39 29.5 -64.5t74.5 -25.5q78 0 124 55.5t46 131.5z" />
    <glyph glyph-name="acircumflex" unicode="&#xe2;" horiz-adv-x="1071" 
d="M627 1147l-92 102l-95 -102h-272l217 287h303l217 -287h-278zM530 1049q197 0 328 -106.5t131 -278.5v-664h-336v127q-20 -65 -92 -104t-172 -39q-143 0 -236.5 89t-93.5 220q0 151 100 238t265 87h147q39 0 60.5 24.5t21.5 62.5q0 47 -37.5 75.5t-105.5 28.5
q-79 0 -116.5 -40.5t-39.5 -102.5h-295q3 80 34.5 148.5t89 121t147 83t200.5 30.5zM653 406v8h-172q-44 0 -73 -29.5t-29 -75.5q0 -39 29.5 -64.5t74.5 -25.5q78 0 124 55.5t46 131.5z" />
    <glyph glyph-name="atilde" unicode="&#xe3;" horiz-adv-x="1071" 
d="M362 1145h-202q-4 129 73 219t187 90q47 0 84.5 -19t67.5 -38t59 -19q34 0 55.5 20.5t26.5 53.5h198q3 -138 -74.5 -223.5t-187.5 -85.5q-47 0 -86 19t-69.5 38t-57.5 19q-30 0 -49.5 -20.5t-24.5 -53.5zM530 1049q197 0 328 -106.5t131 -278.5v-664h-336v127
q-20 -65 -92 -104t-172 -39q-143 0 -236.5 89t-93.5 220q0 151 100 238t265 87h147q39 0 60.5 24.5t21.5 62.5q0 47 -37.5 75.5t-105.5 28.5q-79 0 -116.5 -40.5t-39.5 -102.5h-295q3 80 34.5 148.5t89 121t147 83t200.5 30.5zM653 406v8h-172q-44 0 -73 -29.5t-29 -75.5
q0 -39 29.5 -64.5t74.5 -25.5q78 0 124 55.5t46 131.5z" />
    <glyph glyph-name="adieresis" unicode="&#xe4;" horiz-adv-x="1071" 
d="M172 1446h291v-275h-291v275zM610 1446h291v-275h-291v275zM530 1049q197 0 328 -106.5t131 -278.5v-664h-336v127q-20 -65 -92 -104t-172 -39q-143 0 -236.5 89t-93.5 220q0 151 100 238t265 87h147q39 0 60.5 24.5t21.5 62.5q0 47 -37.5 75.5t-105.5 28.5
q-79 0 -116.5 -40.5t-39.5 -102.5h-295q3 80 34.5 148.5t89 121t147 83t200.5 30.5zM653 406v8h-172q-44 0 -73 -29.5t-29 -75.5q0 -39 29.5 -64.5t74.5 -25.5q78 0 124 55.5t46 131.5z" />
    <glyph glyph-name="aring" unicode="&#xe5;" horiz-adv-x="1071" 
d="M535 1118q-129 0 -212 77t-83 194q0 116 83.5 193t211.5 77q131 0 215 -77t84 -193q0 -118 -84 -194.5t-215 -76.5zM535 1491q-49 0 -80 -28.5t-31 -73.5q0 -46 31 -75.5t80 -29.5q52 0 83 29.5t31 75.5q0 45 -31 73.5t-83 28.5zM530 1049q197 0 328 -106.5t131 -278.5
v-664h-336v127q-20 -65 -92 -104t-172 -39q-143 0 -236.5 89t-93.5 220q0 151 100 238t265 87h147q39 0 60.5 24.5t21.5 62.5q0 47 -37.5 75.5t-105.5 28.5q-79 0 -116.5 -40.5t-39.5 -102.5h-295q3 80 34.5 148.5t89 121t147 83t200.5 30.5zM653 406v8h-172
q-44 0 -73 -29.5t-29 -75.5q0 -39 29.5 -64.5t74.5 -25.5q78 0 124 55.5t46 131.5z" />
    <glyph glyph-name="ae" unicode="&#xe6;" horiz-adv-x="1728" 
d="M1188 256q148 0 174 102h326q-32 -170 -170 -272t-330 -102q-243 0 -393 157q-115 -157 -336 -157q-199 0 -299.5 86t-100.5 223q0 151 100 238t265 87h154q35 0 55 21.5t20 58.5v7q0 47 -37.5 75.5t-105.5 28.5q-79 0 -116.5 -41t-39.5 -106h-295q6 167 124.5 277
t320.5 110q211 0 338 -105q133 105 325 105q113 0 204 -32.5t149 -85t97 -121t55 -136.5t16 -137q0 -39 -5 -101h-710q15 -87 69.5 -133.5t145.5 -46.5zM1167 809q-84 0 -130.5 -40t-63.5 -132h381q-5 71 -54.5 121.5t-132.5 50.5zM483 219q78 0 124 55.5t46 131.5v8h-172
q-44 0 -73 -29.5t-29 -75.5q0 -39 29.5 -64.5t74.5 -25.5z" />
    <glyph glyph-name="ccedilla" unicode="&#xe7;" horiz-adv-x="1146" 
d="M770 406h346q-19 -157 -144 -273.5t-300 -142.5l-58 -119q116 16 184 -41t68 -143q0 -92 -87 -153.5t-218 -61.5q-84 0 -176 28v160q95 -31 174 -31q41 0 68.5 14.5t27.5 41.5q0 34 -46 50.5t-115 2.5l-68 67l78 185q-207 26 -335 170.5t-128 355.5q0 233 153.5 383
t391.5 150q217 0 363 -118.5t157 -301.5h-340q-12 59 -60.5 96t-115.5 37q-99 0 -155 -66.5t-56 -179.5t59.5 -179.5t161.5 -66.5q66 0 112.5 38t57.5 98z" />
    <glyph glyph-name="egrave" unicode="&#xe8;" horiz-adv-x="1120" 
d="M643 1450l127 -303h-276l-203 303h352zM580 256q148 0 174 102h325q-32 -170 -169.5 -272t-329.5 -102q-133 0 -239.5 48.5t-170 127t-96.5 170t-33 186.5q0 76 18 149.5t58 143.5t99 123t147.5 85t195.5 32q113 0 204 -32.5t148.5 -85t96.5 -121t55 -136.5t16 -137
q0 -51 -4 -101h-710q15 -87 69.5 -133.5t145.5 -46.5zM559 809q-84 0 -130.5 -40t-63.5 -132h380q-5 71 -54 121.5t-132 50.5z" />
    <glyph glyph-name="eacute" unicode="&#xe9;" horiz-adv-x="1120" 
d="M563 1450h352l-202 -303h-277zM580 256q148 0 174 102h325q-32 -170 -169.5 -272t-329.5 -102q-133 0 -239.5 48.5t-170 127t-96.5 170t-33 186.5q0 76 18 149.5t58 143.5t99 123t147.5 85t195.5 32q113 0 204 -32.5t148.5 -85t96.5 -121t55 -136.5t16 -137
q0 -51 -4 -101h-710q15 -87 69.5 -133.5t145.5 -46.5zM559 809q-84 0 -130.5 -40t-63.5 -132h380q-5 71 -54 121.5t-132 50.5z" />
    <glyph glyph-name="ecircumflex" unicode="&#xea;" horiz-adv-x="1120" 
d="M662 1147l-93 102l-94 -102h-272l217 287h303l217 -287h-278zM580 256q148 0 174 102h325q-32 -170 -169.5 -272t-329.5 -102q-133 0 -239.5 48.5t-170 127t-96.5 170t-33 186.5q0 76 18 149.5t58 143.5t99 123t147.5 85t195.5 32q113 0 204 -32.5t148.5 -85t96.5 -121
t55 -136.5t16 -137q0 -51 -4 -101h-710q15 -87 69.5 -133.5t145.5 -46.5zM559 809q-84 0 -130.5 -40t-63.5 -132h380q-5 71 -54 121.5t-132 50.5z" />
    <glyph glyph-name="edieresis" unicode="&#xeb;" horiz-adv-x="1120" 
d="M207 1446h291v-275h-291v275zM645 1446h291v-275h-291v275zM580 256q148 0 174 102h325q-32 -170 -169.5 -272t-329.5 -102q-133 0 -239.5 48.5t-170 127t-96.5 170t-33 186.5q0 76 18 149.5t58 143.5t99 123t147.5 85t195.5 32q113 0 204 -32.5t148.5 -85t96.5 -121
t55 -136.5t16 -137q0 -51 -4 -101h-710q15 -87 69.5 -133.5t145.5 -46.5zM559 809q-84 0 -130.5 -40t-63.5 -132h380q-5 71 -54 121.5t-132 50.5z" />
    <glyph glyph-name="igrave" unicode="&#xec;" horiz-adv-x="522" 
d="M332 1450l127 -303h-277l-202 303h352zM430 0h-338v1032h338v-1032z" />
    <glyph glyph-name="iacute" unicode="&#xed;" horiz-adv-x="522" 
d="M401 1147h-276l127 303h352zM430 0h-338v1032h338v-1032z" />
    <glyph glyph-name="icircumflex" unicode="&#xee;" horiz-adv-x="522" 
d="M-109 1147l218 287h303l217 -287h-279l-92 102l-94 -102h-273zM430 0h-338v1032h338v-1032z" />
    <glyph glyph-name="idieresis" unicode="&#xef;" horiz-adv-x="522" 
d="M-104 1171v275h290v-275h-290zM334 1171v275h291v-275h-291zM430 0h-338v1032h338v-1032z" />
    <glyph glyph-name="eth" unicode="&#xf0;" horiz-adv-x="1187" 
d="M887 1362l-123 -78q176 -176 272.5 -368.5t96.5 -383.5q0 -157 -65.5 -281t-189 -195.5t-284.5 -71.5q-126 0 -228.5 37.5t-170 103.5t-104 156t-36.5 196q0 132 65 246.5t175 182t237 67.5q121 0 193 -35q-106 121 -188 201l-175 -111l-114 162l141 90
q-132 122 -252 211h379q35 -24 94 -72l156 101zM594 266q97 0 148 59t51 152t-51 152t-148 59q-96 0 -146.5 -59t-50.5 -152t50.5 -152t146.5 -59z" />
    <glyph glyph-name="ntilde" unicode="&#xf1;" 
d="M713 1143q-47 0 -86 19t-69.5 38t-57.5 19q-30 0 -49.5 -20.5t-24.5 -53.5h-203q-4 129 73 219t187 90q47 0 84.5 -19t67.5 -38t59 -19q34 0 55.5 20.5t26.5 53.5h199q3 -138 -74.5 -223.5t-187.5 -85.5zM430 0h-338v1032h338v-119q46 62 125.5 99t177.5 37
q171 0 277 -113t106 -287v-649h-338v569q0 77 -49 129t-125 52t-125 -52t-49 -129v-569z" />
    <glyph glyph-name="ograve" unicode="&#xf2;" horiz-adv-x="1187" 
d="M666 1450l127 -303h-277l-203 303h353zM594 -16q-159 0 -285.5 69t-197 190.5t-70.5 272.5t70.5 272.5t197 191t285.5 69.5t285.5 -69.5t197 -191t70.5 -272.5t-70.5 -272.5t-197 -190.5t-285.5 -69zM594 270q97 0 156 68t59 178t-59 178t-156 68t-156 -68t-59 -178
t59 -178t156 -68z" />
    <glyph glyph-name="oacute" unicode="&#xf3;" horiz-adv-x="1187" 
d="M735 1147h-276l127 303h352zM594 -16q-159 0 -285.5 69t-197 190.5t-70.5 272.5t70.5 272.5t197 191t285.5 69.5t285.5 -69.5t197 -191t70.5 -272.5t-70.5 -272.5t-197 -190.5t-285.5 -69zM594 270q97 0 156 68t59 178t-59 178t-156 68t-156 -68t-59 -178t59 -178
t156 -68z" />
    <glyph glyph-name="ocircumflex" unicode="&#xf4;" horiz-adv-x="1187" 
d="M225 1147l217 287h303l218 -287h-279l-92 102l-94 -102h-273zM594 -16q-159 0 -285.5 69t-197 190.5t-70.5 272.5t70.5 272.5t197 191t285.5 69.5t285.5 -69.5t197 -191t70.5 -272.5t-70.5 -272.5t-197 -190.5t-285.5 -69zM594 270q97 0 156 68t59 178t-59 178t-156 68
t-156 -68t-59 -178t59 -178t156 -68z" />
    <glyph glyph-name="otilde" unicode="&#xf5;" horiz-adv-x="1187" 
d="M707 1143q-47 0 -86 19t-69.5 38t-57.5 19q-30 0 -49.5 -20.5t-24.5 -53.5h-203q-4 129 73 219t187 90q47 0 84.5 -19t67.5 -38t59 -19q34 0 55.5 20.5t26.5 53.5h199q3 -138 -74.5 -223.5t-187.5 -85.5zM594 -16q-159 0 -285.5 69t-197 190.5t-70.5 272.5t70.5 272.5
t197 191t285.5 69.5t285.5 -69.5t197 -191t70.5 -272.5t-70.5 -272.5t-197 -190.5t-285.5 -69zM594 270q97 0 156 68t59 178t-59 178t-156 68t-156 -68t-59 -178t59 -178t156 -68z" />
    <glyph glyph-name="odieresis" unicode="&#xf6;" horiz-adv-x="1187" 
d="M229 1171v275h291v-275h-291zM668 1171v275h290v-275h-290zM594 -16q-159 0 -285.5 69t-197 190.5t-70.5 272.5t70.5 272.5t197 191t285.5 69.5t285.5 -69.5t197 -191t70.5 -272.5t-70.5 -272.5t-197 -190.5t-285.5 -69zM594 270q97 0 156 68t59 178t-59 178t-156 68
t-156 -68t-59 -178t59 -178t156 -68z" />
    <glyph glyph-name="divide" unicode="&#xf7;" horiz-adv-x="1372" 
d="M508 952v340h360v-340h-360zM1249 506h-1126v287h1126v-287zM508 0v340h360v-340h-360z" />
    <glyph glyph-name="oslash" unicode="&#xf8;" horiz-adv-x="1187" 
d="M1081 981l-77 -96q143 -149 143 -369q0 -151 -70.5 -272.5t-197 -190.5t-285.5 -69q-144 0 -268 59l-84 -104l-138 112l78 99q-141 151 -141 366q0 151 70.5 272.5t197 191t285.5 69.5q146 0 266 -60l84 105zM379 516q0 -54 16 -104l273 338q-34 12 -74 12
q-97 0 -156 -68t-59 -178zM594 270q97 0 156 68t59 178q0 55 -16 105l-275 -338q41 -13 76 -13z" />
    <glyph glyph-name="ugrave" unicode="&#xf9;" 
d="M682 1450l127 -303h-277l-202 303h352zM778 1032h338v-1032h-338v119q-46 -62 -125 -98.5t-178 -36.5q-171 0 -277 112.5t-106 286.5v649h338v-569q0 -77 49 -128.5t125 -51.5t125 51.5t49 128.5v569z" />
    <glyph glyph-name="uacute" unicode="&#xfa;" 
d="M752 1147h-277l127 303h352zM778 1032h338v-1032h-338v119q-46 -62 -125 -98.5t-178 -36.5q-171 0 -277 112.5t-106 286.5v649h338v-569q0 -77 49 -128.5t125 -51.5t125 51.5t49 128.5v569z" />
    <glyph glyph-name="ucircumflex" unicode="&#xfb;" 
d="M242 1147l217 287h303l217 -287h-279l-92 102l-94 -102h-272zM778 1032h338v-1032h-338v119q-46 -62 -125 -98.5t-178 -36.5q-171 0 -277 112.5t-106 286.5v649h338v-569q0 -77 49 -128.5t125 -51.5t125 51.5t49 128.5v569z" />
    <glyph glyph-name="udieresis" unicode="&#xfc;" 
d="M246 1171v275h291v-275h-291zM684 1171v275h291v-275h-291zM778 1032h338v-1032h-338v119q-46 -62 -125 -98.5t-178 -36.5q-171 0 -277 112.5t-106 286.5v649h338v-569q0 -77 49 -128.5t125 -51.5t125 51.5t49 128.5v569z" />
    <glyph glyph-name="yacute" unicode="&#xfd;" horiz-adv-x="1064" 
d="M537 1450h352l-203 -303h-276zM715 1032h344l-373 -1024l-149 -426h-322l162 438l-371 1012h342l184 -600z" />
    <glyph glyph-name="thorn" unicode="&#xfe;" horiz-adv-x="1247" 
d="M449 -418h-338v1852h338v-490q100 105 274 105q209 0 337 -144t128 -389q0 -244 -138.5 -388t-357.5 -144q-172 0 -243 77v-479zM643 270q97 0 156 62t59 184t-59 184t-156 62t-155 -61.5t-58 -184.5t58 -184.5t155 -61.5z" />
    <glyph glyph-name="ydieresis" unicode="&#xff;" horiz-adv-x="1064" 
d="M180 1446h291v-275h-291v275zM618 1446h291v-275h-291v275zM715 1032h344l-373 -1024l-149 -426h-322l162 438l-371 1012h342l184 -600z" />
    <glyph glyph-name="Amacron" unicode="&#x100;" horiz-adv-x="1433" 
d="M420 1835h590v-250h-590v250zM1425 0h-376l-97 281h-469l-96 -281h-379l535 1434h348zM610 645l-20 -61h256l-21 61q-29 84 -55.5 171t-38.5 132l-12 45q-46 -160 -109 -348z" />
    <glyph glyph-name="amacron" unicode="&#x101;" horiz-adv-x="1071" 
d="M240 1434h589v-250h-589v250zM530 1049q197 0 328 -106.5t131 -278.5v-664h-336v127q-20 -65 -92 -104t-172 -39q-143 0 -236.5 89t-93.5 220q0 151 100 238t265 87h147q39 0 60.5 24.5t21.5 62.5q0 47 -37.5 75.5t-105.5 28.5q-79 0 -116.5 -40.5t-39.5 -102.5h-295
q3 80 34.5 148.5t89 121t147 83t200.5 30.5zM653 406v8h-172q-44 0 -73 -29.5t-29 -75.5q0 -39 29.5 -64.5t74.5 -25.5q78 0 124 55.5t46 131.5z" />
    <glyph glyph-name="Abreve" unicode="&#x102;" horiz-adv-x="1433" 
d="M717 1534q-146 0 -236 90.5t-90 210.5h256q0 -88 70 -88q71 0 71 88h256q0 -121 -90 -211t-237 -90zM1425 0h-376l-97 281h-469l-96 -281h-379l535 1434h348zM610 645l-20 -61h256l-21 61q-29 84 -55.5 171t-38.5 132l-12 45q-46 -160 -109 -348z" />
    <glyph glyph-name="abreve" unicode="&#x103;" horiz-adv-x="1071" 
d="M537 1133q-146 0 -236 90.5t-90 210.5h256q0 -88 70 -88q71 0 71 88h256q0 -121 -90 -211t-237 -90zM530 1049q197 0 328 -106.5t131 -278.5v-664h-336v127q-20 -65 -92 -104t-172 -39q-143 0 -236.5 89t-93.5 220q0 151 100 238t265 87h147q39 0 60.5 24.5t21.5 62.5
q0 47 -37.5 75.5t-105.5 28.5q-79 0 -116.5 -40.5t-39.5 -102.5h-295q3 80 34.5 148.5t89 121t147 83t200.5 30.5zM653 406v8h-172q-44 0 -73 -29.5t-29 -75.5q0 -39 29.5 -64.5t74.5 -25.5q78 0 124 55.5t46 131.5z" />
    <glyph glyph-name="Aogonek" unicode="&#x104;" horiz-adv-x="1433" 
d="M1442 -143l121 -140q-95 -151 -258 -151q-103 0 -166.5 55t-63.5 139q0 74 47 142.5t117 97.5h-190l-97 281h-469l-96 -281h-379l535 1434h348l534 -1434q-112 -72 -112 -150q0 -51 47 -51q40 0 82 58zM610 645l-20 -61h256l-21 61q-29 84 -55.5 171t-38.5 132l-12 45
q-46 -160 -109 -348z" />
    <glyph glyph-name="aogonek" unicode="&#x105;" horiz-adv-x="1071" 
d="M1004 -143l120 -140q-95 -151 -258 -151q-103 0 -166 55t-63 139q0 74 47 142.5t117 97.5h-148v127q-20 -65 -92 -104t-172 -39q-143 0 -236.5 89t-93.5 220q0 151 100 238t265 87h147q39 0 60.5 24.5t21.5 62.5q0 47 -37.5 75.5t-105.5 28.5q-79 0 -116.5 -40.5
t-39.5 -102.5h-295q3 80 34.5 148.5t89 121t147 83t200.5 30.5q197 0 328 -106.5t131 -278.5v-664h-2q-113 -73 -113 -150q0 -51 48 -51q40 0 82 58zM653 406v8h-172q-44 0 -73 -29.5t-29 -75.5q0 -39 29.5 -64.5t74.5 -25.5q78 0 124 55.5t46 131.5z" />
    <glyph glyph-name="Cacute" unicode="&#x106;" horiz-adv-x="1525" 
d="M932 1548h-277l127 303h353zM795 -16q-153 0 -285 48t-232.5 138t-158.5 231t-58 316t59 316t160.5 231t233 138t281.5 48q284 0 471.5 -146t216.5 -391h-383q-13 102 -97.5 164t-209.5 62q-158 0 -261.5 -110.5t-103.5 -311.5q0 -202 103 -312t262 -110q126 0 212.5 61
t106.5 164h363q-20 -244 -205.5 -390t-474.5 -146z" />
    <glyph glyph-name="cacute" unicode="&#x107;" horiz-adv-x="1146" 
d="M700 1147h-276l127 303h352zM586 -16q-238 0 -391.5 149.5t-153.5 382.5t153.5 383t391.5 150q217 0 363 -118.5t157 -301.5h-340q-12 59 -60.5 96t-115.5 37q-99 0 -155 -66.5t-56 -179.5t59.5 -179.5t161.5 -66.5q66 0 112.5 38t57.5 98h346q-20 -177 -174 -299.5
t-356 -122.5z" />
    <glyph glyph-name="Ccircumflex" unicode="&#x108;" horiz-adv-x="1525" 
d="M422 1548l217 287h303l217 -287h-278l-93 103l-94 -103h-272zM795 -16q-153 0 -285 48t-232.5 138t-158.5 231t-58 316t59 316t160.5 231t233 138t281.5 48q284 0 471.5 -146t216.5 -391h-383q-13 102 -97.5 164t-209.5 62q-158 0 -261.5 -110.5t-103.5 -311.5
q0 -202 103 -312t262 -110q126 0 212.5 61t106.5 164h363q-20 -244 -205.5 -390t-474.5 -146z" />
    <glyph glyph-name="ccircumflex" unicode="&#x109;" horiz-adv-x="1146" 
d="M190 1147l218 287h303l217 -287h-279l-92 102l-94 -102h-273zM586 -16q-238 0 -391.5 149.5t-153.5 382.5t153.5 383t391.5 150q217 0 363 -118.5t157 -301.5h-340q-12 59 -60.5 96t-115.5 37q-99 0 -155 -66.5t-56 -179.5t59.5 -179.5t161.5 -66.5q66 0 112.5 38
t57.5 98h346q-20 -177 -174 -299.5t-356 -122.5z" />
    <glyph glyph-name="Cdotaccent" unicode="&#x10a;" horiz-adv-x="1525" 
d="M616 1561v331h353v-331h-353zM795 -16q-153 0 -285 48t-232.5 138t-158.5 231t-58 316t59 316t160.5 231t233 138t281.5 48q284 0 471.5 -146t216.5 -391h-383q-13 102 -97.5 164t-209.5 62q-158 0 -261.5 -110.5t-103.5 -311.5q0 -202 103 -312t262 -110q126 0 212.5 61
t106.5 164h363q-20 -244 -205.5 -390t-474.5 -146z" />
    <glyph glyph-name="cdotaccent" unicode="&#x10b;" horiz-adv-x="1146" 
d="M385 1159v332h352v-332h-352zM586 -16q-238 0 -391.5 149.5t-153.5 382.5t153.5 383t391.5 150q217 0 363 -118.5t157 -301.5h-340q-12 59 -60.5 96t-115.5 37q-99 0 -155 -66.5t-56 -179.5t59.5 -179.5t161.5 -66.5q66 0 112.5 38t57.5 98h346q-20 -177 -174 -299.5
t-356 -122.5z" />
    <glyph glyph-name="Ccaron" unicode="&#x10c;" horiz-adv-x="1525" 
d="M942 1548h-303l-217 287h272l94 -102l93 102h278zM795 -16q-153 0 -285 48t-232.5 138t-158.5 231t-58 316t59 316t160.5 231t233 138t281.5 48q284 0 471.5 -146t216.5 -391h-383q-13 102 -97.5 164t-209.5 62q-158 0 -261.5 -110.5t-103.5 -311.5q0 -202 103 -312
t262 -110q126 0 212.5 61t106.5 164h363q-20 -244 -205.5 -390t-474.5 -146z" />
    <glyph glyph-name="ccaron" unicode="&#x10d;" horiz-adv-x="1146" 
d="M711 1147h-303l-218 287h273l94 -103l92 103h279zM586 -16q-238 0 -391.5 149.5t-153.5 382.5t153.5 383t391.5 150q217 0 363 -118.5t157 -301.5h-340q-12 59 -60.5 96t-115.5 37q-99 0 -155 -66.5t-56 -179.5t59.5 -179.5t161.5 -66.5q66 0 112.5 38t57.5 98h346
q-20 -177 -174 -299.5t-356 -122.5z" />
    <glyph glyph-name="Dcaron" unicode="&#x10e;" horiz-adv-x="1443" 
d="M754 1548h-303l-218 287h273l94 -102l92 102h279zM631 0h-508v1434h508q120 0 228.5 -26t204.5 -82.5t166.5 -139t111 -203t40.5 -266.5t-40.5 -266.5t-111 -203t-166.5 -139t-204.5 -82.5t-228.5 -26zM487 1122v-811h101q68 0 128 12t116 41t96 74.5t64 116.5t24 162
q0 113 -35.5 194.5t-98 126t-135 64.5t-159.5 20h-101z" />
    <glyph glyph-name="dcaron" unicode="&#x10f;" horiz-adv-x="1544" 
d="M1481 1147h-252l61 403h314zM524 -16q-223 0 -353 142.5t-130 389.5t129 390t348 143q170 0 262 -99v541h338v-1491h-338v88q-41 -50 -108 -77t-148 -27zM584 270q97 0 156 68t59 178t-59 178t-156 68q-95 0 -154 -68t-59 -178t59 -178t154 -68z" />
    <glyph glyph-name="Dcroat" unicode="&#x110;" horiz-adv-x="1607" 
d="M287 1434h508q120 0 228.5 -26t204.5 -82.5t166.5 -139t111 -203t40.5 -266.5t-40.5 -266.5t-111 -203t-166.5 -139t-204.5 -82.5t-228.5 -26h-508v588h-205v266h205v580zM651 311h101q68 0 128 12t116 41t96 74.5t64 116.5t24 162q0 113 -35.5 194.5t-98 126t-135 64.5
t-159.5 20h-101v-268h271v-266h-271v-277z" />
    <glyph glyph-name="dcroat" unicode="&#x111;" horiz-adv-x="1210" 
d="M1118 1354h174v-226h-174v-1128h-338v88q-41 -50 -108 -77t-148 -27q-223 0 -353 142.5t-130 389.5t129 390t348 143q170 0 262 -99v178h-276v226h276v137h338v-137zM584 270q97 0 156 68t59 178t-59 178t-156 68q-95 0 -154 -68t-59 -178t59 -178t154 -68z" />
    <glyph glyph-name="Emacron" unicode="&#x112;" horiz-adv-x="1214" 
d="M930 1585h-590v250h590v-250zM1155 0h-1032v1434h1010v-312h-646v-237h508v-312h-508v-262h668v-311z" />
    <glyph glyph-name="emacron" unicode="&#x113;" horiz-adv-x="1120" 
d="M274 1434h590v-250h-590v250zM580 256q148 0 174 102h325q-32 -170 -169.5 -272t-329.5 -102q-133 0 -239.5 48.5t-170 127t-96.5 170t-33 186.5q0 76 18 149.5t58 143.5t99 123t147.5 85t195.5 32q113 0 204 -32.5t148.5 -85t96.5 -121t55 -136.5t16 -137q0 -51 -4 -101
h-710q15 -87 69.5 -133.5t145.5 -46.5zM559 809q-84 0 -130.5 -40t-63.5 -132h380q-5 71 -54 121.5t-132 50.5z" />
    <glyph glyph-name="Ebreve" unicode="&#x114;" horiz-adv-x="1214" 
d="M637 1534q-146 0 -236 90.5t-90 210.5h256q0 -88 70 -88q72 0 72 88h256q0 -121 -90.5 -211t-237.5 -90zM1155 0h-1032v1434h1010v-312h-646v-237h508v-312h-508v-262h668v-311z" />
    <glyph glyph-name="ebreve" unicode="&#x115;" horiz-adv-x="1120" 
d="M571 1133q-146 0 -235.5 90t-89.5 211h256q0 -88 69 -88q72 0 72 88h256q0 -121 -90.5 -211t-237.5 -90zM580 256q148 0 174 102h325q-32 -170 -169.5 -272t-329.5 -102q-133 0 -239.5 48.5t-170 127t-96.5 170t-33 186.5q0 76 18 149.5t58 143.5t99 123t147.5 85
t195.5 32q113 0 204 -32.5t148.5 -85t96.5 -121t55 -136.5t16 -137q0 -51 -4 -101h-710q15 -87 69.5 -133.5t145.5 -46.5zM559 809q-84 0 -130.5 -40t-63.5 -132h380q-5 71 -54 121.5t-132 50.5z" />
    <glyph glyph-name="Edotaccent" unicode="&#x116;" horiz-adv-x="1214" 
d="M463 1561v331h352v-331h-352zM1155 0h-1032v1434h1010v-312h-646v-237h508v-312h-508v-262h668v-311z" />
    <glyph glyph-name="edotaccent" unicode="&#x117;" horiz-adv-x="1120" 
d="M397 1491h353v-332h-353v332zM580 256q148 0 174 102h325q-32 -170 -169.5 -272t-329.5 -102q-133 0 -239.5 48.5t-170 127t-96.5 170t-33 186.5q0 76 18 149.5t58 143.5t99 123t147.5 85t195.5 32q113 0 204 -32.5t148.5 -85t96.5 -121t55 -136.5t16 -137q0 -51 -4 -101
h-710q15 -87 69.5 -133.5t145.5 -46.5zM559 809q-84 0 -130.5 -40t-63.5 -132h380q-5 71 -54 121.5t-132 50.5z" />
    <glyph glyph-name="Eogonek" unicode="&#x118;" horiz-adv-x="1214" 
d="M1171 -143l121 -140q-95 -151 -258 -151q-103 0 -166 55t-63 139q0 74 47 142.5t117 97.5h-846v1434h1010v-312h-646v-237h508v-312h-508v-262h668v-311q-113 -73 -113 -150q0 -51 48 -51q39 0 81 58z" />
    <glyph glyph-name="eogonek" unicode="&#x119;" horiz-adv-x="1120" 
d="M580 256q148 0 174 102h325q-26 -136 -121 -230.5t-235 -127.5q-113 -73 -113 -150q0 -51 47 -51q40 0 82 58l121 -140q-95 -151 -258 -151q-103 0 -166 55t-63 139q0 66 38.5 129.5t98.5 98.5q-116 12 -208.5 64t-147.5 128t-84 162t-29 174q0 76 18 149.5t58 143.5
t99 123t147.5 85t195.5 32q113 0 204 -32.5t148.5 -85t96.5 -121t55 -136.5t16 -137q0 -51 -4 -101h-710q15 -87 69.5 -133.5t145.5 -46.5zM559 809q-84 0 -130.5 -40t-63.5 -132h380q-5 71 -54 121.5t-132 50.5z" />
    <glyph glyph-name="Ecaron" unicode="&#x11a;" horiz-adv-x="1214" 
d="M788 1548h-303l-217 287h273l94 -102l92 102h279zM1155 0h-1032v1434h1010v-312h-646v-237h508v-312h-508v-262h668v-311z" />
    <glyph glyph-name="ecaron" unicode="&#x11b;" horiz-adv-x="1120" 
d="M940 1434l-217 -287h-303l-217 287h272l94 -103l93 103h278zM580 256q148 0 174 102h325q-32 -170 -169.5 -272t-329.5 -102q-133 0 -239.5 48.5t-170 127t-96.5 170t-33 186.5q0 76 18 149.5t58 143.5t99 123t147.5 85t195.5 32q113 0 204 -32.5t148.5 -85t96.5 -121
t55 -136.5t16 -137q0 -51 -4 -101h-710q15 -87 69.5 -133.5t145.5 -46.5zM559 809q-84 0 -130.5 -40t-63.5 -132h380q-5 71 -54 121.5t-132 50.5z" />
    <glyph glyph-name="Gcircumflex" unicode="&#x11c;" horiz-adv-x="1511" 
d="M406 1548l217 287h303l217 -287h-279l-92 103l-94 -103h-272zM791 -16q-207 0 -374 94t-261.5 262t-94.5 377q0 143 40 263.5t109 206t162 145.5t199 89t220 29q289 0 469.5 -149t189.5 -390h-356q-14 106 -92 167t-211 61q-161 0 -263 -114t-102 -308t102 -308t263 -114
q128 0 202 57t94 156l3 10h-271v287h621q6 -70 6 -207q0 -181 -84.5 -321t-233.5 -216.5t-337 -76.5z" />
    <glyph glyph-name="gcircumflex" unicode="&#x11d;" horiz-adv-x="1247" 
d="M715 1147l-92 102l-95 -102h-272l217 287h303l217 -287h-278zM799 946v86h338v-1005q0 -202 -145.5 -323.5t-387.5 -121.5q-246 0 -390 106.5t-144 297.5h336q0 -62 52.5 -93.5t145.5 -31.5q88 0 142.5 46.5t54.5 119.5v149q-76 -110 -258 -110q-220 0 -352 134t-132 357
t130.5 357.5t347.5 134.5q181 0 262 -103zM602 350q94 0 154.5 59t60.5 148t-60.5 147t-154.5 58q-92 0 -152.5 -58t-60.5 -147t60.5 -148t152.5 -59z" />
    <glyph glyph-name="Gbreve" unicode="&#x11e;" horiz-adv-x="1511" 
d="M774 1534q-146 0 -235.5 90t-89.5 211h256q0 -88 69 -88q72 0 72 88h256q0 -121 -90.5 -211t-237.5 -90zM791 -16q-207 0 -374 94t-261.5 262t-94.5 377q0 143 40 263.5t109 206t162 145.5t199 89t220 29q289 0 469.5 -149t189.5 -390h-356q-14 106 -92 167t-211 61
q-161 0 -263 -114t-102 -308t102 -308t263 -114q128 0 202 57t94 156l3 10h-271v287h621q6 -70 6 -207q0 -181 -84.5 -321t-233.5 -216.5t-337 -76.5z" />
    <glyph glyph-name="gbreve" unicode="&#x11f;" horiz-adv-x="1247" 
d="M625 1133q-146 0 -236 90.5t-90 210.5h256q0 -88 70 -88q71 0 71 88h256q0 -121 -90 -211t-237 -90zM799 946v86h338v-1005q0 -202 -145.5 -323.5t-387.5 -121.5q-246 0 -390 106.5t-144 297.5h336q0 -62 52.5 -93.5t145.5 -31.5q88 0 142.5 46.5t54.5 119.5v149
q-76 -110 -258 -110q-220 0 -352 134t-132 357t130.5 357.5t347.5 134.5q181 0 262 -103zM602 350q94 0 154.5 59t60.5 148t-60.5 147t-154.5 58q-92 0 -152.5 -58t-60.5 -147t60.5 -148t152.5 -59z" />
    <glyph glyph-name="Gdotaccent" unicode="&#x120;" horiz-adv-x="1511" 
d="M600 1561v331h352v-331h-352zM791 -16q-207 0 -374 94t-261.5 262t-94.5 377q0 143 40 263.5t109 206t162 145.5t199 89t220 29q289 0 469.5 -149t189.5 -390h-356q-14 106 -92 167t-211 61q-161 0 -263 -114t-102 -308t102 -308t263 -114q128 0 202 57t94 156l3 10h-271
v287h621q6 -70 6 -207q0 -181 -84.5 -321t-233.5 -216.5t-337 -76.5z" />
    <glyph glyph-name="gdotaccent" unicode="&#x121;" horiz-adv-x="1247" 
d="M451 1491h352v-332h-352v332zM799 946v86h338v-1005q0 -202 -145.5 -323.5t-387.5 -121.5q-246 0 -390 106.5t-144 297.5h336q0 -62 52.5 -93.5t145.5 -31.5q88 0 142.5 46.5t54.5 119.5v149q-76 -110 -258 -110q-220 0 -352 134t-132 357t130.5 357.5t347.5 134.5
q181 0 262 -103zM602 350q94 0 154.5 59t60.5 148t-60.5 147t-154.5 58q-92 0 -152.5 -58t-60.5 -147t60.5 -148t152.5 -59z" />
    <glyph glyph-name="uni0122" unicode="&#x122;" horiz-adv-x="1511" 
d="M791 -16q-207 0 -374 94t-261.5 262t-94.5 377q0 143 40 263.5t109 206t162 145.5t199 89t220 29q289 0 469.5 -149t189.5 -390h-356q-14 106 -92 167t-211 61q-161 0 -263 -114t-102 -308t102 -308t263 -114q128 0 202 57t94 156l3 10h-271v287h621q6 -70 6 -207
q0 -181 -84.5 -321t-233.5 -216.5t-337 -76.5zM788 -496h-292l96 357h381z" />
    <glyph glyph-name="uni0123" unicode="&#x123;" horiz-adv-x="1247" 
d="M580 1501h317l-59 -327h-396zM799 946v86h338v-1005q0 -202 -145.5 -323.5t-387.5 -121.5q-246 0 -390 106.5t-144 297.5h336q0 -62 52.5 -93.5t145.5 -31.5q88 0 142.5 46.5t54.5 119.5v149q-76 -110 -258 -110q-220 0 -352 134t-132 357t130.5 357.5t347.5 134.5
q181 0 262 -103zM602 350q94 0 154.5 59t60.5 148t-60.5 147t-154.5 58q-92 0 -152.5 -58t-60.5 -147t60.5 -148t152.5 -59z" />
    <glyph glyph-name="Hcircumflex" unicode="&#x124;" horiz-adv-x="1492" 
d="M838 1548l-93 103l-94 -103h-272l217 287h303l217 -287h-278zM1006 885v549h364v-1434h-364v573h-519v-573h-364v1434h364v-549h519z" />
    <glyph glyph-name="hcircumflex" unicode="&#x125;" 
d="M-106 1548l217 287h303l217 -287h-279l-92 103l-94 -103h-272zM430 0h-338v1491h338v-578q46 62 125.5 99t177.5 37q171 0 277 -113t106 -287v-649h-338v569q0 77 -49 129t-125 52t-125 -52t-49 -129v-569z" />
    <glyph glyph-name="Hbar" unicode="&#x126;" horiz-adv-x="1492" 
d="M1370 1321h119v-262h-119v-1059h-364v573h-519v-573h-364v1059h-119v262h119v113h364v-113h519v113h364v-113zM487 885h519v174h-519v-174z" />
    <glyph glyph-name="hbar" unicode="&#x127;" 
d="M733 1049q171 0 277 -113t106 -287v-649h-338v569q0 77 -49 129t-125 52t-125 -52t-49 -129v-569h-338v1128h-174v226h174v137h338v-137h277v-226h-277v-215q46 62 125.5 99t177.5 37z" />
    <glyph glyph-name="Itilde" unicode="&#x128;" horiz-adv-x="612" 
d="M418 1544q-47 0 -86 19t-69.5 38t-57.5 19q-30 0 -49.5 -20.5t-24.5 -53.5h-203q-4 129 73 219t187 90q37 0 69.5 -11.5t51 -26t42.5 -26t48 -11.5q34 0 55.5 20t26.5 53h199q3 -138 -74.5 -223.5t-187.5 -85.5zM489 0h-366v1434h366v-1434z" />
    <glyph glyph-name="itilde" unicode="&#x129;" horiz-adv-x="522" 
d="M373 1143q-47 0 -86 19t-69.5 38t-57.5 19q-30 0 -49.5 -20.5t-24.5 -53.5h-203q-4 129 73 219t187 90q47 0 84.5 -19t67.5 -38t59 -19q34 0 55.5 20.5t26.5 53.5h199q3 -138 -74.5 -223.5t-187.5 -85.5zM430 0h-338v1032h338v-1032z" />
    <glyph glyph-name="Imacron" unicode="&#x12a;" horiz-adv-x="612" 
d="M598 1585h-590v250h590v-250zM489 0h-366v1434h366v-1434z" />
    <glyph glyph-name="imacron" unicode="&#x12b;" horiz-adv-x="522" 
d="M553 1184h-590v250h590v-250zM430 0h-338v1032h338v-1032z" />
    <glyph glyph-name="Ibreve" unicode="&#x12c;" horiz-adv-x="612" 
d="M305 1534q-146 0 -235.5 90t-89.5 211h256q0 -88 69 -88q72 0 72 88h256q0 -121 -90.5 -211t-237.5 -90zM489 0h-366v1434h366v-1434z" />
    <glyph glyph-name="ibreve" unicode="&#x12d;" horiz-adv-x="522" 
d="M260 1133q-146 0 -236 90.5t-90 210.5h256q0 -88 70 -88q72 0 72 88h256q0 -121 -90.5 -211t-237.5 -90zM430 0h-338v1032h338v-1032z" />
    <glyph glyph-name="Iogonek" unicode="&#x12e;" horiz-adv-x="612" 
d="M453 -143l120 -140q-95 -151 -258 -151q-103 0 -166 55t-63 139q0 74 47 142.5t117 97.5h-127v1434h366v-1434h-53q-112 -72 -112 -150q0 -51 47 -51q40 0 82 58z" />
    <glyph glyph-name="iogonek" unicode="&#x12f;" horiz-adv-x="522" 
d="M86 1491h352v-332h-352v332zM449 -143l120 -140q-95 -151 -258 -151q-103 0 -166 55t-63 139q0 74 47 142.5t117 97.5h-154v1032h338v-1032h2q-113 -73 -113 -150q0 -51 48 -51q40 0 82 58z" />
    <glyph glyph-name="Idotaccent" unicode="&#x130;" horiz-adv-x="612" 
d="M131 1561v331h352v-331h-352zM489 0h-366v1434h366v-1434z" />
    <glyph glyph-name="dotlessi" unicode="&#x131;" horiz-adv-x="522" 
d="M430 0h-338v1032h338v-1032z" />
    <glyph glyph-name="IJ" unicode="&#x132;" horiz-adv-x="1394" 
d="M489 0h-366v1434h366v-1434zM664 0v311h137q80 0 108.5 37t28.5 127v959h365v-977q0 -229 -110 -343t-310 -114h-219z" />
    <glyph glyph-name="ij" unicode="&#x133;" horiz-adv-x="1044" 
d="M86 1159v332h352v-332h-352zM610 1159v332h353v-332h-353zM430 0h-338v1032h338v-1032zM614 -27v1059h338v-1100q0 -160 -107 -255t-286 -95h-123v258h62q51 0 83.5 37.5t32.5 95.5z" />
    <glyph glyph-name="Jcircumflex" unicode="&#x134;" horiz-adv-x="782" 
d="M137 1548l217 287h303l217 -287h-278l-92 103l-94 -103h-273zM51 0v311h137q81 0 109.5 37t28.5 127v959h364v-977q0 -229 -110 -343t-310 -114h-219z" />
    <glyph glyph-name="jcircumflex" unicode="&#x135;" horiz-adv-x="522" 
d="M-106 1147l217 287h303l217 -287h-279l-92 102l-94 -102h-272zM92 -27v1059h338v-1100q0 -160 -107 -255t-286 -95h-123v258h61q51 0 84 37.5t33 95.5z" />
    <glyph glyph-name="uni0136" unicode="&#x136;" horiz-adv-x="1480" 
d="M1430 1434l-502 -564l547 -870h-463l-334 592l-191 -213v-379h-364v1434h364v-562l490 562h453zM727 -496h-293l96 357h381z" />
    <glyph glyph-name="uni0137" unicode="&#x137;" horiz-adv-x="1191" 
d="M1157 1032l-399 -407l428 -625h-402l-245 399l-107 -108v-291h-340v1491h340v-774l303 315h422zM573 -496h-292l96 357h381z" />
    <glyph glyph-name="kgreenlandic" unicode="&#x138;" horiz-adv-x="1191" 
d="M1186 0h-402l-245 399l-107 -108v-291h-340v1032h340v-315l303 315h422l-399 -407z" />
    <glyph glyph-name="Lacute" unicode="&#x139;" horiz-adv-x="1134" 
d="M422 1548h-277l127 303h353zM1114 0h-989v1434h367v-1123h622v-311z" />
    <glyph glyph-name="lacute" unicode="&#x13a;" horiz-adv-x="522" 
d="M401 1548h-276l127 303h352zM430 0h-338v1491h338v-1491z" />
    <glyph glyph-name="uni013B" unicode="&#x13b;" horiz-adv-x="1134" 
d="M1114 0h-989v1434h367v-1123h622v-311zM582 -496h-293l96 357h381z" />
    <glyph glyph-name="uni013C" unicode="&#x13c;" horiz-adv-x="522" 
d="M430 0h-338v1491h338v-1491zM274 -496h-292l96 357h381z" />
    <glyph glyph-name="Lcaron" unicode="&#x13d;" horiz-adv-x="1134" 
d="M977 1147h-252l61 403h314zM1114 0h-989v1434h367v-1123h622v-311z" />
    <glyph glyph-name="lcaron" unicode="&#x13e;" horiz-adv-x="813" 
d="M793 1147h-252l61 403h313zM430 0h-338v1491h338v-1491z" />
    <glyph glyph-name="Ldot" unicode="&#x13f;" horiz-adv-x="1134" 
d="M467 1556h-361v340h361v-340zM1114 0h-989v1434h367v-1123h622v-311z" />
    <glyph glyph-name="ldot" unicode="&#x140;" horiz-adv-x="976" 
d="M430 0h-338v1491h338v-1491zM926 543h-361v340h361v-340z" />
    <glyph glyph-name="Lslash" unicode="&#x141;" horiz-adv-x="1134" 
d="M492 629v-318h622v-311h-989v535l-143 -37v270l143 37v629h367v-535l139 35v-270z" />
    <glyph glyph-name="lslash" unicode="&#x142;" horiz-adv-x="690" 
d="M514 993l156 39v-270l-156 -39v-723h-338v635l-156 -39v270l156 39v586h338v-498z" />
    <glyph glyph-name="Nacute" unicode="&#x143;" horiz-adv-x="1499" 
d="M891 1548h-277l127 303h353zM487 0h-364v1434h383l338 -572q45 -77 89 -157t65 -121l22 -41q-8 163 -8 364v527h364v-1434h-383l-338 571q-45 77 -89 157t-66 122l-21 41q8 -164 8 -365v-526z" />
    <glyph glyph-name="nacute" unicode="&#x144;" 
d="M741 1147h-276l127 303h352zM430 0h-338v1032h338v-119q46 62 125.5 99t177.5 37q171 0 277 -113t106 -287v-649h-338v569q0 77 -49 129t-125 52t-125 -52t-49 -129v-569z" />
    <glyph glyph-name="uni0145" unicode="&#x145;" horiz-adv-x="1499" 
d="M487 0h-364v1434h383l338 -572q45 -77 89 -157t65 -121l22 -41q-8 163 -8 364v527h364v-1434h-383l-338 571q-45 77 -89 157t-66 122l-21 41q8 -164 8 -365v-526zM764 -496h-293l96 357h381z" />
    <glyph glyph-name="uni0146" unicode="&#x146;" 
d="M430 0h-338v1032h338v-119q46 62 125.5 99t177.5 37q171 0 277 -113t106 -287v-649h-338v569q0 77 -49 129t-125 52t-125 -52t-49 -129v-569zM614 -496h-292l96 357h381z" />
    <glyph glyph-name="Ncaron" unicode="&#x147;" horiz-adv-x="1499" 
d="M901 1548h-303l-217 287h272l95 -102l92 102h278zM487 0h-364v1434h383l338 -572q45 -77 89 -157t65 -121l22 -41q-8 163 -8 364v527h364v-1434h-383l-338 571q-45 77 -89 157t-66 122l-21 41q8 -164 8 -365v-526z" />
    <glyph glyph-name="ncaron" unicode="&#x148;" 
d="M752 1147h-303l-218 287h273l94 -103l92 103h279zM430 0h-338v1032h338v-119q46 62 125.5 99t177.5 37q171 0 277 -113t106 -287v-649h-338v569q0 77 -49 129t-125 52t-125 -52t-49 -129v-569z" />
    <glyph glyph-name="napostrophe" unicode="&#x149;" horiz-adv-x="1228" 
d="M502 1147h-252l61 403h314zM430 0h-338v1032h338v-119q46 62 125.5 99t177.5 37q171 0 277 -113t106 -287v-649h-338v569q0 77 -49 129t-125 52t-125 -52t-49 -129v-569z" />
    <glyph glyph-name="Eng" unicode="&#x14a;" horiz-adv-x="1499" 
d="M1012 907v527h364v-1395q0 -229 -110 -343t-310 -114h-219v312h137q129 0 138 112l-353 569q-46 76 -91 155t-67 120l-22 41q8 -164 8 -365v-526h-364v1434h383l338 -572q45 -77 89 -157t65 -121l22 -41q-8 163 -8 364z" />
    <glyph glyph-name="eng" unicode="&#x14b;" 
d="M733 1049q171 0 277 -113t106 -287v-717q0 -160 -106.5 -255t-284.5 -95h-123v258h62q51 0 82.5 37t31.5 96v596q0 77 -49 129t-125 52t-125 -52t-49 -129v-569h-338v1032h338v-119q46 62 125.5 99t177.5 37z" />
    <glyph glyph-name="Omacron" unicode="&#x14c;" horiz-adv-x="1611" 
d="M1102 1585h-590v250h590v-250zM809 -16q-159 0 -298 55.5t-237.5 152.5t-155.5 233t-57 292t57 292t155.5 233t237.5 152.5t298 55.5q210 0 379.5 -94.5t265.5 -262.5t96 -376t-96 -376t-265.5 -262.5t-379.5 -94.5zM807 295q165 0 272 120t107 302t-107 302t-272 120
q-166 0 -273.5 -120t-107.5 -302t107.5 -302t273.5 -120z" />
    <glyph glyph-name="omacron" unicode="&#x14d;" horiz-adv-x="1187" 
d="M887 1184h-590v250h590v-250zM594 -16q-159 0 -285.5 69t-197 190.5t-70.5 272.5t70.5 272.5t197 191t285.5 69.5t285.5 -69.5t197 -191t70.5 -272.5t-70.5 -272.5t-197 -190.5t-285.5 -69zM594 270q97 0 156 68t59 178t-59 178t-156 68t-156 -68t-59 -178t59 -178
t156 -68z" />
    <glyph glyph-name="Obreve" unicode="&#x14e;" horiz-adv-x="1611" 
d="M809 1534q-146 0 -236 90.5t-90 210.5h256q0 -88 70 -88q72 0 72 88h256q0 -121 -90.5 -211t-237.5 -90zM809 -16q-159 0 -298 55.5t-237.5 152.5t-155.5 233t-57 292t57 292t155.5 233t237.5 152.5t298 55.5q210 0 379.5 -94.5t265.5 -262.5t96 -376t-96 -376
t-265.5 -262.5t-379.5 -94.5zM807 295q165 0 272 120t107 302t-107 302t-272 120q-166 0 -273.5 -120t-107.5 -302t107.5 -302t273.5 -120z" />
    <glyph glyph-name="obreve" unicode="&#x14f;" horiz-adv-x="1187" 
d="M594 1133q-146 0 -236 90.5t-90 210.5h256q0 -88 70 -88q72 0 72 88h256q0 -121 -90.5 -211t-237.5 -90zM594 -16q-159 0 -285.5 69t-197 190.5t-70.5 272.5t70.5 272.5t197 191t285.5 69.5t285.5 -69.5t197 -191t70.5 -272.5t-70.5 -272.5t-197 -190.5t-285.5 -69z
M594 270q97 0 156 68t59 178t-59 178t-156 68t-156 -68t-59 -178t59 -178t156 -68z" />
    <glyph glyph-name="Ohungarumlaut" unicode="&#x150;" horiz-adv-x="1611" 
d="M733 1548h-246l127 303h322zM1143 1548h-246l127 303h322zM809 -16q-159 0 -298 55.5t-237.5 152.5t-155.5 233t-57 292t57 292t155.5 233t237.5 152.5t298 55.5q210 0 379.5 -94.5t265.5 -262.5t96 -376t-96 -376t-265.5 -262.5t-379.5 -94.5zM807 295q165 0 272 120
t107 302t-107 302t-272 120q-166 0 -273.5 -120t-107.5 -302t107.5 -302t273.5 -120z" />
    <glyph glyph-name="ohungarumlaut" unicode="&#x151;" horiz-adv-x="1187" 
d="M518 1147h-246l127 303h322zM928 1147h-246l127 303h321zM594 -16q-159 0 -285.5 69t-197 190.5t-70.5 272.5t70.5 272.5t197 191t285.5 69.5t285.5 -69.5t197 -191t70.5 -272.5t-70.5 -272.5t-197 -190.5t-285.5 -69zM594 270q97 0 156 68t59 178t-59 178t-156 68
t-156 -68t-59 -178t59 -178t156 -68z" />
    <glyph glyph-name="OE" unicode="&#x152;" horiz-adv-x="2048" 
d="M1321 573v-262h668v-311h-1176q-120 0 -228.5 26t-205 82.5t-166.5 139t-111 203t-41 266.5t41 266.5t111 203t166.5 139t205 82.5t228.5 26h1153v-312h-645v-237h508v-312h-508zM856 311h100v811h-100q-87 0 -159.5 -20t-135 -64.5t-98 -126t-35.5 -194.5q0 -91 24 -162
t64 -116.5t96 -74.5t116 -41t128 -12z" />
    <glyph glyph-name="oe" unicode="&#x153;" horiz-adv-x="1929" 
d="M1368 256q148 0 174 102h326q-32 -170 -170 -272t-330 -102q-236 0 -383 147q-73 -70 -173.5 -108.5t-217.5 -38.5q-159 0 -285.5 69t-197 190.5t-70.5 272.5t70.5 272.5t197 191t285.5 69.5q230 0 385 -142q142 142 369 142q113 0 204 -32.5t148.5 -85t96.5 -121
t55 -136.5t16 -137q0 -51 -4 -101h-711q15 -87 69.5 -133.5t145.5 -46.5zM1348 809q-84 0 -131 -40t-64 -132h381q-5 71 -54 121.5t-132 50.5zM594 270q97 0 156 68t59 178t-59 178t-156 68t-156 -68t-59 -178t59 -178t156 -68z" />
    <glyph glyph-name="Racute" unicode="&#x154;" horiz-adv-x="1386" 
d="M639 1851h352l-203 -303h-276zM1239 412l45 -412h-366l-46 358q-7 60 -49 97t-102 37h-232v-492h-366v1434h631q231 0 363 -129.5t132 -335.5q0 -197 -164 -285q136 -96 154 -272zM729 1135h-240v-332h240q83 0 127.5 47.5t44.5 118.5t-44.5 118.5t-127.5 47.5z" />
    <glyph glyph-name="racute" unicode="&#x155;" horiz-adv-x="815" 
d="M604 1147h-276l127 303h352zM788 1032v-278h-180q-84 0 -131 -61.5t-47 -170.5v-522h-338v1032h338v-155q42 88 100.5 121.5t149.5 33.5h108z" />
    <glyph glyph-name="uni0156" unicode="&#x156;" horiz-adv-x="1386" 
d="M1239 412l45 -412h-366l-46 358q-7 60 -49 97t-102 37h-232v-492h-366v1434h631q231 0 363 -129.5t132 -335.5q0 -197 -164 -285q136 -96 154 -272zM729 1135h-240v-332h240q83 0 127.5 47.5t44.5 118.5t-44.5 118.5t-127.5 47.5zM668 -496h-293l96 357h381z" />
    <glyph glyph-name="uni0157" unicode="&#x157;" horiz-adv-x="815" 
d="M788 1032v-278h-180q-84 0 -131 -61.5t-47 -170.5v-522h-338v1032h338v-155q42 88 100.5 121.5t149.5 33.5h108zM258 -496h-293l96 357h381z" />
    <glyph glyph-name="Rcaron" unicode="&#x158;" horiz-adv-x="1386" 
d="M1016 1835l-217 -287h-303l-217 287h272l94 -102l92 102h279zM1239 412l45 -412h-366l-46 358q-7 60 -49 97t-102 37h-232v-492h-366v1434h631q231 0 363 -129.5t132 -335.5q0 -197 -164 -285q136 -96 154 -272zM729 1135h-240v-332h240q83 0 127.5 47.5t44.5 118.5
t-44.5 118.5t-127.5 47.5z" />
    <glyph glyph-name="rcaron" unicode="&#x159;" horiz-adv-x="815" 
d="M614 1147h-303l-217 287h273l94 -103l92 103h278zM788 1032v-278h-180q-84 0 -131 -61.5t-47 -170.5v-522h-338v1032h338v-155q42 88 100.5 121.5t149.5 33.5h108z" />
    <glyph glyph-name="Sacute" unicode="&#x15a;" horiz-adv-x="1183" 
d="M717 1548h-277l127 303h353zM600 -16q-247 0 -400 139t-161 371h348q6 -91 63.5 -145t149.5 -54q82 0 130 35.5t48 95.5q0 38 -24 65t-64.5 42.5t-93.5 27.5t-111 25.5t-116 32t-111 51t-93.5 78t-64.5 118t-24 166.5q0 183 141 300.5t361 117.5q239 0 385 -126t149 -337
h-344q-6 70 -56 111t-134 41q-67 0 -108.5 -30t-41.5 -77q0 -43 24.5 -72t66 -45.5t95 -28t113 -24t118.5 -29.5t112.5 -47.5t95 -74t66 -115t24.5 -164.5q0 -204 -148 -326t-395 -122z" />
    <glyph glyph-name="sacute" unicode="&#x15b;" horiz-adv-x="927" 
d="M596 1147h-277l127 303h353zM475 -16q-194 0 -315.5 101t-128.5 269h284q7 -55 51 -89t109 -34q54 0 87.5 20t33.5 54q0 27 -18.5 44.5t-49.5 27.5t-71 17t-84.5 15.5t-88.5 20.5t-84 35t-71 55.5t-49.5 85t-18.5 121.5q0 138 107 230t264 92q193 0 313.5 -95t126.5 -252
h-286q-7 52 -47 85.5t-93 33.5q-49 0 -77.5 -20.5t-28.5 -59.5q0 -32 23.5 -51.5t62 -26t87.5 -14t100.5 -14t100.5 -27.5t87.5 -53t62 -92.5t23.5 -143.5q0 -152 -112.5 -243.5t-299.5 -91.5z" />
    <glyph glyph-name="Scircumflex" unicode="&#x15c;" horiz-adv-x="1183" 
d="M207 1548l217 287h303l217 -287h-278l-93 103l-94 -103h-272zM600 -16q-247 0 -400 139t-161 371h348q6 -91 63.5 -145t149.5 -54q82 0 130 35.5t48 95.5q0 38 -24 65t-64.5 42.5t-93.5 27.5t-111 25.5t-116 32t-111 51t-93.5 78t-64.5 118t-24 166.5q0 183 141 300.5
t361 117.5q239 0 385 -126t149 -337h-344q-6 70 -56 111t-134 41q-67 0 -108.5 -30t-41.5 -77q0 -43 24.5 -72t66 -45.5t95 -28t113 -24t118.5 -29.5t112.5 -47.5t95 -74t66 -115t24.5 -164.5q0 -204 -148 -326t-395 -122z" />
    <glyph glyph-name="scircumflex" unicode="&#x15d;" horiz-adv-x="927" 
d="M86 1147l217 287h303l217 -287h-278l-92 102l-95 -102h-272zM475 -16q-194 0 -315.5 101t-128.5 269h284q7 -55 51 -89t109 -34q54 0 87.5 20t33.5 54q0 27 -18.5 44.5t-49.5 27.5t-71 17t-84.5 15.5t-88.5 20.5t-84 35t-71 55.5t-49.5 85t-18.5 121.5q0 138 107 230
t264 92q193 0 313.5 -95t126.5 -252h-286q-7 52 -47 85.5t-93 33.5q-49 0 -77.5 -20.5t-28.5 -59.5q0 -32 23.5 -51.5t62 -26t87.5 -14t100.5 -14t100.5 -27.5t87.5 -53t62 -92.5t23.5 -143.5q0 -152 -112.5 -243.5t-299.5 -91.5z" />
    <glyph glyph-name="Scedilla" unicode="&#x15e;" horiz-adv-x="1183" 
d="M1143 432q0 -190 -128.5 -309.5t-348.5 -136.5l-56 -115q116 16 184 -41t68 -143q0 -92 -87 -153.5t-218 -61.5q-84 0 -176 28v160q95 -31 174 -31q41 0 68.5 14.5t27.5 41.5q0 34 -46.5 50.5t-115.5 2.5l-67 67l78 185q-206 28 -330.5 163t-130.5 341h348
q6 -91 63.5 -145t149.5 -54q82 0 130 35.5t48 95.5q0 38 -24 65t-64.5 42.5t-93.5 27.5t-111 25.5t-116 32t-111 51t-93.5 78t-64.5 118t-24 166.5q0 183 141 300.5t361 117.5q239 0 385 -126t149 -337h-344q-6 70 -56 111t-134 41q-67 0 -108.5 -30t-41.5 -77
q0 -43 24.5 -72t66 -45.5t95 -28t113 -24t118.5 -29.5t112.5 -47.5t95 -74t66 -115t24.5 -164.5z" />
    <glyph glyph-name="scedilla" unicode="&#x15f;" horiz-adv-x="927" 
d="M887 319q0 -132 -86 -219.5t-234 -109.5l-57 -119q116 16 184 -41t68 -143q0 -92 -87 -153.5t-218 -61.5q-84 0 -176 28v160q95 -31 174 -31q41 0 68.5 14.5t27.5 41.5q0 34 -46.5 50.5t-115.5 2.5l-67 67l75 183q-163 20 -261.5 117.5t-104.5 248.5h284q7 -55 51 -89
t109 -34q54 0 87.5 20t33.5 54q0 27 -18.5 44.5t-49.5 27.5t-71 17t-84.5 15.5t-88.5 20.5t-84 35t-71 55.5t-49.5 85t-18.5 121.5q0 138 107 230t264 92q193 0 313.5 -95t126.5 -252h-286q-7 52 -47 85.5t-93 33.5q-49 0 -77.5 -20.5t-28.5 -59.5q0 -32 23.5 -51.5t62 -26
t87.5 -14t100.5 -14t100.5 -27.5t87.5 -53t62 -92.5t23.5 -143.5z" />
    <glyph glyph-name="Scaron" unicode="&#x160;" horiz-adv-x="1183" 
d="M727 1548h-303l-217 287h272l94 -102l93 102h278zM600 -16q-247 0 -400 139t-161 371h348q6 -91 63.5 -145t149.5 -54q82 0 130 35.5t48 95.5q0 38 -24 65t-64.5 42.5t-93.5 27.5t-111 25.5t-116 32t-111 51t-93.5 78t-64.5 118t-24 166.5q0 183 141 300.5t361 117.5
q239 0 385 -126t149 -337h-344q-6 70 -56 111t-134 41q-67 0 -108.5 -30t-41.5 -77q0 -43 24.5 -72t66 -45.5t95 -28t113 -24t118.5 -29.5t112.5 -47.5t95 -74t66 -115t24.5 -164.5q0 -204 -148 -326t-395 -122z" />
    <glyph glyph-name="scaron" unicode="&#x161;" horiz-adv-x="927" 
d="M606 1147h-303l-217 287h272l95 -103l92 103h278zM475 -16q-194 0 -315.5 101t-128.5 269h284q7 -55 51 -89t109 -34q54 0 87.5 20t33.5 54q0 27 -18.5 44.5t-49.5 27.5t-71 17t-84.5 15.5t-88.5 20.5t-84 35t-71 55.5t-49.5 85t-18.5 121.5q0 138 107 230t264 92
q193 0 313.5 -95t126.5 -252h-286q-7 52 -47 85.5t-93 33.5q-49 0 -77.5 -20.5t-28.5 -59.5q0 -32 23.5 -51.5t62 -26t87.5 -14t100.5 -14t100.5 -27.5t87.5 -53t62 -92.5t23.5 -143.5q0 -152 -112.5 -243.5t-299.5 -91.5z" />
    <glyph glyph-name="uni0162" unicode="&#x162;" 
d="M786 1122v-1122h-90l-61 -129q116 16 184 -41t68 -143q0 -92 -87 -153.5t-218 -61.5q-84 0 -176 28v160q95 -31 174 -31q41 0 68.5 14.5t27.5 41.5q0 34 -46.5 50.5t-115.5 2.5l-68 67l82 195h-106v1122h-410v312h1184v-312h-410z" />
    <glyph glyph-name="uni0163" unicode="&#x163;" horiz-adv-x="880" 
d="M702 0l-61 -129q116 16 184 -41t68 -143q0 -92 -87 -153.5t-218 -61.5q-84 0 -176 28v160q95 -31 174 -31q41 0 68.5 14.5t27.5 41.5q0 34 -46.5 50.5t-115.5 2.5l-67 67l86 205q-144 28 -226 128.5t-82 258.5v357h-190v278h190v293h338v-293h260v-278h-260v-340
q0 -135 136 -135h124v-279h-127z" />
    <glyph glyph-name="Tcaron" unicode="&#x164;" 
d="M756 1548h-303l-217 287h272l94 -102l92 102h279zM786 0h-364v1122h-410v312h1184v-312h-410v-1122z" />
    <glyph glyph-name="tcaron" unicode="&#x165;" horiz-adv-x="880" 
d="M963 1147h-252l61 403h313zM231 1032v293h338v-293h260v-278h-260v-340q0 -135 136 -135h124v-279h-176q-194 0 -308 104t-114 293v357h-190v278h190z" />
    <glyph glyph-name="Tbar" unicode="&#x166;" 
d="M1196 1434v-312h-410v-272h238v-266h-238v-584h-364v584h-238v266h238v272h-410v312h1184z" />
    <glyph glyph-name="tbar" unicode="&#x167;" horiz-adv-x="880" 
d="M829 1032v-278h-260v-119h260v-225h-260q3 -131 136 -131h124v-279h-176q-194 0 -308 104t-114 293v13h-190v225h190v119h-190v278h190v293h338v-293h260z" />
    <glyph glyph-name="Utilde" unicode="&#x168;" horiz-adv-x="1357" 
d="M793 1544q-47 0 -86 19t-69.5 38t-57.5 19q-30 0 -49.5 -20.5t-24.5 -53.5h-203q-4 129 73 219t187 90q37 0 69.5 -11.5t51 -26t42.5 -26t48 -11.5q34 0 55.5 20t26.5 53h199q3 -138 -74.5 -223.5t-187.5 -85.5zM680 -16q-131 0 -237 34.5t-184.5 102t-121.5 175.5
t-43 249v889h338v-885q0 -129 67 -189.5t181 -60.5q113 0 180.5 61t67.5 189v885h336v-889q0 -141 -42.5 -249t-120.5 -175.5t-184 -102t-237 -34.5z" />
    <glyph glyph-name="utilde" unicode="&#x169;" 
d="M723 1143q-47 0 -86 19t-69.5 38t-57.5 19q-30 0 -49.5 -20.5t-24.5 -53.5h-203q-4 129 73.5 219t187.5 90q47 0 84.5 -19t67.5 -38t59 -19q34 0 55 20.5t26 53.5h199q3 -138 -74.5 -223.5t-187.5 -85.5zM778 1032h338v-1032h-338v119q-46 -62 -125 -98.5t-178 -36.5
q-171 0 -277 112.5t-106 286.5v649h338v-569q0 -77 49 -128.5t125 -51.5t125 51.5t49 128.5v569z" />
    <glyph glyph-name="Umacron" unicode="&#x16a;" horiz-adv-x="1357" 
d="M973 1585h-590v250h590v-250zM680 -16q-131 0 -237 34.5t-184.5 102t-121.5 175.5t-43 249v889h338v-885q0 -129 67 -189.5t181 -60.5q113 0 180.5 61t67.5 189v885h336v-889q0 -141 -42.5 -249t-120.5 -175.5t-184 -102t-237 -34.5z" />
    <glyph glyph-name="umacron" unicode="&#x16b;" 
d="M903 1184h-590v250h590v-250zM778 1032h338v-1032h-338v119q-46 -62 -125 -98.5t-178 -36.5q-171 0 -277 112.5t-106 286.5v649h338v-569q0 -77 49 -128.5t125 -51.5t125 51.5t49 128.5v569z" />
    <glyph glyph-name="Ubreve" unicode="&#x16c;" horiz-adv-x="1357" 
d="M680 1534q-146 0 -236 90.5t-90 210.5h256q0 -88 70 -88q72 0 72 88h256q0 -121 -90.5 -211t-237.5 -90zM680 -16q-131 0 -237 34.5t-184.5 102t-121.5 175.5t-43 249v889h338v-885q0 -129 67 -189.5t181 -60.5q113 0 180.5 61t67.5 189v885h336v-889q0 -141 -42.5 -249
t-120.5 -175.5t-184 -102t-237 -34.5z" />
    <glyph glyph-name="ubreve" unicode="&#x16d;" 
d="M610 1133q-146 0 -235.5 90t-89.5 211h256q0 -88 69 -88q72 0 72 88h256q0 -121 -90.5 -211t-237.5 -90zM778 1032h338v-1032h-338v119q-46 -62 -125 -98.5t-178 -36.5q-171 0 -277 112.5t-106 286.5v649h338v-569q0 -77 49 -128.5t125 -51.5t125 51.5t49 128.5v569z" />
    <glyph glyph-name="Uring" unicode="&#x16e;" horiz-adv-x="1357" 
d="M678 1520q-129 0 -212 76.5t-83 193.5q0 116 83.5 193t211.5 77q131 0 215 -77t84 -193q0 -118 -84 -194t-215 -76zM678 1686q52 0 83.5 29t31.5 75q0 45 -31.5 73.5t-83.5 28.5q-49 0 -80 -28.5t-31 -73.5q0 -46 31 -75t80 -29zM680 -16q-131 0 -237 34.5t-184.5 102
t-121.5 175.5t-43 249v889h338v-885q0 -129 67 -189.5t181 -60.5q113 0 180.5 61t67.5 189v885h336v-889q0 -141 -42.5 -249t-120.5 -175.5t-184 -102t-237 -34.5z" />
    <glyph glyph-name="uring" unicode="&#x16f;" 
d="M608 1118q-129 0 -212 77t-83 194q0 116 83.5 193t211.5 77q131 0 215 -77t84 -193q0 -118 -84 -194.5t-215 -76.5zM608 1284q52 0 83.5 29.5t31.5 75.5q0 45 -31.5 73.5t-83.5 28.5q-49 0 -79.5 -28.5t-30.5 -73.5q0 -46 30.5 -75.5t79.5 -29.5zM778 1032h338v-1032
h-338v119q-46 -62 -125 -98.5t-178 -36.5q-171 0 -277 112.5t-106 286.5v649h338v-569q0 -77 49 -128.5t125 -51.5t125 51.5t49 128.5v569z" />
    <glyph glyph-name="Uhungarumlaut" unicode="&#x170;" horiz-adv-x="1357" 
d="M604 1548h-246l127 303h322zM1014 1548h-246l127 303h322zM680 -16q-131 0 -237 34.5t-184.5 102t-121.5 175.5t-43 249v889h338v-885q0 -129 67 -189.5t181 -60.5q113 0 180.5 61t67.5 189v885h336v-889q0 -141 -42.5 -249t-120.5 -175.5t-184 -102t-237 -34.5z" />
    <glyph glyph-name="uhungarumlaut" unicode="&#x171;" 
d="M535 1147h-246l127 303h321zM944 1147h-246l127 303h322zM778 1032h338v-1032h-338v119q-46 -62 -125 -98.5t-178 -36.5q-171 0 -277 112.5t-106 286.5v649h338v-569q0 -77 49 -128.5t125 -51.5t125 51.5t49 128.5v569z" />
    <glyph glyph-name="Uogonek" unicode="&#x172;" horiz-adv-x="1357" 
d="M928 549v885h336v-889q0 -254 -132.5 -394t-363.5 -163q-94 -65 -94 -138q0 -51 47 -51q40 0 82 58l121 -140q-95 -151 -258 -151q-103 0 -166.5 55t-63.5 139q0 67 40 131.5t102 98.5q-225 26 -354.5 165.5t-129.5 389.5v889h338v-885q0 -129 67 -189.5t181 -60.5
q113 0 180.5 61t67.5 189z" />
    <glyph glyph-name="uogonek" unicode="&#x173;" 
d="M1133 -143l120 -140q-95 -151 -258 -151q-103 0 -166 55t-63 139q0 74 47 142.5t117 97.5h-152v119q-46 -62 -125 -98.5t-178 -36.5q-171 0 -277 112.5t-106 286.5v649h338v-569q0 -77 49 -128.5t125 -51.5t125 51.5t49 128.5v569h338v-1032q-112 -72 -112 -150
q0 -51 47 -51q40 0 82 58z" />
    <glyph glyph-name="Wcircumflex" unicode="&#x174;" horiz-adv-x="2105" 
d="M684 1548l217 287h303l217 -287h-278l-92 103l-95 -103h-272zM799 0h-355l-417 1434h368l156 -580q23 -87 43.5 -190.5t29.5 -163.5l9 -60q39 217 94 410l172 584h305l172 -584q25 -86 48.5 -188.5t34.5 -161.5l11 -60q33 219 86 412l156 582h367l-416 -1434h-356
l-162 549q-24 86 -46.5 188t-32.5 161l-11 60q-39 -216 -94 -409z" />
    <glyph glyph-name="wcircumflex" unicode="&#x175;" horiz-adv-x="1622" 
d="M444 1147l218 287h303l217 -287h-279l-92 102l-94 -102h-273zM649 0h-289l-344 1032h338l154 -559l151 559h304l153 -559l152 559h338l-344 -1032h-289l-160 567z" />
    <glyph glyph-name="Ycircumflex" unicode="&#x176;" horiz-adv-x="1325" 
d="M293 1548l217 287h303l217 -287h-278l-93 103l-94 -103h-272zM846 0h-367v590l-479 844h385l277 -504l280 504h383l-479 -844v-590z" />
    <glyph glyph-name="ycircumflex" unicode="&#x177;" horiz-adv-x="1064" 
d="M635 1147l-92 102l-94 -102h-273l217 287h303l217 -287h-278zM715 1032h344l-373 -1024l-149 -426h-322l162 438l-371 1012h342l184 -600z" />
    <glyph glyph-name="Ydieresis" unicode="&#x178;" horiz-adv-x="1325" 
d="M297 1573v274h291v-274h-291zM735 1573v274h291v-274h-291zM846 0h-367v590l-479 844h385l277 -504l280 504h383l-479 -844v-590z" />
    <glyph glyph-name="Zacute" unicode="&#x179;" 
d="M735 1548h-276l127 303h352zM1161 0h-1120v307l713 819h-678v308h1083v-308l-710 -819h712v-307z" />
    <glyph glyph-name="zacute" unicode="&#x17a;" horiz-adv-x="1024" 
d="M694 1147h-276l127 303h352zM971 0h-914v279l498 475h-461v278h846v-278l-494 -475h525v-279z" />
    <glyph glyph-name="Zdotaccent" unicode="&#x17b;" 
d="M420 1561v331h352v-331h-352zM1161 0h-1120v307l713 819h-678v308h1083v-308l-710 -819h712v-307z" />
    <glyph glyph-name="zdotaccent" unicode="&#x17c;" horiz-adv-x="1024" 
d="M379 1159v332h352v-332h-352zM971 0h-914v279l498 475h-461v278h846v-278l-494 -475h525v-279z" />
    <glyph glyph-name="Zcaron" unicode="&#x17d;" 
d="M745 1548h-303l-217 287h273l94 -102l92 102h279zM1161 0h-1120v307l713 819h-678v308h1083v-308l-710 -819h712v-307z" />
    <glyph glyph-name="zcaron" unicode="&#x17e;" horiz-adv-x="1024" 
d="M705 1147h-304l-217 287h273l94 -103l92 103h279zM971 0h-914v279l498 475h-461v278h846v-278l-494 -475h525v-279z" />
    <glyph glyph-name="longs" unicode="&#x17f;" horiz-adv-x="821" 
d="M569 0h-338v754h-190v278h190v86q0 167 114 270t300 103h207v-279h-156q-57 0 -92 -31t-35 -83v-1098z" />
    <glyph glyph-name="uni018F" unicode="&#x18f;" horiz-adv-x="1517" 
d="M733 1448q136 0 254 -41t203 -112.5t145.5 -165.5t90.5 -201.5t30 -220.5q0 -143 -44.5 -272.5t-128.5 -232.5t-219 -164t-304 -61q-139 0 -255 39t-195.5 105.5t-135 155t-81 186t-25.5 201.5q0 45 6 120h1048q-22 173 -124.5 274t-264.5 101q-135 0 -220.5 -54
t-111.5 -157h-340q40 227 224 363.5t448 136.5zM760 240q300 0 354 313h-698q9 -136 100 -224.5t244 -88.5z" />
    <glyph glyph-name="florin" unicode="&#x192;" horiz-adv-x="1122" 
d="M1122 1229h-196q-108 0 -131 -123l-15 -74h340v-278h-395l-162 -807q-37 -185 -160.5 -275t-320.5 -90h-178v262h196q108 0 131 123l158 787h-242v278h297l19 94q37 185 160.5 275t320.5 90h178v-262z" />
    <glyph glyph-name="Aringacute" unicode="&#x1fa;" horiz-adv-x="1433" 
d="M715 1520q-129 0 -212 76.5t-83 193.5q0 94 56.5 164.5t150.5 95.5l118 285h353l-203 -303h-39q73 -33 115.5 -97t42.5 -145q0 -118 -84 -194t-215 -76zM715 1892q-49 0 -80 -28.5t-31 -73.5q0 -46 31 -75t80 -29q52 0 83 29t31 75q0 45 -31 73.5t-83 28.5zM1425 0h-376
l-97 281h-469l-96 -281h-379l535 1434h348zM610 645l-20 -61h256l-21 61q-29 84 -55.5 171t-38.5 132l-12 45q-46 -160 -109 -348z" />
    <glyph glyph-name="aringacute" unicode="&#x1fb;" horiz-adv-x="1071" 
d="M535 1118q-129 0 -212 77t-83 194q0 94 56 164.5t150 95.5l119 284h353l-203 -303h-39q73 -33 115.5 -96.5t42.5 -144.5q0 -118 -84 -194.5t-215 -76.5zM535 1491q-49 0 -80 -28.5t-31 -73.5q0 -46 31 -75.5t80 -29.5q52 0 83 29.5t31 75.5q0 45 -31 73.5t-83 28.5z
M530 1049q197 0 328 -106.5t131 -278.5v-664h-336v127q-20 -65 -92 -104t-172 -39q-143 0 -236.5 89t-93.5 220q0 151 100 238t265 87h147q39 0 60.5 24.5t21.5 62.5q0 47 -37.5 75.5t-105.5 28.5q-79 0 -116.5 -40.5t-39.5 -102.5h-295q3 80 34.5 148.5t89 121t147 83
t200.5 30.5zM653 406v8h-172q-44 0 -73 -29.5t-29 -75.5q0 -39 29.5 -64.5t74.5 -25.5q78 0 124 55.5t46 131.5z" />
    <glyph glyph-name="AEacute" unicode="&#x1fc;" horiz-adv-x="2009" 
d="M1464 1851h353l-203 -303h-277zM1384 573v-262h566v-311h-930v285h-467l-158 -285h-387l852 1434h1067v-312h-543v-237h406v-312h-406zM1020 1133l-297 -537h297v537z" />
    <glyph glyph-name="aeacute" unicode="&#x1fd;" horiz-adv-x="1728" 
d="M856 1450h352l-202 -303h-277zM1188 256q148 0 174 102h326q-32 -170 -170 -272t-330 -102q-243 0 -393 157q-115 -157 -336 -157q-199 0 -299.5 86t-100.5 223q0 151 100 238t265 87h154q35 0 55 21.5t20 58.5v7q0 47 -37.5 75.5t-105.5 28.5q-79 0 -116.5 -41
t-39.5 -106h-295q6 167 124.5 277t320.5 110q211 0 338 -105q133 105 325 105q113 0 204 -32.5t149 -85t97 -121t55 -136.5t16 -137q0 -39 -5 -101h-710q15 -87 69.5 -133.5t145.5 -46.5zM1167 809q-84 0 -130.5 -40t-63.5 -132h381q-5 71 -54.5 121.5t-132.5 50.5zM483 219
q78 0 124 55.5t46 131.5v8h-172q-44 0 -73 -29.5t-29 -75.5q0 -39 29.5 -64.5t74.5 -25.5z" />
    <glyph glyph-name="uni0218" unicode="&#x218;" horiz-adv-x="1183" 
d="M600 -16q-247 0 -400 139t-161 371h348q6 -91 63.5 -145t149.5 -54q82 0 130 35.5t48 95.5q0 38 -24 65t-64.5 42.5t-93.5 27.5t-111 25.5t-116 32t-111 51t-93.5 78t-64.5 118t-24 166.5q0 183 141 300.5t361 117.5q239 0 385 -126t149 -337h-344q-6 70 -56 111t-134 41
q-67 0 -108.5 -30t-41.5 -77q0 -43 24.5 -72t66 -45.5t95 -28t113 -24t118.5 -29.5t112.5 -47.5t95 -74t66 -115t24.5 -164.5q0 -204 -148 -326t-395 -122zM569 -496h-293l97 357h381z" />
    <glyph glyph-name="uni0219" unicode="&#x219;" horiz-adv-x="927" 
d="M475 -16q-194 0 -315.5 101t-128.5 269h284q7 -55 51 -89t109 -34q54 0 87.5 20t33.5 54q0 27 -18.5 44.5t-49.5 27.5t-71 17t-84.5 15.5t-88.5 20.5t-84 35t-71 55.5t-49.5 85t-18.5 121.5q0 138 107 230t264 92q193 0 313.5 -95t126.5 -252h-286q-7 52 -47 85.5
t-93 33.5q-49 0 -77.5 -20.5t-28.5 -59.5q0 -32 23.5 -51.5t62 -26t87.5 -14t100.5 -14t100.5 -27.5t87.5 -53t62 -92.5t23.5 -143.5q0 -152 -112.5 -243.5t-299.5 -91.5zM469 -496h-293l96 357h381z" />
    <glyph glyph-name="uni021A" unicode="&#x21a;" 
d="M786 0h-364v1122h-410v312h1184v-312h-410v-1122zM618 -496h-292l96 357h381z" />
    <glyph glyph-name="uni021B" unicode="&#x21b;" horiz-adv-x="880" 
d="M231 1032v293h338v-293h260v-278h-260v-340q0 -135 136 -135h124v-279h-176q-194 0 -308 104t-114 293v357h-190v278h190zM621 -496h-293l96 357h381z" />
    <glyph glyph-name="uni0237" unicode="&#x237;" horiz-adv-x="522" 
d="M92 -27v1059h338v-1100q0 -160 -107 -255t-286 -95h-123v258h61q51 0 84 37.5t33 95.5z" />
    <glyph glyph-name="uni0259" unicode="&#x259;" horiz-adv-x="1120" 
d="M541 1049q107 0 198 -32t152.5 -85t104.5 -123t63 -144t20 -149q0 -76 -18 -149.5t-58 -143t-99 -122.5t-147.5 -85t-195.5 -32q-113 0 -204 32.5t-148.5 85t-96.5 121t-55 136.5t-16 137q0 50 4 100h711q-15 87 -69.5 133.5t-145.5 46.5q-148 0 -174 -102h-326
q32 170 170 272.5t330 102.5zM561 223q84 0 131 40t64 132h-381q5 -71 54 -121.5t132 -50.5z" />
    <glyph glyph-name="circumflex" unicode="&#x2c6;" horiz-adv-x="1146" 
d="M205 1147l217 287h303l217 -287h-278l-93 102l-94 -102h-272z" />
    <glyph glyph-name="caron" unicode="&#x2c7;" horiz-adv-x="1146" 
d="M725 1147h-303l-217 287h272l94 -103l93 103h278z" />
    <glyph glyph-name="breve" unicode="&#x2d8;" horiz-adv-x="1062" 
d="M530 1133q-146 0 -235.5 90t-89.5 211h256q0 -88 69 -88q72 0 72 88h256q0 -121 -90.5 -211t-237.5 -90z" />
    <glyph glyph-name="dotaccent" unicode="&#x2d9;" horiz-adv-x="761" 
d="M205 1159v332h352v-332h-352z" />
    <glyph glyph-name="ring" unicode="&#x2da;" horiz-adv-x="1003" 
d="M500 1118q-129 0 -212 77t-83 194q0 116 83.5 193t211.5 77q131 0 215 -77t84 -193q0 -118 -84 -194.5t-215 -76.5zM500 1284q52 0 83 29.5t31 75.5q0 45 -31 73.5t-83 28.5q-49 0 -80 -28.5t-31 -73.5q0 -46 31 -75.5t80 -29.5z" />
    <glyph glyph-name="ogonek" unicode="&#x2db;" horiz-adv-x="897" 
d="M571 -143l121 -140q-95 -151 -258 -151q-103 0 -166 55t-63 139q0 74 47 142.5t117 97.5h186q-113 -73 -113 -150q0 -51 47 -51q40 0 82 58z" />
    <glyph glyph-name="tilde" unicode="&#x2dc;" horiz-adv-x="1161" 
d="M694 1143q-47 0 -86 19t-69.5 38t-57.5 19q-30 0 -49 -20.5t-24 -53.5h-203q-4 129 73 219t187 90q47 0 84.5 -19t67.5 -38t59 -19q34 0 55.5 20.5t26.5 53.5h198q3 -138 -74.5 -223.5t-187.5 -85.5z" />
    <glyph glyph-name="hungarumlaut" unicode="&#x2dd;" horiz-adv-x="1267" 
d="M451 1147h-246l127 303h321zM860 1147h-246l127 303h322z" />
    <glyph glyph-name="uni0374" unicode="&#x374;" horiz-adv-x="614" 
d="M356 897h-209l37 516h320z" />
    <glyph glyph-name="uni0375" unicode="&#x375;" horiz-adv-x="614" 
d="M258 516h209l-37 -516h-319z" />
    <glyph glyph-name="uni037E" unicode="&#x37e;" horiz-adv-x="626" 
d="M174 711v340h361v-340h-361zM51 -283l139 572h345l-238 -572h-246z" />
    <glyph glyph-name="tonos" unicode="&#x384;" horiz-adv-x="546" 
d="M311 1147h-209l23 323h319z" />
    <glyph glyph-name="dieresistonos" unicode="&#x385;" horiz-adv-x="1310" 
d="M713 1171h-168l22 324h258zM205 1171v222h235v-222h-235zM870 1171v222h236v-222h-236z" />
    <glyph glyph-name="Alphatonos" unicode="&#x386;" horiz-adv-x="1433" 
d="M41 1470h319l-133 -323h-209zM1425 0h-376l-97 281h-469l-96 -281h-379l535 1434h348zM610 645l-20 -61h256l-21 61q-29 84 -55.5 171t-38.5 132l-12 45q-46 -160 -109 -348z" />
    <glyph glyph-name="anoteleia" unicode="&#x387;" horiz-adv-x="544" 
d="M453 709h-361v340h361v-340z" />
    <glyph glyph-name="Epsilontonos" unicode="&#x388;" horiz-adv-x="1529" 
d="M219 1147h-209l23 323h319zM1470 0h-1032v1434h1010v-312h-645v-237h508v-312h-508v-262h667v-311z" />
    <glyph glyph-name="Etatonos" unicode="&#x389;" horiz-adv-x="1808" 
d="M219 1147h-209l23 323h319zM1321 885v549h365v-1434h-365v573h-518v-573h-365v1434h365v-549h518z" />
    <glyph glyph-name="Iotatonos" unicode="&#x38a;" horiz-adv-x="927" 
d="M219 1147h-209l23 323h319zM805 0h-367v1434h367v-1434z" />
    <glyph glyph-name="Omicrontonos" unicode="&#x38c;" horiz-adv-x="1828" 
d="M219 1147h-209l23 323h319zM1026 -16q-159 0 -298 55.5t-237.5 152.5t-155 233t-56.5 292t56.5 292t155 233t237.5 152.5t298 55.5q210 0 379.5 -94.5t265.5 -262.5t96 -376t-96 -376t-265.5 -262.5t-379.5 -94.5zM1024 295q165 0 272 120t107 302t-107 302t-272 120
q-166 0 -273.5 -120t-107.5 -302t107.5 -302t273.5 -120z" />
    <glyph glyph-name="Upsilontonos" unicode="&#x38e;" horiz-adv-x="1740" 
d="M219 1147h-209l23 323h319zM1262 0h-367v590l-479 844h385l276 -504l281 504h383l-479 -844v-590z" />
    <glyph glyph-name="Omegatonos" unicode="&#x38f;" horiz-adv-x="1742" 
d="M10 1147l23 323h319l-133 -323h-209zM1681 788q0 -155 -64.5 -275.5t-180.5 -201.5h239v-311h-545v418q80 62 131.5 159.5t51.5 190.5q0 172 -86.5 272.5t-235.5 100.5t-236 -100.5t-87 -272.5q0 -95 51 -191.5t133 -158.5v-418h-547v311h244q-118 81 -184 201.5
t-66 275.5q0 141 52.5 264t144.5 210.5t221 137.5t276 50t275 -50t218.5 -137.5t142.5 -210.5t52 -264z" />
    <glyph glyph-name="iotadieresistonos" unicode="&#x390;" horiz-adv-x="602" 
d="M315 1171h-168l23 324h258zM-193 1171v222h236v-222h-236zM473 1171v222h236v-222h-236zM575 0h-165q-318 0 -318 315v717h338v-674q0 -35 20 -56t54 -21h71v-281z" />
    <glyph glyph-name="Alpha" unicode="&#x391;" horiz-adv-x="1433" 
d="M1425 0h-376l-97 281h-469l-96 -281h-379l535 1434h348zM610 645l-20 -61h256l-21 61q-29 84 -55.5 171t-38.5 132l-12 45q-46 -160 -109 -348z" />
    <glyph glyph-name="Beta" unicode="&#x392;" horiz-adv-x="1314" 
d="M727 0h-604v1434h594q130 0 233.5 -41t166.5 -126t63 -202q0 -95 -47 -170.5t-113 -112.5q103 -44 169 -133t66 -217q0 -204 -146.5 -318t-381.5 -114zM481 1151v-246h205q162 0 162 123t-170 123h-197zM481 602v-291h219q113 0 164 36t51 108q0 73 -51.5 110t-163.5 37
h-219z" />
    <glyph glyph-name="Gamma" unicode="&#x393;" horiz-adv-x="1134" 
d="M125 0v1434h989v-312h-622v-1122h-367z" />
    <glyph glyph-name="uni0394" unicode="&#x394;" horiz-adv-x="1409" 
d="M1319 0h-1229v248l440 1186h349l440 -1186v-248zM600 664l-125 -373h461l-127 373q-28 84 -53.5 171.5t-37.5 132.5l-11 46q-44 -160 -107 -350z" />
    <glyph glyph-name="Epsilon" unicode="&#x395;" horiz-adv-x="1214" 
d="M1155 0h-1032v1434h1010v-312h-646v-237h508v-312h-508v-262h668v-311z" />
    <glyph glyph-name="Zeta" unicode="&#x396;" 
d="M1161 0h-1120v307l713 819h-678v308h1083v-308l-710 -819h712v-307z" />
    <glyph glyph-name="Eta" unicode="&#x397;" horiz-adv-x="1492" 
d="M1006 885v549h364v-1434h-364v573h-519v-573h-364v1434h364v-549h519z" />
    <glyph glyph-name="Theta" unicode="&#x398;" horiz-adv-x="1611" 
d="M809 -16q-159 0 -298 55.5t-237.5 152.5t-155.5 233t-57 292t57 292t155.5 233t237.5 152.5t298 55.5q210 0 379.5 -94.5t265.5 -262.5t96 -376t-96 -376t-265.5 -262.5t-379.5 -94.5zM807 295q165 0 272 120t107 302t-107 302t-272 120q-166 0 -273.5 -120t-107.5 -302
t107.5 -302t273.5 -120zM1028 596h-444v252h444v-252z" />
    <glyph glyph-name="Iota" unicode="&#x399;" horiz-adv-x="612" 
d="M489 0h-366v1434h366v-1434z" />
    <glyph glyph-name="Kappa" unicode="&#x39a;" horiz-adv-x="1480" 
d="M1475 0h-463l-334 592l-191 -213v-379h-364v1434h364v-562l490 562h453l-502 -564z" />
    <glyph glyph-name="Lambda" unicode="&#x39b;" horiz-adv-x="1392" 
d="M1008 0l-209 643q-28 84 -53.5 171.5t-36.5 133.5l-11 45q-41 -160 -104 -350l-207 -643h-379l514 1434h348l514 -1434h-376z" />
    <glyph glyph-name="Mu" unicode="&#x39c;" horiz-adv-x="1828" 
d="M459 0h-336v1434h397l264 -615q36 -82 68 -181t46 -158l15 -58q54 213 134 397l264 615h395v-1434h-336v428q0 89 5 194.5t11 166.5l5 61q-72 -211 -152 -395l-195 -455h-258l-196 455q-36 82 -73.5 180.5t-56.5 156.5l-20 58q19 -221 19 -422v-428z" />
    <glyph glyph-name="Nu" unicode="&#x39d;" horiz-adv-x="1499" 
d="M487 0h-364v1434h383l338 -572q45 -77 89 -157t65 -121l22 -41q-8 163 -8 364v527h364v-1434h-383l-338 571q-45 77 -89 157t-66 122l-21 41q8 -164 8 -365v-526z" />
    <glyph glyph-name="Xi" unicode="&#x39e;" horiz-adv-x="1210" 
d="M1128 1122h-1046v312h1046v-312zM981 586h-750v286h750v-286zM1143 0h-1075v311h1075v-311z" />
    <glyph glyph-name="Omicron" unicode="&#x39f;" horiz-adv-x="1611" 
d="M809 -16q-159 0 -298 55.5t-237.5 152.5t-155.5 233t-57 292t57 292t155.5 233t237.5 152.5t298 55.5q210 0 379.5 -94.5t265.5 -262.5t96 -376t-96 -376t-265.5 -262.5t-379.5 -94.5zM807 295q165 0 272 120t107 302t-107 302t-272 120q-166 0 -273.5 -120t-107.5 -302
t107.5 -302t273.5 -120z" />
    <glyph glyph-name="Pi" unicode="&#x3a0;" horiz-adv-x="1458" 
d="M1335 1434v-1434h-364v1122h-484v-1122h-364v1434h1212z" />
    <glyph glyph-name="Rho" unicode="&#x3a1;" horiz-adv-x="1257" 
d="M489 0h-366v1434h610q231 0 363.5 -129.5t132.5 -335.5t-132.5 -335.5t-363.5 -129.5h-244v-504zM489 1135v-332h220q83 0 127.5 47.5t44.5 118.5t-44.5 118.5t-127.5 47.5h-220z" />
    <glyph glyph-name="Sigma" unicode="&#x3a3;" horiz-adv-x="1185" 
d="M1104 0h-1032v276l485 441l-485 440v277h1009v-312h-520l324 -291v-227l-324 -293h543v-311z" />
    <glyph glyph-name="Tau" unicode="&#x3a4;" 
d="M786 0h-364v1122h-410v312h1184v-312h-410v-1122z" />
    <glyph glyph-name="Upsilon" unicode="&#x3a5;" horiz-adv-x="1325" 
d="M846 0h-367v590l-479 844h385l277 -504l280 504h383l-479 -844v-590z" />
    <glyph glyph-name="Phi" unicode="&#x3a6;" horiz-adv-x="1611" 
d="M1548 717q0 -249 -153.5 -407t-419.5 -197v-154h-338v154q-267 40 -420.5 198t-153.5 406t153.5 406t420.5 198v154h338v-154q266 -39 419.5 -197t153.5 -407zM975 1024v-614q105 33 163 110.5t58 196.5t-58 196.5t-163 110.5zM416 717q0 -119 58 -196.5t163 -110.5v614
q-105 -33 -163 -110.5t-58 -196.5z" />
    <glyph glyph-name="Chi" unicode="&#x3a7;" horiz-adv-x="1298" 
d="M889 1434h379l-428 -723l426 -711h-385l-232 391l-231 -391h-387l426 713l-426 721h377l241 -402z" />
    <glyph glyph-name="Psi" unicode="&#x3a8;" horiz-adv-x="1681" 
d="M1233 883v551h354v-551q0 -262 -143 -401.5t-402 -139.5h-28v-342h-346v342h-27q-260 0 -403.5 139.5t-143.5 401.5v551h355v-551q0 -121 49.5 -180.5t142.5 -59.5h27v791h346v-791h28q91 0 141 60t50 180z" />
    <glyph glyph-name="uni03A9" unicode="&#x3a9;" horiz-adv-x="1505" 
d="M1444 788q0 -155 -64.5 -275.5t-181.5 -201.5h240v-311h-545v418q80 62 131 159.5t51 190.5q0 172 -86 272.5t-235 100.5t-236.5 -100.5t-87.5 -272.5q0 -95 51 -191.5t133 -158.5v-418h-546v311h243q-118 81 -184 201.5t-66 275.5q0 188 90 339.5t249 237t356 85.5
q147 0 275 -50t218.5 -137.5t142.5 -210.5t52 -264z" />
    <glyph glyph-name="Iotadieresis" unicode="&#x3aa;" horiz-adv-x="612" 
d="M-59 1573v274h290v-274h-290zM379 1573v274h291v-274h-291zM489 0h-366v1434h366v-1434z" />
    <glyph glyph-name="Upsilondieresis" unicode="&#x3ab;" horiz-adv-x="1325" 
d="M297 1573v274h291v-274h-291zM735 1573v274h291v-274h-291zM846 0h-367v590l-479 844h385l277 -504l280 504h383l-479 -844v-590z" />
    <glyph glyph-name="alphatonos" unicode="&#x3ac;" horiz-adv-x="1280" 
d="M485 1470h320l-133 -323h-209zM1192 279h61v-279h-155q-102 0 -177 36.5t-104 102.5q-40 -79 -122 -117t-193 -38q-97 0 -181 37t-146 104.5t-98 168.5t-36 222q0 245 128 389t337 144q180 0 274 -105v88h338v-676q0 -77 74 -77zM584 270q97 0 156 68t59 178t-59 178
t-156 68q-95 0 -154 -68t-59 -178t59 -178t154 -68z" />
    <glyph glyph-name="epsilontonos" unicode="&#x3ad;" horiz-adv-x="1040" 
d="M438 1470h320l-133 -323h-209zM682 336h328q-15 -157 -148 -254.5t-350 -97.5q-206 0 -337.5 87t-131.5 238q0 78 39.5 142t112.5 102q-115 65 -115 188q0 135 125.5 221.5t320.5 86.5q200 0 324.5 -99t140.5 -250h-325q-28 88 -138 88q-60 0 -94.5 -22t-34.5 -59
q0 -71 136 -74h116v-223h-131q-64 0 -98.5 -22.5t-34.5 -61.5q0 -37 39 -59.5t98 -22.5q132 0 158 92z" />
    <glyph glyph-name="etatonos" unicode="&#x3ae;" horiz-adv-x="1271" 
d="M616 1470h320l-133 -323h-209zM782 1049q182 0 293 -120t111 -321v-1026h-338v987q0 77 -49 129t-125 52t-125 -52t-49 -129v-569h-338v674q0 78 -74 78h-61v280h149q224 0 268 -186q43 93 133.5 148t204.5 55z" />
    <glyph glyph-name="iotatonos" unicode="&#x3af;" horiz-adv-x="602" 
d="M356 1147h-209l23 323h319zM575 0h-165q-318 0 -318 315v717h338v-674q0 -35 20 -56t54 -21h71v-281z" />
    <glyph glyph-name="upsilondieresistonos" unicode="&#x3b0;" horiz-adv-x="1167" 
d="M641 1171h-168l23 324h258zM133 1171v222h236v-222h-236zM799 1171v222h235v-222h-235zM584 -16q-241 0 -376.5 126.5t-135.5 352.5v569h338v-549q0 -103 46.5 -151.5t127.5 -48.5t127.5 48.5t46.5 151.5v549h338v-569q0 -226 -135.5 -352.5t-376.5 -126.5z" />
    <glyph glyph-name="alpha" unicode="&#x3b1;" horiz-adv-x="1280" 
d="M1192 279h61v-279h-155q-102 0 -177 36.5t-104 102.5q-40 -79 -122 -117t-193 -38q-97 0 -181 37t-146 104.5t-98 168.5t-36 222q0 245 128 389t337 144q180 0 274 -105v88h338v-676q0 -77 74 -77zM584 270q97 0 156 68t59 178t-59 178t-156 68q-95 0 -154 -68t-59 -178
t59 -178t154 -68z" />
    <glyph glyph-name="beta" unicode="&#x3b2;" horiz-adv-x="1286" 
d="M950 823q133 -34 210 -137t77 -248q0 -206 -132.5 -330t-356.5 -124q-183 0 -310 106v-508h-327v1391q0 243 144.5 388.5t391.5 145.5q209 0 345 -111t136 -288q0 -192 -178 -285zM690 270q98 0 157.5 49.5t59.5 129.5q0 78 -57 125t-158 47h-143v272h80q82 0 133 47
t51 125q0 74 -48 119t-126 45q-90 0 -145.5 -62.5t-55.5 -169.5v-479q0 -113 65 -180.5t187 -67.5z" />
    <glyph glyph-name="gamma" unicode="&#x3b3;" horiz-adv-x="1085" 
d="M543 387l192 645h344l-366 -1022v-428h-338v428l-369 1022h342z" />
    <glyph glyph-name="delta" unicode="&#x3b4;" horiz-adv-x="1146" 
d="M655 1034q89 -40 153.5 -76.5t123.5 -84.5t95.5 -102t57.5 -124.5t21 -154.5q0 -121 -41 -218t-113 -160t-168.5 -96.5t-210.5 -33.5q-234 0 -383 129.5t-149 337.5q0 151 84.5 259t239.5 144q-244 107 -244 326q0 152 111 238.5t309 86.5h460v-276h-485q-70 0 -70 -53
q0 -34 37 -58t172 -84zM573 270q86 0 140.5 51t54.5 146t-54.5 146t-140.5 51q-85 0 -139.5 -51t-54.5 -146t54.5 -146t139.5 -51z" />
    <glyph glyph-name="epsilon" unicode="&#x3b5;" horiz-adv-x="1040" 
d="M682 336h328q-15 -157 -148 -254.5t-350 -97.5q-206 0 -337.5 87t-131.5 238q0 78 39.5 142t112.5 102q-115 65 -115 188q0 135 125.5 221.5t320.5 86.5q200 0 324.5 -99t140.5 -250h-325q-28 88 -138 88q-60 0 -94.5 -22t-34.5 -59q0 -71 136 -74h116v-223h-131
q-64 0 -98.5 -22.5t-34.5 -61.5q0 -37 39 -59.5t98 -22.5q132 0 158 92z" />
    <glyph glyph-name="zeta" unicode="&#x3b6;" horiz-adv-x="1026" 
d="M547 295h121q160 0 257 -98t97 -263v-221h-320v135q0 76 -29 114t-93 38h-123q-189 0 -303.5 109t-114.5 288q0 119 52.5 218t191.5 245l340 352h-535v279h901v-289l-475 -532q-84 -94 -110.5 -137t-26.5 -99q0 -65 43.5 -102t126.5 -37z" />
    <glyph glyph-name="eta" unicode="&#x3b7;" horiz-adv-x="1271" 
d="M782 1049q182 0 293 -120t111 -321v-1026h-338v987q0 77 -49 129t-125 52t-125 -52t-49 -129v-569h-338v674q0 78 -74 78h-61v280h149q224 0 268 -186q43 93 133.5 148t204.5 55z" />
    <glyph glyph-name="theta" unicode="&#x3b8;" horiz-adv-x="1196" 
d="M598 1507q123 0 222.5 -45.5t174 -136.5t115.5 -238.5t41 -341.5t-41 -341t-115.5 -238t-174 -136.5t-222.5 -45.5t-222.5 45.5t-174 136.5t-115.5 238t-41 341t41 341.5t115.5 238.5t174 136.5t222.5 45.5zM598 1221q-91 0 -144.5 -79t-66.5 -270h422q-13 191 -66.5 270
t-144.5 79zM598 270q91 0 144.5 79.5t66.5 271.5h-422q13 -192 66.5 -271.5t144.5 -79.5z" />
    <glyph glyph-name="iota" unicode="&#x3b9;" horiz-adv-x="602" 
d="M575 0h-165q-318 0 -318 315v717h338v-674q0 -35 20 -56t54 -21h71v-281z" />
    <glyph glyph-name="kappa" unicode="&#x3ba;" horiz-adv-x="1189" 
d="M1186 0h-402l-243 395l-111 -108v-287h-338v1032h338v-321l205 200q68 68 134 94.5t171 26.5h168v-278h-94q-65 0 -103.5 -15.5t-76.5 -54.5l-70 -68z" />
    <glyph glyph-name="lambda" unicode="&#x3bb;" horiz-adv-x="1105" 
d="M621 1264l133 -365l346 -899h-344l-203 600l-205 -600h-342l391 1018l-37 106q-34 88 -104 88h-150v279h230q103 0 172.5 -55t112.5 -172z" />
    <glyph glyph-name="uni03BC" unicode="&#x3bc;" 
d="M778 463v569h338v-1032h-338v119q-31 -61 -91.5 -98t-129.5 -37q-66 0 -127 34v-436h-338v1450h338v-569q0 -77 49 -128.5t125 -51.5t125 51.5t49 128.5z" />
    <glyph glyph-name="nu" unicode="&#x3bd;" horiz-adv-x="1064" 
d="M682 0h-299l-377 1032h342l184 -600l183 600h344z" />
    <glyph glyph-name="xi" unicode="&#x3be;" horiz-adv-x="1021" 
d="M600 293h88q157 0 245.5 -97.5t88.5 -261.5v-221h-320v156q0 63 -32.5 97t-110.5 34h-86q-182 0 -297 111t-115 282q0 134 70.5 226.5t177.5 138.5q-159 76 -159 229q0 66 29.5 127t88.5 96h-229v279h938v-279h-295q-100 0 -152.5 -40.5t-52.5 -116.5q0 -77 52.5 -117.5
t152.5 -40.5h137v-279h-219q-91 0 -146 -44.5t-55 -116.5t55.5 -117t145.5 -45z" />
    <glyph glyph-name="omicron" unicode="&#x3bf;" horiz-adv-x="1187" 
d="M594 -16q-159 0 -285.5 69t-197 190.5t-70.5 272.5t70.5 272.5t197 191t285.5 69.5t285.5 -69.5t197 -191t70.5 -272.5t-70.5 -272.5t-197 -190.5t-285.5 -69zM594 270q97 0 156 68t59 178t-59 178t-156 68t-156 -68t-59 -178t59 -178t156 -68z" />
    <glyph glyph-name="pi" unicode="&#x3c0;" horiz-adv-x="1316" 
d="M530 0h-333v754h-185v278h1258v-278h-185v-396q0 -32 23.5 -54.5t71.5 -22.5h51v-281h-166q-313 0 -313 295v459h-222v-754z" />
    <glyph glyph-name="rho" unicode="&#x3c1;" horiz-adv-x="1191" 
d="M610 1049q232 0 386.5 -152.5t154.5 -382.5q0 -113 -41 -212.5t-110 -168.5t-160.5 -109t-190.5 -40q-161 0 -254 96v-498h-334v893q0 272 150.5 423t398.5 151zM606 270q97 0 156 68t59 178t-59 178t-156 68q-95 0 -154 -68t-59 -178t59 -178t154 -68z" />
    <glyph glyph-name="uni03C2" unicode="&#x3c2;" horiz-adv-x="1134" 
d="M1040 -287h-319v135q0 152 -123 152h-33q-239 0 -381.5 139.5t-142.5 376.5q0 233 152.5 383t390.5 150q217 0 363 -118.5t157 -301.5h-340q-12 59 -60.5 96t-115.5 37q-99 0 -154 -66t-55 -180q0 -112 70.5 -171.5t171.5 -59.5h65q162 0 258 -93.5t96 -257.5v-221z" />
    <glyph glyph-name="sigma" unicode="&#x3c3;" horiz-adv-x="1300" 
d="M727 1032h551v-278h-88q-37 0 -123 28q80 -129 80 -266q0 -151 -70.5 -272.5t-197 -190.5t-285.5 -69t-285.5 69t-197 190.5t-70.5 272.5t70.5 272.5t197 191t285.5 69.5q63 0 133 -17zM594 270q97 0 156 68t59 178t-59 178t-156 68t-156 -68t-59 -178t59 -178t156 -68z
" />
    <glyph glyph-name="tau" unicode="&#x3c4;" horiz-adv-x="1007" 
d="M965 1032v-278h-318v-396q0 -32 23 -54.5t71 -22.5h52v-281h-166q-314 0 -314 295v459h-309v278h961z" />
    <glyph glyph-name="upsilon" unicode="&#x3c5;" horiz-adv-x="1167" 
d="M584 -16q-241 0 -376.5 126.5t-135.5 352.5v569h338v-549q0 -103 46.5 -151.5t127.5 -48.5t127.5 48.5t46.5 151.5v549h338v-569q0 -226 -135.5 -352.5t-376.5 -126.5z" />
    <glyph glyph-name="phi" unicode="&#x3c6;" horiz-adv-x="1515" 
d="M1475 516q0 -232 -151.5 -368.5t-399.5 -159.5v-406h-332v406q-248 23 -399.5 159.5t-151.5 368.5t151.5 368.5t399.5 159.5v406h332v-406q248 -23 399.5 -159.5t151.5 -368.5zM369 516q0 -105 58 -172t165 -84v512q-107 -17 -165 -84t-58 -172zM924 772v-512
q107 17 165 84t58 172t-58 172t-165 84z" />
    <glyph glyph-name="chi" unicode="&#x3c7;" horiz-adv-x="1011" 
d="M680 319l168 -387q21 -45 49 -65.5t72 -20.5h53v-280h-168q-113 0 -178.5 45.5t-102.5 165.5l-63 209l-205 -404h-336l377 748l-170 350q-23 46 -50.5 68t-70.5 22h-53v279h188q95 0 152 -43.5t94 -151.5l72 -201l190 379h344z" />
    <glyph glyph-name="psi" unicode="&#x3c8;" horiz-adv-x="1544" 
d="M1139 504v528h334v-528q0 -255 -137.5 -387.5t-395.5 -132.5h-6v-402h-324v402h-6q-258 0 -395 132.5t-137 387.5v528h334v-528q0 -107 51.5 -164t146.5 -57h6v1075h324v-1075h6q96 0 147.5 57t51.5 164z" />
    <glyph glyph-name="omega" unicode="&#x3c9;" horiz-adv-x="1560" 
d="M1006 1032h337q82 -119 121 -237.5t39 -266.5q0 -115 -23.5 -208.5t-63 -155t-94 -103t-114 -59.5t-125.5 -18q-96 0 -176 39.5t-129 113.5q-46 -72 -124.5 -112.5t-176.5 -40.5q-83 0 -156 30.5t-133.5 92.5t-95.5 169.5t-35 249.5q0 149 39.5 268t120.5 238h338
q-91 -128 -128.5 -239.5t-37.5 -253.5q0 -143 38 -206t99 -63q46 0 75.5 35.5t29.5 102.5v235h299v-235q0 -68 29.5 -103t76.5 -35q59 0 97 62.5t38 206.5q0 143 -37 254.5t-128 238.5z" />
    <glyph glyph-name="iotadieresis" unicode="&#x3ca;" horiz-adv-x="602" 
d="M-102 1171v275h290v-275h-290zM336 1171v275h291v-275h-291zM575 0h-165q-318 0 -318 315v717h338v-674q0 -35 20 -56t54 -21h71v-281z" />
    <glyph glyph-name="upsilondieresis" unicode="&#x3cb;" horiz-adv-x="1167" 
d="M223 1171v275h291v-275h-291zM662 1171v275h290v-275h-290zM584 -16q-241 0 -376.5 126.5t-135.5 352.5v569h338v-549q0 -103 46.5 -151.5t127.5 -48.5t127.5 48.5t46.5 151.5v549h338v-569q0 -226 -135.5 -352.5t-376.5 -126.5z" />
    <glyph glyph-name="omicrontonos" unicode="&#x3cc;" horiz-adv-x="1187" 
d="M688 1147h-209l23 323h319zM594 -16q-159 0 -285.5 69t-197 190.5t-70.5 272.5t70.5 272.5t197 191t285.5 69.5t285.5 -69.5t197 -191t70.5 -272.5t-70.5 -272.5t-197 -190.5t-285.5 -69zM594 270q97 0 156 68t59 178t-59 178t-156 68t-156 -68t-59 -178t59 -178t156 -68
z" />
    <glyph glyph-name="upsilontonos" unicode="&#x3cd;" horiz-adv-x="1167" 
d="M682 1147h-209l23 323h319zM584 -16q-241 0 -376.5 126.5t-135.5 352.5v569h338v-549q0 -103 46.5 -151.5t127.5 -48.5t127.5 48.5t46.5 151.5v549h338v-569q0 -226 -135.5 -352.5t-376.5 -126.5z" />
    <glyph glyph-name="omegatonos" unicode="&#x3ce;" horiz-adv-x="1560" 
d="M688 1470h320l-134 -323h-208zM1006 1032h337q82 -119 121 -237.5t39 -266.5q0 -115 -23.5 -208.5t-63 -155t-94 -103t-114 -59.5t-125.5 -18q-96 0 -176 39.5t-129 113.5q-46 -72 -124.5 -112.5t-176.5 -40.5q-83 0 -156 30.5t-133.5 92.5t-95.5 169.5t-35 249.5
q0 149 39.5 268t120.5 238h338q-91 -128 -128.5 -239.5t-37.5 -253.5q0 -143 38 -206t99 -63q46 0 75.5 35.5t29.5 102.5v235h299v-235q0 -68 29.5 -103t76.5 -35q59 0 97 62.5t38 206.5q0 143 -37 254.5t-128 238.5z" />
    <glyph glyph-name="uni03CF" unicode="&#x3cf;" horiz-adv-x="1484" 
d="M1430 1434l-512 -572l524 -649v-248q-111 -131 -231.5 -222.5t-245 -142.5t-245.5 -73.5t-257 -22.5q-195 0 -340 37v316q50 -16 149.5 -26.5t180.5 -10.5q392 0 624 221l-403 547l-187 -209v-379h-364v1434h364v-562l490 562h453z" />
    <glyph glyph-name="uni03D7" unicode="&#x3d7;" horiz-adv-x="1171" 
d="M834 684l-76 -76l377 -409v-179q-235 -493 -773 -493q-145 0 -270 33v297q113 -35 266 -35q160 0 264.5 56.5t190.5 180.5l-272 336l-111 -108v-287h-338v1032h338v-321l205 200q68 68 134 94.5t171 26.5h168v-278h-94q-65 0 -103.5 -15.5t-76.5 -54.5z" />
    <glyph glyph-name="uni0400" unicode="&#x400;" horiz-adv-x="1214" 
d="M709 1851l127 -303h-277l-203 303h353zM1155 0h-1032v1434h1010v-312h-646v-237h508v-312h-508v-262h668v-311z" />
    <glyph glyph-name="uni0401" unicode="&#x401;" horiz-adv-x="1214" 
d="M272 1573v274h291v-274h-291zM711 1573v274h290v-274h-290zM1155 0h-1032v1434h1010v-312h-646v-237h508v-312h-508v-262h668v-311z" />
    <glyph glyph-name="uni0402" unicode="&#x402;" horiz-adv-x="1474" 
d="M934 940q214 0 348.5 -144t134.5 -393v-210q0 -216 -108 -331.5t-291 -115.5h-144v272h66q69 0 104 38t35 128v211q0 108 -61.5 169t-165.5 61q-111 0 -199 -35v-590h-364v1143h-269v291h1143v-291h-510v-254q141 51 281 51z" />
    <glyph glyph-name="uni0403" unicode="&#x403;" horiz-adv-x="1134" 
d="M709 1548h-277l127 303h352zM125 0v1434h989v-312h-622v-1122h-367z" />
    <glyph glyph-name="uni0404" unicode="&#x404;" horiz-adv-x="1525" 
d="M793 295q126 0 212.5 61t106.5 164h363q-20 -244 -205.5 -390t-474.5 -146q-153 0 -285 48t-232.5 138t-158.5 231t-58 316t59 316t160.5 231t233 138t281.5 48q284 0 471.5 -146t216.5 -391h-383q-13 102 -97.5 164t-209.5 62t-219 -71t-128 -204h531v-291h-533
q34 -134 128 -206t221 -72z" />
    <glyph glyph-name="uni0405" unicode="&#x405;" horiz-adv-x="1183" 
d="M600 -16q-247 0 -400 139t-161 371h348q6 -91 63.5 -145t149.5 -54q82 0 130 35.5t48 95.5q0 38 -24 65t-64.5 42.5t-93.5 27.5t-111 25.5t-116 32t-111 51t-93.5 78t-64.5 118t-24 166.5q0 183 141 300.5t361 117.5q239 0 385 -126t149 -337h-344q-6 70 -56 111t-134 41
q-67 0 -108.5 -30t-41.5 -77q0 -43 24.5 -72t66 -45.5t95 -28t113 -24t118.5 -29.5t112.5 -47.5t95 -74t66 -115t24.5 -164.5q0 -204 -148 -326t-395 -122z" />
    <glyph glyph-name="uni0406" unicode="&#x406;" horiz-adv-x="612" 
d="M489 0h-366v1434h366v-1434z" />
    <glyph glyph-name="uni0407" unicode="&#x407;" horiz-adv-x="612" 
d="M-59 1573v274h290v-274h-290zM379 1573v274h291v-274h-291zM489 0h-366v1434h366v-1434z" />
    <glyph glyph-name="uni0408" unicode="&#x408;" horiz-adv-x="782" 
d="M51 0v311h137q81 0 109.5 37t28.5 127v959h364v-977q0 -229 -110 -343t-310 -114h-219z" />
    <glyph glyph-name="uni0409" unicode="&#x409;" horiz-adv-x="2164" 
d="M1298 903h277q231 0 379.5 -123.5t148.5 -322.5q0 -201 -149 -329t-379 -128h-641v1122h-268l-76 -702q-23 -211 -134 -315.5t-298 -104.5h-129v311h65q132 0 150 144l127 979h927v-531zM1298 311h271q96 0 145 39t49 107q0 69 -49 107t-145 38h-271v-291z" />
    <glyph glyph-name="uni040A" unicode="&#x40a;" horiz-adv-x="2179" 
d="M1350 903h239q231 0 380 -123.5t149 -322.5q0 -201 -149.5 -329t-379.5 -128h-604v602h-498v-602h-364v1434h364v-531h498v531h365v-531zM1350 311h233q96 0 145.5 39t49.5 107q0 69 -49.5 107t-145.5 38h-233v-291z" />
    <glyph glyph-name="uni040B" unicode="&#x40b;" horiz-adv-x="1519" 
d="M952 940q229 0 356.5 -124.5t127.5 -373.5v-442h-351v408q0 107 -58 162t-167 55q-116 0 -207 -31v-594h-364v1143h-269v291h1143v-291h-510v-250q143 47 299 47z" />
    <glyph glyph-name="uni040C" unicode="&#x40c;" horiz-adv-x="1454" 
d="M750 1851h352l-203 -303h-276zM1417 0h-456l-293 553h-179v-553h-366v1434h366v-570h160l283 416q106 154 260 154h194v-310h-53q-30 0 -44.5 -1.5t-40.5 -9.5t-48.5 -29t-46.5 -56l-180 -274z" />
    <glyph glyph-name="uni040D" unicode="&#x40d;" horiz-adv-x="1495" 
d="M819 1851l127 -303h-276l-203 303h352zM506 0h-383v1434h356v-549q0 -89 -2.5 -180.5t-4.5 -138.5l-3 -46q76 146 176 320l344 594h383v-1434h-356v543q0 89 2.5 180t5.5 137l2 47q-76 -145 -176 -319z" />
    <glyph glyph-name="uni040F" unicode="&#x40f;" horiz-adv-x="1449" 
d="M963 1434h364v-1434h-422l-12 -418h-334l-12 418h-424v1434h364v-1123h476v1123z" />
    <glyph glyph-name="uni0410" unicode="&#x410;" horiz-adv-x="1433" 
d="M1425 0h-376l-97 281h-469l-96 -281h-379l535 1434h348zM610 645l-20 -61h256l-21 61q-29 84 -55.5 171t-38.5 132l-12 45q-46 -160 -109 -348z" />
    <glyph glyph-name="uni0411" unicode="&#x411;" horiz-adv-x="1329" 
d="M481 932h256q231 0 374.5 -124.5t143.5 -334.5q0 -211 -144 -342t-374 -131h-614v1434h1007v-306h-649v-196zM481 311h211q109 0 166 43t57 119t-57 119t-166 43h-211v-324z" />
    <glyph glyph-name="uni0412" unicode="&#x412;" horiz-adv-x="1314" 
d="M727 0h-604v1434h594q130 0 233.5 -41t166.5 -126t63 -202q0 -95 -47 -170.5t-113 -112.5q103 -44 169 -133t66 -217q0 -204 -146.5 -318t-381.5 -114zM481 1151v-246h205q162 0 162 123t-170 123h-197zM481 602v-291h219q113 0 164 36t51 108q0 73 -51.5 110t-163.5 37
h-219z" />
    <glyph glyph-name="uni0413" unicode="&#x413;" horiz-adv-x="1134" 
d="M125 0v1434h989v-312h-622v-1122h-367z" />
    <glyph glyph-name="uni0414" unicode="&#x414;" horiz-adv-x="1406" 
d="M1227 1434v-1123h174v-688h-354v377h-695v-377h-354v688h43q79 4 111.5 38.5t40.5 105.5l126 979h908zM514 311h358v811h-264l-76 -702q-6 -60 -18 -109z" />
    <glyph glyph-name="uni0415" unicode="&#x415;" horiz-adv-x="1214" 
d="M1155 0h-1032v1434h1010v-312h-646v-237h508v-312h-508v-262h668v-311z" />
    <glyph glyph-name="uni0416" unicode="&#x416;" horiz-adv-x="2140" 
d="M2103 0h-452l-279 553h-119v-553h-366v553h-119l-279 -553h-452l430 754l-170 274q-22 35 -44.5 56t-49 29t-41.5 9.5t-45 1.5h-54v310h195q78 0 145 -40.5t115 -113.5l268 -416h101v570h366v-570h101l268 416q48 73 115 113.5t145 40.5h195v-310h-54q-30 0 -45 -1.5
t-41.5 -9.5t-49 -29t-44.5 -56l-170 -274z" />
    <glyph glyph-name="uni0417" unicode="&#x417;" horiz-adv-x="1257" 
d="M987 772q103 -39 161 -126t58 -214q0 -136 -79 -239t-209.5 -156t-290.5 -53q-159 0 -283.5 53.5t-199 161.5t-76.5 256h338q0 -72 60 -116t161 -44q107 0 164 40.5t57 113.5q0 67 -51 101t-146 34h-190v297h170q74 0 120 34t46 91q0 61 -46.5 97t-127.5 36
q-80 0 -130 -43t-49 -113h-335q0 108 44 198t116.5 147.5t164 89.5t189.5 32q232 0 378 -105t146 -286q0 -97 -47 -173.5t-113 -113.5z" />
    <glyph glyph-name="uni0418" unicode="&#x418;" horiz-adv-x="1495" 
d="M506 0h-383v1434h356v-549q0 -89 -2.5 -180.5t-4.5 -138.5l-3 -46q76 146 176 320l344 594h383v-1434h-356v543q0 89 2.5 180t5.5 137l2 47q-76 -145 -176 -319z" />
    <glyph glyph-name="uni0419" unicode="&#x419;" horiz-adv-x="1495" 
d="M745 1534q-163 0 -254.5 84t-91.5 217h256q0 -100 90 -100q93 0 93 100h256q0 -133 -92.5 -217t-256.5 -84zM506 0h-383v1434h356v-549q0 -89 -2.5 -180.5t-4.5 -138.5l-3 -46q76 146 176 320l344 594h383v-1434h-356v543q0 89 2.5 180t5.5 137l2 47q-76 -145 -176 -319z
" />
    <glyph glyph-name="uni041A" unicode="&#x41a;" horiz-adv-x="1454" 
d="M1417 0h-456l-293 553h-179v-553h-366v1434h366v-570h160l283 416q106 154 260 154h194v-310h-53q-30 0 -44.5 -1.5t-40.5 -9.5t-48.5 -29t-46.5 -56l-180 -274z" />
    <glyph glyph-name="uni041B" unicode="&#x41b;" horiz-adv-x="1441" 
d="M158 0h-129v311h65q132 0 150 144l127 979h948v-1434h-365v1122h-288l-76 -702q-23 -211 -134 -315.5t-298 -104.5z" />
    <glyph glyph-name="uni041C" unicode="&#x41c;" horiz-adv-x="1828" 
d="M459 0h-336v1434h397l264 -615q36 -82 68 -181t46 -158l15 -58q54 213 134 397l264 615h395v-1434h-336v428q0 89 5 194.5t11 166.5l5 61q-72 -211 -152 -395l-195 -455h-258l-196 455q-36 82 -73.5 180.5t-56.5 156.5l-20 58q19 -221 19 -422v-428z" />
    <glyph glyph-name="uni041D" unicode="&#x41d;" horiz-adv-x="1492" 
d="M1006 885v549h364v-1434h-364v573h-519v-573h-364v1434h364v-549h519z" />
    <glyph glyph-name="uni041E" unicode="&#x41e;" horiz-adv-x="1611" 
d="M809 -16q-159 0 -298 55.5t-237.5 152.5t-155.5 233t-57 292t57 292t155.5 233t237.5 152.5t298 55.5q210 0 379.5 -94.5t265.5 -262.5t96 -376t-96 -376t-265.5 -262.5t-379.5 -94.5zM807 295q165 0 272 120t107 302t-107 302t-272 120q-166 0 -273.5 -120t-107.5 -302
t107.5 -302t273.5 -120z" />
    <glyph glyph-name="uni041F" unicode="&#x41f;" horiz-adv-x="1458" 
d="M1335 1434v-1434h-364v1122h-484v-1122h-364v1434h1212z" />
    <glyph glyph-name="uni0420" unicode="&#x420;" horiz-adv-x="1257" 
d="M489 0h-366v1434h610q231 0 363.5 -129.5t132.5 -335.5t-132.5 -335.5t-363.5 -129.5h-244v-504zM489 1135v-332h220q83 0 127.5 47.5t44.5 118.5t-44.5 118.5t-127.5 47.5h-220z" />
    <glyph glyph-name="uni0421" unicode="&#x421;" horiz-adv-x="1525" 
d="M795 -16q-153 0 -285 48t-232.5 138t-158.5 231t-58 316t59 316t160.5 231t233 138t281.5 48q284 0 471.5 -146t216.5 -391h-383q-13 102 -97.5 164t-209.5 62q-158 0 -261.5 -110.5t-103.5 -311.5q0 -202 103 -312t262 -110q126 0 212.5 61t106.5 164h363
q-20 -244 -205.5 -390t-474.5 -146z" />
    <glyph glyph-name="uni0422" unicode="&#x422;" 
d="M786 0h-364v1122h-410v312h1184v-312h-410v-1122z" />
    <glyph glyph-name="uni0423" unicode="&#x423;" horiz-adv-x="1265" 
d="M645 788l254 646h367l-508 -1168q-34 -77 -63 -123.5t-70.5 -81t-95 -48t-132.5 -13.5h-235v301h155q52 0 80 18t52 64l18 37l-467 1014h375z" />
    <glyph glyph-name="uni0424" unicode="&#x424;" horiz-adv-x="1665" 
d="M1604 717q0 -240 -161 -394.5t-442 -191.5v-151h-337v151q-279 39 -441 194t-162 392t162 392t441 194v151h337v-151q281 -37 442 -191.5t161 -394.5zM1001 1014v-594q119 31 184.5 106.5t65.5 190.5t-65.5 190.5t-184.5 106.5zM414 717q0 -115 65.5 -190.5t184.5 -106.5
v594q-119 -31 -184.5 -106.5t-65.5 -190.5z" />
    <glyph glyph-name="uni0425" unicode="&#x425;" horiz-adv-x="1298" 
d="M889 1434h379l-428 -723l426 -711h-385l-232 391l-231 -391h-387l426 713l-426 721h377l241 -402z" />
    <glyph glyph-name="uni0426" unicode="&#x426;" horiz-adv-x="1497" 
d="M1317 1434v-1123h174l-21 -688h-333l-15 377h-999v1434h364v-1123h465v1123h365z" />
    <glyph glyph-name="uni0427" unicode="&#x427;" horiz-adv-x="1363" 
d="M877 772v662h364v-1434h-364v469q-142 -37 -299 -37q-229 0 -356.5 124.5t-127.5 373.5v504h350v-469q0 -107 58.5 -162t167.5 -55q118 0 207 24z" />
    <glyph glyph-name="uni0428" unicode="&#x428;" horiz-adv-x="2019" 
d="M1532 311v1123h364v-1434h-1773v1434h364v-1123h344v1123h357v-1123h344z" />
    <glyph glyph-name="uni0429" unicode="&#x429;" horiz-adv-x="2076" 
d="M1896 1434v-1123h175l-21 -688h-334l-14 377h-1579v1434h364v-1123h344v1123h357v-1123h344v1123h364z" />
    <glyph glyph-name="uni042A" unicode="&#x42a;" horiz-adv-x="1607" 
d="M772 956h246q233 0 380.5 -127t147.5 -344q0 -145 -68.5 -256t-188 -170t-271.5 -59h-604v1128h-402v306h760v-478zM772 311h199q114 0 174.5 44.5t60.5 129.5t-60.5 129.5t-174.5 44.5h-199v-348z" />
    <glyph glyph-name="uni042B" unicode="&#x42b;" horiz-adv-x="1904" 
d="M481 956h226q233 0 380.5 -127t147.5 -344q0 -145 -68.5 -256t-188 -170t-271.5 -59h-584v1434h358v-478zM1415 0v1434h367v-1434h-367zM481 311h178q114 0 175 44.5t61 129.5t-61 129.5t-175 44.5h-178v-348z" />
    <glyph glyph-name="uni042C" unicode="&#x42c;" horiz-adv-x="1337" 
d="M481 956h267q233 0 380.5 -127t147.5 -344q0 -145 -68.5 -256t-188 -170t-271.5 -59h-625v1434h358v-478zM481 311h219q114 0 175 44.5t61 129.5t-61 129.5t-175 44.5h-219v-348z" />
    <glyph glyph-name="uni042D" unicode="&#x42d;" horiz-adv-x="1546" 
d="M776 1450q148 0 276 -48t225 -138t152.5 -231t55.5 -316q0 -176 -55 -316t-153 -230.5t-230.5 -138.5t-290.5 -48q-186 0 -338.5 65t-245.5 188t-102 283h362q15 -100 109 -162.5t213 -62.5q130 0 222.5 71.5t125.5 206.5h-533v291h533q-33 134 -124 204.5t-220 70.5
q-109 0 -200 -63t-114 -163h-383q32 243 229 390t486 147z" />
    <glyph glyph-name="uni042E" unicode="&#x42e;" horiz-adv-x="2156" 
d="M1395 1450q315 0 507.5 -201.5t192.5 -531.5t-192.5 -531.5t-507.5 -201.5q-281 0 -468.5 159.5t-228.5 429.5h-211v-573h-364v1434h364v-549h215q47 260 233 412.5t460 152.5zM1393 295q152 0 245 116t93 306t-93 306t-245 116q-154 0 -247 -115.5t-93 -306.5t93 -306.5
t247 -115.5z" />
    <glyph glyph-name="uni042F" unicode="&#x42f;" horiz-adv-x="1370" 
d="M657 1434h590v-1434h-366v492h-234q-60 0 -102 -37t-49 -97l-45 -358h-371l49 391q26 195 178 291q-186 99 -186 324q0 191 147.5 309.5t388.5 118.5zM881 1135h-232q-83 0 -127.5 -47.5t-44.5 -118.5t44.5 -118.5t127.5 -47.5h232v332z" />
    <glyph glyph-name="uni0430" unicode="&#x430;" horiz-adv-x="1071" 
d="M530 1049q197 0 328 -106.5t131 -278.5v-664h-336v127q-20 -65 -92 -104t-172 -39q-143 0 -236.5 89t-93.5 220q0 151 100 238t265 87h147q39 0 60.5 24.5t21.5 62.5q0 47 -37.5 75.5t-105.5 28.5q-79 0 -116.5 -40.5t-39.5 -102.5h-295q3 80 34.5 148.5t89 121t147 83
t200.5 30.5zM653 406v8h-172q-44 0 -73 -29.5t-29 -75.5q0 -39 29.5 -64.5t74.5 -25.5q78 0 124 55.5t46 131.5z" />
    <glyph glyph-name="uni0431" unicode="&#x431;" horiz-adv-x="1179" 
d="M680 977q114 0 202.5 -38t144 -106t84 -158t28.5 -198q0 -217 -142 -355t-393 -138q-254 0 -402.5 172.5t-148.5 480.5q0 155 34 283t94 217.5t142.5 151.5t178 92.5t203.5 33.5q106 3 106 76h328q0 -182 -71 -272.5t-226 -96.5q-152 -5 -235.5 -27.5t-129 -72.5
t-65.5 -145q114 100 268 100zM604 270q95 0 146 58.5t51 148.5q0 93 -50.5 152t-146.5 59q-97 0 -147.5 -59t-50.5 -152q0 -90 50.5 -148.5t147.5 -58.5z" />
    <glyph glyph-name="uni0432" unicode="&#x432;" horiz-adv-x="1095" 
d="M885 571q82 -29 125 -95t43 -161q0 -149 -97 -232t-278 -83h-586v1032h547q159 0 252.5 -68t93.5 -192q0 -67 -29 -119.5t-71 -81.5zM547 821h-137v-186h137q62 0 90.5 23.5t28.5 74.5q0 88 -119 88zM410 217h151q75 0 110.5 25.5t35.5 79.5t-35.5 79t-110.5 25h-151
v-209z" />
    <glyph glyph-name="uni0433" unicode="&#x433;" horiz-adv-x="894" 
d="M840 1032v-295h-410v-737h-338v1032h748z" />
    <glyph glyph-name="uni0434" unicode="&#x434;" horiz-adv-x="1294" 
d="M1137 1032v-751h131v-637h-328v356h-578v-356h-327v637h43q88 3 119.5 33.5t42.5 111.5l88 606h809zM596 750l-39 -375q-6 -54 -18 -94h270v469h-213z" />
    <glyph glyph-name="uni0435" unicode="&#x435;" horiz-adv-x="1120" 
d="M580 256q148 0 174 102h325q-32 -170 -169.5 -272t-329.5 -102q-133 0 -239.5 48.5t-170 127t-96.5 170t-33 186.5q0 76 18 149.5t58 143.5t99 123t147.5 85t195.5 32q113 0 204 -32.5t148.5 -85t96.5 -121t55 -136.5t16 -137q0 -51 -4 -101h-710q15 -87 69.5 -133.5
t145.5 -46.5zM559 809q-84 0 -130.5 -40t-63.5 -132h380q-5 71 -54 121.5t-132 50.5z" />
    <glyph glyph-name="uni0436" unicode="&#x436;" horiz-adv-x="1748" 
d="M1722 0h-393l-205 371h-80v-371h-339v371h-80l-205 -371h-393l348 547l-113 143q-32 43 -58.5 56.5t-76.5 13.5h-61v272h192q55 0 108 -25t83 -67l192 -274h64v366h339v-366h64l192 274q30 42 83 67t108 25h190v-272h-59q-52 0 -76.5 -13t-58.5 -57l-113 -143z" />
    <glyph glyph-name="uni0437" unicode="&#x437;" horiz-adv-x="1042" 
d="M836 569q78 -31 119.5 -95t41.5 -152q0 -155 -129.5 -246.5t-361.5 -91.5q-234 0 -353.5 95.5t-119.5 256.5h323q13 -65 48.5 -92t101.5 -27q145 0 145 105q0 98 -145 98h-119v209h113q118 0 118 98q0 44 -27.5 69t-78.5 25q-108 0 -129 -121h-322q0 152 122 250.5
t337 98.5q188 0 303 -76.5t115 -202.5q0 -68 -29.5 -121t-72.5 -80z" />
    <glyph glyph-name="uni0438" unicode="&#x438;" horiz-adv-x="1204" 
d="M432 0h-340v1032h322v-246q0 -89 -3 -180t-7 -138l-3 -46q81 143 187 315l184 295h340v-1032h-321v246q0 89 3 180t6 138l3 46q-81 -143 -187 -315z" />
    <glyph glyph-name="uni0439" unicode="&#x439;" horiz-adv-x="1204" 
d="M600 1133q-163 0 -254.5 84t-91.5 217h256q0 -101 90 -101q92 0 92 101h256q0 -133 -92 -217t-256 -84zM432 0h-340v1032h322v-246q0 -89 -3 -180t-7 -138l-3 -46q81 143 187 315l184 295h340v-1032h-321v246q0 89 3 180t6 138l3 46q-81 -143 -187 -315z" />
    <glyph glyph-name="uni043A" unicode="&#x43a;" horiz-adv-x="1191" 
d="M1165 0h-401l-236 375h-96v-375h-340v1032h340v-362h76l211 270q32 41 84 66.5t106 25.5h199v-272h-68q-36 0 -53 -2.5t-42 -18t-52 -49.5l-107 -129z" />
    <glyph glyph-name="uni043B" unicode="&#x43b;" horiz-adv-x="1169" 
d="M193 0h-179v295h58q49 0 74.5 24.5t33.5 77.5l88 635h809v-1032h-338v752h-186l-47 -447q-17 -154 -97.5 -229.5t-215.5 -75.5z" />
    <glyph glyph-name="uni043C" unicode="&#x43c;" horiz-adv-x="1429" 
d="M403 0h-311v1032h369l110 -223q39 -80 75 -177.5t52 -154.5l17 -57q59 211 147 391l109 221h366v-1032h-311v168q0 89 5 194.5t11 166.5l5 61q-72 -211 -152 -395l-86 -195h-186l-86 197q-36 81 -74 179t-58 156l-20 58q18 -221 18 -422v-168z" />
    <glyph glyph-name="uni043D" unicode="&#x43d;" horiz-adv-x="1204" 
d="M774 678v354h338v-1032h-338v383h-344v-383h-338v1032h338v-354h344z" />
    <glyph glyph-name="uni043E" unicode="&#x43e;" horiz-adv-x="1187" 
d="M594 -16q-159 0 -285.5 69t-197 190.5t-70.5 272.5t70.5 272.5t197 191t285.5 69.5t285.5 -69.5t197 -191t70.5 -272.5t-70.5 -272.5t-197 -190.5t-285.5 -69zM594 270q97 0 156 68t59 178t-59 178t-156 68t-156 -68t-59 -178t59 -178t156 -68z" />
    <glyph glyph-name="uni043F" unicode="&#x43f;" horiz-adv-x="1193" 
d="M1102 1032v-1032h-338v737h-334v-737h-338v1032h1010z" />
    <glyph glyph-name="uni0440" unicode="&#x440;" horiz-adv-x="1210" 
d="M430 -418h-338v1450h338v-88q94 105 275 105q209 0 336.5 -144t127.5 -389q0 -244 -138 -388t-357 -144q-170 0 -244 77v-479zM627 270q95 0 154 68t59 178t-59 178t-154 68q-97 0 -156 -68t-59 -178t59 -178t156 -68z" />
    <glyph glyph-name="uni0441" unicode="&#x441;" horiz-adv-x="1146" 
d="M586 -16q-238 0 -391.5 149.5t-153.5 382.5t153.5 383t391.5 150q217 0 363 -118.5t157 -301.5h-340q-12 59 -60.5 96t-115.5 37q-99 0 -155 -66.5t-56 -179.5t59.5 -179.5t161.5 -66.5q66 0 112.5 38t57.5 98h346q-20 -177 -174 -299.5t-356 -122.5z" />
    <glyph glyph-name="uni0442" unicode="&#x442;" horiz-adv-x="1050" 
d="M995 1032v-295h-301v-737h-338v737h-301v295h940z" />
    <glyph glyph-name="uni0443" unicode="&#x443;" horiz-adv-x="1064" 
d="M715 1032h344l-373 -1024l-149 -426h-322l162 438l-371 1012h342l184 -600z" />
    <glyph glyph-name="uni0444" unicode="&#x444;" horiz-adv-x="1515" 
d="M1475 516q0 -232 -151.5 -368.5t-399.5 -159.5v-406h-332v406q-248 23 -399.5 159.5t-151.5 368.5t151.5 368.5t399.5 159.5v406h332v-406q248 -23 399.5 -159.5t151.5 -368.5zM369 516q0 -105 58 -172t165 -84v512q-107 -17 -165 -84t-58 -172zM924 772v-512
q107 17 165 84t58 172t-58 172t-165 84z" />
    <glyph glyph-name="uni0445" unicode="&#x445;" horiz-adv-x="1126" 
d="M745 535l371 -535h-360l-193 274l-192 -274h-361l371 535l-348 497h368l162 -233l162 233h369z" />
    <glyph glyph-name="uni0446" unicode="&#x446;" horiz-adv-x="1269" 
d="M1083 1032v-737h160v-651h-328v356h-823v1032h338v-737h315v737h338z" />
    <glyph glyph-name="uni0447" unicode="&#x447;" horiz-adv-x="1146" 
d="M717 535v497h338v-1032h-338v260q-133 -53 -275 -53q-177 0 -272.5 101t-95.5 286v438h332v-368q0 -76 41.5 -116t119.5 -40q67 0 150 27z" />
    <glyph glyph-name="uni0448" unicode="&#x448;" horiz-adv-x="1693" 
d="M1276 295v737h326v-1032h-1510v1032h326v-737h268v737h322v-737h268z" />
    <glyph glyph-name="uni0449" unicode="&#x449;" horiz-adv-x="1787" 
d="M1602 1032v-737h159v-651h-327v356h-1342v1032h326v-737h268v737h322v-737h268v737h326z" />
    <glyph glyph-name="uni044A" unicode="&#x44a;" horiz-adv-x="1378" 
d="M705 752h184q220 0 333 -94.5t113 -274.5q0 -186 -113 -284.5t-333 -98.5h-522v745h-312v287h650v-280zM705 264h141q73 0 113 30t40 89q0 54 -40.5 84.5t-112.5 30.5h-141v-234z" />
    <glyph glyph-name="uni044B" unicode="&#x44b;" horiz-adv-x="1619" 
d="M430 752h166q224 0 338.5 -94.5t114.5 -274.5q0 -186 -114.5 -284.5t-338.5 -98.5h-504v1032h338v-280zM1196 0v1032h332v-1032h-332zM430 264h129q160 0 160 119q0 54 -42 84.5t-118 30.5h-129v-234z" />
    <glyph glyph-name="uni044C" unicode="&#x44c;" horiz-adv-x="1136" 
d="M430 752h211q224 0 338.5 -94.5t114.5 -274.5q0 -186 -114.5 -284.5t-338.5 -98.5h-549v1032h338v-280zM430 264h168q160 0 160 119q0 54 -42 84.5t-118 30.5h-168v-234z" />
    <glyph glyph-name="uni044D" unicode="&#x44d;" horiz-adv-x="1110" 
d="M539 1049q246 0 388 -146.5t142 -384.5q0 -236 -154 -385t-401 -149q-109 0 -198 30t-146.5 81.5t-92 114t-46.5 134.5h321q18 -42 61 -67t107 -25q142 0 185 147h-281v224h283q-19 77 -64.5 118t-114.5 41q-116 0 -163 -104h-324q19 163 158.5 267t339.5 104z" />
    <glyph glyph-name="uni044E" unicode="&#x44e;" horiz-adv-x="1656" 
d="M1094 1049q233 0 377.5 -150.5t144.5 -382.5t-144.5 -382t-377.5 -150q-198 0 -332.5 109.5t-173.5 289.5h-158v-383h-338v1032h338v-354h164q45 169 178 270t322 101zM1094 270q84 0 134 65t50 181t-50 181t-134 65q-83 0 -133 -65.5t-50 -180.5t50 -180.5t133 -65.5z
" />
    <glyph glyph-name="uni044F" unicode="&#x44f;" horiz-adv-x="1136" 
d="M469 1032h575v-1032h-325v305h-187q-47 0 -81.5 -28t-40.5 -80l-23 -197h-336l33 260q7 65 44.5 124.5t107.5 90.5q-162 72 -162 238q0 146 106 232.5t289 86.5zM539 553h180v221h-180q-65 0 -102.5 -29t-37.5 -77q0 -53 37.5 -84t102.5 -31z" />
    <glyph glyph-name="uni0450" unicode="&#x450;" horiz-adv-x="1120" 
d="M643 1450l127 -303h-276l-203 303h352zM580 256q148 0 174 102h325q-32 -170 -169.5 -272t-329.5 -102q-133 0 -239.5 48.5t-170 127t-96.5 170t-33 186.5q0 76 18 149.5t58 143.5t99 123t147.5 85t195.5 32q113 0 204 -32.5t148.5 -85t96.5 -121t55 -136.5t16 -137
q0 -51 -4 -101h-710q15 -87 69.5 -133.5t145.5 -46.5zM559 809q-84 0 -130.5 -40t-63.5 -132h380q-5 71 -54 121.5t-132 50.5z" />
    <glyph glyph-name="uni0451" unicode="&#x451;" horiz-adv-x="1120" 
d="M207 1446h291v-275h-291v275zM645 1446h291v-275h-291v275zM580 256q148 0 174 102h325q-32 -170 -169.5 -272t-329.5 -102q-133 0 -239.5 48.5t-170 127t-96.5 170t-33 186.5q0 76 18 149.5t58 143.5t99 123t147.5 85t195.5 32q113 0 204 -32.5t148.5 -85t96.5 -121
t55 -136.5t16 -137q0 -51 -4 -101h-710q15 -87 69.5 -133.5t145.5 -46.5zM559 809q-84 0 -130.5 -40t-63.5 -132h380q-5 71 -54 121.5t-132 50.5z" />
    <glyph glyph-name="uni0452" unicode="&#x452;" horiz-adv-x="1228" 
d="M774 987q60 0 114.5 -16t105.5 -52.5t88 -91t59 -137t22 -184.5v-574q0 -160 -106.5 -255t-284.5 -95h-123v258h62q51 0 82.5 37t31.5 96v490q0 121 -51 173t-123 52q-78 0 -126 -57.5t-48 -161.5v-469h-338v1085h-186v230h186v176h338v-176h379v-230h-379v-254
q45 74 123.5 115t173.5 41z" />
    <glyph glyph-name="uni0453" unicode="&#x453;" horiz-adv-x="894" 
d="M487 1450h353l-203 -303h-277zM92 1032h748v-295h-410v-737h-338v1032z" />
    <glyph glyph-name="uni0454" unicode="&#x454;" horiz-adv-x="1110" 
d="M758 344h321q-31 -161 -163 -260.5t-345 -99.5q-228 0 -379 150t-151 382q0 234 154 383.5t397 149.5q193 0 327.5 -104.5t149.5 -266.5h-324q-47 104 -153 104q-69 0 -119 -41.5t-70 -117.5h283v-224h-280q21 -73 68.5 -110t109.5 -37q132 0 174 92z" />
    <glyph glyph-name="uni0455" unicode="&#x455;" horiz-adv-x="927" 
d="M475 -16q-194 0 -315.5 101t-128.5 269h284q7 -55 51 -89t109 -34q54 0 87.5 20t33.5 54q0 27 -18.5 44.5t-49.5 27.5t-71 17t-84.5 15.5t-88.5 20.5t-84 35t-71 55.5t-49.5 85t-18.5 121.5q0 138 107 230t264 92q193 0 313.5 -95t126.5 -252h-286q-7 52 -47 85.5
t-93 33.5q-49 0 -77.5 -20.5t-28.5 -59.5q0 -32 23.5 -51.5t62 -26t87.5 -14t100.5 -14t100.5 -27.5t87.5 -53t62 -92.5t23.5 -143.5q0 -152 -112.5 -243.5t-299.5 -91.5z" />
    <glyph glyph-name="uni0456" unicode="&#x456;" horiz-adv-x="522" 
d="M86 1159v332h352v-332h-352zM430 0h-338v1032h338v-1032z" />
    <glyph glyph-name="uni0457" unicode="&#x457;" horiz-adv-x="522" 
d="M-104 1171v275h290v-275h-290zM334 1171v275h291v-275h-291zM430 0h-338v1032h338v-1032z" />
    <glyph glyph-name="uni0458" unicode="&#x458;" horiz-adv-x="522" 
d="M88 1159v332h352v-332h-352zM92 -27v1059h338v-1100q0 -160 -107 -255t-286 -95h-123v258h61q51 0 84 37.5t33 95.5z" />
    <glyph glyph-name="uni0459" unicode="&#x459;" horiz-adv-x="1728" 
d="M1077 741h164q218 0 331.5 -93.5t113.5 -266.5q0 -184 -113.5 -282.5t-331.5 -98.5h-502v752h-186l-47 -447q-17 -154 -97.5 -229.5t-215.5 -75.5h-179v295h58q49 0 74.5 24.5t33.5 77.5l88 635h809v-291zM1077 260h127q72 0 112 30.5t40 90.5q0 51 -41 81t-111 30h-127
v-232z" />
    <glyph glyph-name="uni045A" unicode="&#x45a;" horiz-adv-x="1755" 
d="M1102 752h158q224 0 338 -94.5t114 -274.5q0 -186 -114 -284.5t-338 -98.5h-496v393h-334v-393h-338v1032h338v-344h334v344h338v-280zM1102 264h115q159 0 159 119q0 54 -41.5 84.5t-117.5 30.5h-115v-234z" />
    <glyph glyph-name="uni045B" unicode="&#x45b;" horiz-adv-x="1255" 
d="M780 987q171 0 277 -112.5t106 -286.5v-588h-338v508q0 77 -49 128.5t-125 51.5t-125 -51.5t-49 -128.5v-508h-338v1085h-186v230h186v176h338v-176h379v-230h-379v-254q46 75 124.5 115.5t178.5 40.5z" />
    <glyph glyph-name="uni045C" unicode="&#x45c;" horiz-adv-x="1191" 
d="M608 1450h353l-203 -303h-277zM1165 0h-401l-236 375h-96v-375h-340v1032h340v-362h76l211 270q32 41 84 66.5t106 25.5h199v-272h-68q-36 0 -53 -2.5t-42 -18t-52 -49.5l-107 -129z" />
    <glyph glyph-name="uni045D" unicode="&#x45d;" horiz-adv-x="1204" 
d="M674 1450l127 -303h-277l-202 303h352zM432 0h-340v1032h322v-246q0 -89 -3 -180t-7 -138l-3 -46q81 143 187 315l184 295h340v-1032h-321v246q0 89 3 180t6 138l3 46q-81 -143 -187 -315z" />
    <glyph glyph-name="uni045F" unicode="&#x45f;" horiz-adv-x="1175" 
d="M745 295v737h338v-1032h-331v-385h-328v385h-332v1032h338v-737h315z" />
    <glyph glyph-name="uni0490" unicode="&#x490;" horiz-adv-x="1163" 
d="M743 1434v352h349v-664h-603v-1122h-366v1434h620z" />
    <glyph glyph-name="uni0491" unicode="&#x491;" horiz-adv-x="915" 
d="M524 1032v342h328v-637h-422v-737h-338v1032h432z" />
    <glyph glyph-name="uni0E3F" unicode="&#xe3f;" horiz-adv-x="1314" 
d="M1255 432q0 -198 -138.5 -312t-362.5 -120v-205h-353v205h-278v1434h278v180h353v-180q188 -9 307 -106t119 -263q0 -95 -47 -170.5t-113 -112.5q103 -44 169 -133t66 -217zM848 1028q0 123 -170 123h-197v-246h205q162 0 162 123zM481 311h219q113 0 164 36t51 108
q0 73 -51.5 110t-163.5 37h-219v-291z" />
    <glyph glyph-name="Wgrave" unicode="&#x1e80;" horiz-adv-x="2105" 
d="M1124 1851l127 -303h-276l-203 303h352zM799 0h-355l-417 1434h368l156 -580q23 -87 43.5 -190.5t29.5 -163.5l9 -60q39 217 94 410l172 584h305l172 -584q25 -86 48.5 -188.5t34.5 -161.5l11 -60q33 219 86 412l156 582h367l-416 -1434h-356l-162 549q-24 86 -46.5 188
t-32.5 161l-11 60q-39 -216 -94 -409z" />
    <glyph glyph-name="wgrave" unicode="&#x1e81;" horiz-adv-x="1622" 
d="M885 1450l127 -303h-277l-203 303h353zM649 0h-289l-344 1032h338l154 -559l151 559h304l153 -559l152 559h338l-344 -1032h-289l-160 567z" />
    <glyph glyph-name="Wacute" unicode="&#x1e82;" horiz-adv-x="2105" 
d="M1194 1548h-276l126 303h353zM799 0h-355l-417 1434h368l156 -580q23 -87 43.5 -190.5t29.5 -163.5l9 -60q39 217 94 410l172 584h305l172 -584q25 -86 48.5 -188.5t34.5 -161.5l11 -60q33 219 86 412l156 582h367l-416 -1434h-356l-162 549q-24 86 -46.5 188t-32.5 161
l-11 60q-39 -216 -94 -409z" />
    <glyph glyph-name="wacute" unicode="&#x1e83;" horiz-adv-x="1622" 
d="M954 1147h-276l127 303h352zM649 0h-289l-344 1032h338l154 -559l151 559h304l153 -559l152 559h338l-344 -1032h-289l-160 567z" />
    <glyph glyph-name="Wdieresis" unicode="&#x1e84;" horiz-adv-x="2105" 
d="M688 1573v274h291v-274h-291zM1126 1573v274h291v-274h-291zM799 0h-355l-417 1434h368l156 -580q23 -87 43.5 -190.5t29.5 -163.5l9 -60q39 217 94 410l172 584h305l172 -584q25 -86 48.5 -188.5t34.5 -161.5l11 -60q33 219 86 412l156 582h367l-416 -1434h-356
l-162 549q-24 86 -46.5 188t-32.5 161l-11 60q-39 -216 -94 -409z" />
    <glyph glyph-name="wdieresis" unicode="&#x1e85;" horiz-adv-x="1622" 
d="M449 1171v275h290v-275h-290zM887 1171v275h291v-275h-291zM649 0h-289l-344 1032h338l154 -559l151 559h304l153 -559l152 559h338l-344 -1032h-289l-160 567z" />
    <glyph glyph-name="uni1E9E" unicode="&#x1e9e;" horiz-adv-x="1314" 
d="M481 0h-358v961q0 220 155.5 354.5t399.5 134.5q147 0 268 -57.5t192.5 -165.5t71.5 -246l-237 -162q81 -21 137.5 -58.5t87.5 -89t44 -109.5t13 -130q0 -204 -146.5 -318t-381.5 -114h-137v311h110q113 0 164 36t51 108q0 73 -51.5 110t-163.5 37h-110v217l268 213
q-6 60 -55 97.5t-125 37.5q-89 0 -143 -60.5t-54 -160.5v-946z" />
    <glyph glyph-name="Ygrave" unicode="&#x1ef2;" horiz-adv-x="1325" 
d="M733 1851l127 -303h-276l-203 303h352zM846 0h-367v590l-479 844h385l277 -504l280 504h383l-479 -844v-590z" />
    <glyph glyph-name="ygrave" unicode="&#x1ef3;" horiz-adv-x="1064" 
d="M616 1450l127 -303h-276l-203 303h352zM715 1032h344l-373 -1024l-149 -426h-322l162 438l-371 1012h342l184 -600z" />
    <glyph glyph-name="endash" unicode="&#x2013;" horiz-adv-x="1189" 
d="M1100 506h-1010v287h1010v-287z" />
    <glyph glyph-name="emdash" unicode="&#x2014;" horiz-adv-x="1656" 
d="M1534 506h-1411v287h1411v-287z" />
    <glyph glyph-name="quoteleft" unicode="&#x2018;" horiz-adv-x="626" 
d="M535 1491l-140 -571h-344l238 571h246z" />
    <glyph glyph-name="quoteright" unicode="&#x2019;" horiz-adv-x="626" 
d="M51 922l139 571h345l-238 -571h-246z" />
    <glyph glyph-name="quotesinglbase" unicode="&#x201a;" horiz-adv-x="626" 
d="M51 -283l139 572h345l-238 -572h-246z" />
    <glyph glyph-name="quotedblleft" unicode="&#x201c;" horiz-adv-x="1171" 
d="M535 1491l-140 -571h-344l238 571h246zM1079 1491l-139 -571h-344l238 571h245z" />
    <glyph glyph-name="quotedblright" unicode="&#x201d;" horiz-adv-x="1171" 
d="M51 922l139 571h345l-238 -571h-246zM596 922l139 571h344l-237 -571h-246z" />
    <glyph glyph-name="quotedblbase" unicode="&#x201e;" horiz-adv-x="1171" 
d="M51 -317l139 571h345l-238 -571h-246zM596 -317l139 571h344l-237 -571h-246z" />
    <glyph glyph-name="dagger" unicode="&#x2020;" horiz-adv-x="1095" 
d="M715 -102h-334v856h-309v278h309v504h334v-504h309v-278h-309v-856z" />
    <glyph glyph-name="daggerdbl" unicode="&#x2021;" horiz-adv-x="1095" 
d="M1024 1032v-278h-309v-475h309v-279h-309v-504h-334v504h-309v279h309v475h-309v278h309v504h334v-504h309z" />
    <glyph glyph-name="bullet" unicode="&#x2022;" horiz-adv-x="706" 
d="M352 244q-120 0 -206.5 86t-86.5 209t86.5 209t206.5 86q122 0 208.5 -86t86.5 -209t-86.5 -209t-208.5 -86z" />
    <glyph glyph-name="ellipsis" unicode="&#x2026;" horiz-adv-x="1564" 
d="M92 0v340h361v-340h-361zM602 0v340h361v-340h-361zM1112 0v340h361v-340h-361z" />
    <glyph glyph-name="perthousand" unicode="&#x2030;" horiz-adv-x="2254" 
d="M418 795q-139 0 -227.5 93.5t-88.5 233.5t88.5 234t227.5 94t226 -94t87 -234t-87 -233.5t-226 -93.5zM1446 1434l-1040 -1434h-295l1040 1434h295zM418 1001q42 0 69 33.5t27 87.5t-27 87.5t-69 33.5q-40 0 -66 -33.5t-26 -87.5t26 -87.5t66 -33.5zM1139 -16
q-139 0 -227.5 93.5t-88.5 233.5t88.5 234t227.5 94t226 -94t87 -234t-87 -233.5t-226 -93.5zM1839 -16q-139 0 -227 93.5t-88 233.5t88 234t227 94t226 -94t87 -234t-87 -233.5t-226 -93.5zM1139 190q42 0 69 33.5t27 87.5t-27 87.5t-69 33.5q-40 0 -66 -33.5t-26 -87.5
t26 -87.5t66 -33.5zM1839 190q42 0 69 33.5t27 87.5t-27 87.5t-69 33.5q-40 0 -66 -33.5t-26 -87.5t26 -87.5t66 -33.5z" />
    <glyph glyph-name="guilsinglleft" unicode="&#x2039;" horiz-adv-x="815" 
d="M745 406v-336l-684 469v192l684 469v-336l-346 -229z" />
    <glyph glyph-name="guilsinglright" unicode="&#x203a;" horiz-adv-x="798" 
d="M772 539l-684 -469v336l346 229l-346 229v336l684 -469v-192z" />
    <glyph glyph-name="fraction" unicode="&#x2044;" horiz-adv-x="516" 
d="M926 1434l-1041 -1434h-295l1041 1434h295z" />
    <glyph glyph-name="uni2070" unicode="&#x2070;" horiz-adv-x="831" 
d="M444 645h-57q-167 0 -254.5 109t-87.5 309v45q0 200 87.5 309t254.5 109h57q166 0 254 -109t88 -309v-45q0 -200 -88 -309t-254 -109zM401 846h29q46 0 83.5 36t37.5 99v211q0 62 -37.5 97.5t-83.5 35.5h-29q-46 0 -82 -35.5t-36 -97.5v-211q0 -63 36 -99t82 -36z" />
    <glyph glyph-name="uni2074" unicode="&#x2074;" horiz-adv-x="819" 
d="M686 655h-235v142h-414v198l405 521h244v-521h78v-198h-78v-142zM451 1221l-187 -226h187v226z" />
    <glyph glyph-name="uni2075" unicode="&#x2075;" horiz-adv-x="745" 
d="M373 645q-124 0 -217.5 86t-96.5 191h199q6 -36 39 -60t78 -24q49 0 78.5 29.5t29.5 74.5q0 46 -32 76.5t-82 30.5q-58 0 -97 -45h-198l73 512h498v-201h-323l-21 -109q51 19 105 19q127 0 209.5 -80.5t82.5 -202.5q0 -130 -92.5 -213.5t-232.5 -83.5z" />
    <glyph glyph-name="uni2076" unicode="&#x2076;" horiz-adv-x="808" 
d="M440 1231q133 0 215 -84t82 -207t-96.5 -209t-234.5 -86q-114 0 -194.5 59.5t-117.5 154t-37 212.5q0 208 98 331.5t265 123.5q140 0 231.5 -76.5t100.5 -187.5h-203q-6 34 -41.5 56.5t-81.5 22.5q-69 0 -112 -52.5t-46 -129.5q27 31 77.5 51.5t94.5 20.5zM408 829
q59 0 93 29.5t34 81.5q0 48 -34.5 77.5t-92.5 29.5t-92.5 -29.5t-34.5 -77.5q0 -52 34 -81.5t93 -29.5z" />
    <glyph glyph-name="uni2077" unicode="&#x2077;" horiz-adv-x="653" 
d="M395 655h-235q-1 133 24 228.5t84 183.5l164 248h-391v201h649v-183l-211 -311q-45 -65 -64.5 -150t-19.5 -217z" />
    <glyph glyph-name="uni2078" unicode="&#x2078;" horiz-adv-x="792" 
d="M397 645q-150 0 -245 77t-95 193q0 133 129 203q-88 70 -88 170q0 103 84 170.5t215 67.5t215 -67.5t84 -170.5q0 -102 -90 -170q129 -64 129 -203q0 -116 -95 -193t-243 -77zM397 1206q43 0 70 19.5t27 50.5q0 32 -27 52t-70 20q-41 0 -67.5 -20t-26.5 -52t26 -51
t68 -19zM397 840q55 0 87 23t32 61t-32 61t-87 23t-88 -23t-33 -61t33.5 -61t87.5 -23z" />
    <glyph glyph-name="uni2079" unicode="&#x2079;" horiz-adv-x="808" 
d="M369 940q-133 0 -215 84t-82 207t96.5 209t234.5 86q114 0 194.5 -59.5t117.5 -154t37 -212.5q0 -208 -98 -331.5t-265 -123.5q-140 0 -231.5 76.5t-100.5 187.5h203q6 -34 41.5 -57t81.5 -23q68 0 111.5 52.5t46.5 130.5q-27 -31 -77.5 -51.5t-94.5 -20.5zM401 1341
q-59 0 -93 -29t-34 -81q0 -48 34.5 -77.5t92.5 -29.5t92.5 29.5t34.5 77.5q0 52 -34 81t-93 29z" />
    <glyph glyph-name="Euro" unicode="&#x20ac;" horiz-adv-x="1574" 
d="M1122 463h361q-13 -215 -163.5 -347t-381.5 -132h-115q-236 0 -380.5 116t-192.5 336h-199v215h174v25v82v24h-174v215h199q48 220 192.5 336.5t380.5 116.5h115q226 0 375 -127t166 -334h-365q-12 67 -65 108.5t-127 41.5h-80q-87 0 -146 -37t-86 -105h338v-215h-358
v-131h358v-215h-338q56 -141 232 -141h80q79 0 134 46.5t66 121.5z" />
    <glyph glyph-name="uni20BF" unicode="&#x20bf;" horiz-adv-x="1314" 
d="M1255 432q0 -147 -77.5 -248.5t-214.5 -146.5v-242h-269v205h-159v-205h-267v205h-145v1434h145v180h267v-180h159v180h267v-225q102 -44 160.5 -126.5t58.5 -197.5q0 -95 -47 -170.5t-113 -112.5q103 -44 169 -133t66 -217zM848 1028q0 123 -170 123h-197v-246h205
q162 0 162 123zM700 602h-219v-291h219q113 0 164 36t51 108q0 73 -51.5 110t-163.5 37z" />
    <glyph glyph-name="uni2113" unicode="&#x2113;" horiz-adv-x="1161" 
d="M786 393h318q-18 -193 -143 -300t-310 -107q-206 0 -330 108t-124 303v62l-156 -39v297l156 39v250q0 200 135 322t356 122q186 0 304 -120t118 -314q0 -172 -101.5 -277t-293.5 -157l-162 -43v-105q0 -125 125 -125q44 0 73.5 23.5t34.5 60.5zM553 948v-112l106 32
q59 19 90 51.5t31 90.5q0 56 -26.5 90.5t-71.5 34.5q-58 0 -93.5 -47t-35.5 -140z" />
    <glyph glyph-name="trademark" unicode="&#x2122;" horiz-adv-x="1933" 
d="M489 573h-235v660h-242v201h719v-201h-242v-660zM1061 573h-215v861h254l229 -529l230 529h251v-861h-215v426l-184 -426h-164l-186 426v-426z" />
    <glyph glyph-name="uni2126" unicode="&#x2126;" horiz-adv-x="1505" 
d="M1444 788q0 -155 -64.5 -275.5t-181.5 -201.5h240v-311h-545v418q80 62 131 159.5t51 190.5q0 172 -86 272.5t-235 100.5t-236.5 -100.5t-87.5 -272.5q0 -95 51 -191.5t133 -158.5v-418h-546v311h243q-118 81 -184 201.5t-66 275.5q0 188 90 339.5t249 237t356 85.5
q147 0 275 -50t218.5 -137.5t142.5 -210.5t52 -264z" />
    <glyph glyph-name="uni2153" unicode="&#x2153;" horiz-adv-x="1859" 
d="M231 1434h220v-861h-236v572q-12 -18 -55 -29.5t-78 -11.5h-49v201h51q63 0 98.5 28.5t48.5 100.5zM489 0h-294l1040 1434h295zM1468 -10q-143 0 -238 75t-95 209h225q0 -44 31 -64t77 -20q47 0 75 22t28 58q0 34 -29 56t-74 22h-88v187h82q36 0 58 21t22 56
q0 32 -25.5 52t-64.5 20q-36 0 -64.5 -22.5t-27.5 -61.5h-209q-1 117 89 193.5t218 76.5q129 0 219 -71t90 -168q0 -46 -24 -94t-64 -80q61 -35 93 -81t32 -114q0 -121 -98 -196.5t-238 -75.5z" />
    <glyph glyph-name="uni2154" unicode="&#x2154;" horiz-adv-x="2033" 
d="M274 1110h-235q0 156 89.5 245t242.5 89q147 0 237 -77t90 -204q0 -87 -49.5 -151t-159.5 -123l-79 -43q-87 -47 -95 -72h377v-201h-639l-2 162q-1 87 57.5 153t133.5 103l143 70q34 16 56 44.5t22 61.5q0 42 -25 66t-67 24q-48 0 -74.5 -39.5t-22.5 -107.5zM664 0h-295
l1040 1434h295zM1642 -10q-143 0 -238 75t-95 209h225q0 -44 31 -64t77 -20q47 0 75 22t28 58q0 34 -29 56t-74 22h-88v187h82q36 0 58 21t22 56q0 32 -25.5 52t-64.5 20q-36 0 -64.5 -22.5t-27.5 -61.5h-209q-1 117 89 193.5t218 76.5q129 0 219.5 -71.5t90.5 -167.5
q0 -46 -24.5 -94t-64.5 -80q61 -35 93 -81t32 -114q0 -121 -98 -196.5t-238 -75.5z" />
    <glyph glyph-name="oneeighth" unicode="&#x215b;" horiz-adv-x="1871" 
d="M231 1434h220v-861h-236v572q-12 -18 -55 -29.5t-78 -11.5h-49v201h51q63 0 98.5 28.5t48.5 100.5zM489 0h-294l1040 1434h295zM1477 -10q-150 0 -245 77t-95 193q0 133 129 203q-88 70 -88 170q0 103 84 170t215 67t215 -67t84 -170q0 -102 -90 -170q129 -65 129 -203
q0 -116 -95 -193t-243 -77zM1477 551q43 0 69.5 19.5t26.5 50.5q0 32 -26.5 51.5t-69.5 19.5q-42 0 -68.5 -19.5t-26.5 -51.5t26.5 -51t68.5 -19zM1477 184q55 0 86.5 22.5t31.5 61.5t-31.5 61.5t-86.5 22.5t-88 -23t-33 -61t33.5 -61t87.5 -23z" />
    <glyph glyph-name="threeeighths" unicode="&#x215c;" horiz-adv-x="2048" 
d="M389 563q-143 0 -238.5 75.5t-95.5 209.5h226q0 -44 31 -64t77 -20q47 0 75 22t28 58q0 34 -29 56t-74 22h-88v186h82q35 0 57.5 21.5t22.5 56.5q0 32 -25.5 51.5t-64.5 19.5q-36 0 -64.5 -22.5t-27.5 -60.5h-209q-1 117 89 193.5t218 76.5q129 0 219 -71.5t90 -168.5
q0 -46 -24 -94t-64 -80q61 -35 93 -80.5t32 -113.5q0 -121 -98.5 -197t-237.5 -76zM666 0h-295l1040 1434h295zM1653 -10q-150 0 -245 77t-95 193q0 133 129 203q-88 70 -88 170q0 103 84 170t215 67t215 -67t84 -170q0 -102 -90 -170q129 -65 129 -203q0 -116 -95 -193
t-243 -77zM1653 551q43 0 69.5 19.5t26.5 50.5q0 32 -26.5 51.5t-69.5 19.5q-42 0 -68 -19.5t-26 -51.5t26 -51t68 -19zM1653 184q55 0 87 23t32 61t-32 61t-87 23t-88 -23t-33 -61t33.5 -61t87.5 -23z" />
    <glyph glyph-name="fiveeighths" unicode="&#x215d;" horiz-adv-x="2013" 
d="M373 563q-124 0 -217.5 86t-96.5 191h199q6 -36 39 -60t78 -24q49 0 78.5 29.5t29.5 74.5q0 46 -32 76.5t-82 30.5q-58 0 -97 -45h-198l73 512h498v-201h-323l-21 -109q51 19 105 19q127 0 209.5 -80.5t82.5 -202.5q0 -130 -92.5 -213.5t-232.5 -83.5zM1671 1434
l-1040 -1434h-295l1040 1434h295zM1618 -10q-150 0 -245 77t-95 193q0 133 129 203q-88 70 -88 170q0 103 84 170t215 67t215 -67t84 -170q0 -102 -90 -170q129 -65 129 -203q0 -116 -95 -193t-243 -77zM1618 551q43 0 69.5 19.5t26.5 50.5q0 32 -26.5 51.5t-69.5 19.5
q-42 0 -68 -19.5t-26 -51.5t26 -51t68 -19zM1618 184q55 0 87 23t32 61t-32 61t-87 23t-88 -23t-33 -61t33.5 -61t87.5 -23z" />
    <glyph glyph-name="seveneighths" unicode="&#x215e;" horiz-adv-x="1777" 
d="M395 573h-235q-1 133 24 228.5t84 183.5l164 248h-391v201h649v-183l-211 -311q-45 -65 -64.5 -150t-19.5 -217zM1436 1434l-1041 -1434h-295l1041 1434h295zM1382 -10q-150 0 -245 77t-95 193q0 133 129 203q-88 70 -88 170q0 103 84 170t215 67t215 -67t84 -170
q0 -102 -90 -170q129 -65 129 -203q0 -116 -95 -193t-243 -77zM1382 551q43 0 70 19.5t27 50.5q0 32 -27 51.5t-70 19.5q-42 0 -68 -19.5t-26 -51.5t26 -51t68 -19zM1382 184q55 0 87 23t32 61t-32 61t-87 23t-87.5 -23t-32.5 -61t33 -61t87 -23z" />
    <glyph glyph-name="arrowleft" unicode="&#x2190;" horiz-adv-x="1495" 
d="M553 696h881v-286h-881l303 -306l-174 -174l-621 623l623 623l174 -175z" />
    <glyph glyph-name="arrowup" unicode="&#x2191;" horiz-adv-x="1368" 
d="M684 1331l623 -620l-174 -174l-306 303v-881h-286v881l-305 -305l-175 174z" />
    <glyph glyph-name="arrowright" unicode="&#x2192;" horiz-adv-x="1495" 
d="M637 1001l174 175l623 -623l-621 -623l-174 174l303 306h-881v286h881z" />
    <glyph glyph-name="arrowdown" unicode="&#x2193;" horiz-adv-x="1368" 
d="M827 475l306 305l174 -174l-623 -622l-623 620l175 174l305 -303v881h286v-881z" />
    <glyph glyph-name="uni2196" unicode="&#x2196;" horiz-adv-x="1245" 
d="M561 770l623 -623l-203 -202l-623 622l-2 -430h-245l2 879h880v-246h-432z" />
    <glyph glyph-name="uni2197" unicode="&#x2197;" horiz-adv-x="1245" 
d="M1133 1016l2 -879h-246l-2 430l-623 -622l-203 202l623 623h-432v246h881z" />
    <glyph glyph-name="uni2198" unicode="&#x2198;" horiz-adv-x="1243" 
d="M887 432v432h246v-880l-879 -2v245l430 2l-623 623l203 203z" />
    <glyph glyph-name="uni2199" unicode="&#x2199;" horiz-adv-x="1243" 
d="M979 1055l203 -203l-623 -623l430 -2v-245l-878 2v880h245v-432z" />
    <glyph glyph-name="partialdiff" unicode="&#x2202;" horiz-adv-x="1273" 
d="M647 -16q-147 0 -270.5 65t-194.5 179t-71 251q0 211 134 351.5t353 140.5q79 0 162.5 -38.5t124.5 -96.5q-5 105 -49 189.5t-112 132t-148.5 66t-165 -3t-154.5 -79.5l-158 231q67 60 152 95.5t175 44.5t184.5 -9.5t181.5 -60.5t164 -114.5t134 -166.5t90 -221.5
t33 -273.5q0 -148 -35.5 -271t-104.5 -215.5t-177.5 -144t-247.5 -51.5zM645 274q103 0 164 55.5t61 149.5q0 91 -61.5 146t-163.5 55q-101 0 -161.5 -55t-59.5 -146q-1 -93 59 -149t162 -56z" />
    <glyph glyph-name="uni2206" unicode="&#x2206;" horiz-adv-x="1409" 
d="M1319 0h-1229v248l440 1186h349l440 -1186v-248zM600 664l-125 -373h461l-127 373q-28 84 -53.5 171.5t-37.5 132.5l-11 46q-44 -160 -107 -350z" />
    <glyph glyph-name="product" unicode="&#x220f;" horiz-adv-x="1447" 
d="M500 0h-375v1434h1198v-1434h-373v1122h-450v-1122z" />
    <glyph glyph-name="summation" unicode="&#x2211;" horiz-adv-x="1138" 
d="M1057 0h-985v291l403 426l-403 426v291h985v-312h-535l283 -270v-270l-285 -271h537v-311z" />
    <glyph glyph-name="minus" unicode="&#x2212;" horiz-adv-x="1372" 
d="M1249 506h-1126v287h1126v-287z" />
    <glyph glyph-name="radical" unicode="&#x221a;" horiz-adv-x="1259" 
d="M780 0h-313l-186 512h-240v311h455l129 -364l295 975h331z" />
    <glyph glyph-name="infinity" unicode="&#x221e;" horiz-adv-x="1843" 
d="M496 332q-195 0 -309.5 113t-114.5 290t114.5 290.5t309.5 113.5q121 0 237 -47.5t189 -147.5q73 100 188.5 147.5t237.5 47.5q194 0 309 -113.5t115 -290.5t-115 -290t-309 -113q-123 0 -238 47t-188 147q-73 -100 -188.5 -147t-237.5 -47zM530 602q58 0 116.5 34.5
t105.5 98.5q-47 64 -105.5 98.5t-116.5 34.5q-74 0 -116.5 -35t-42.5 -98t42.5 -98t116.5 -35zM1313 602q74 0 115.5 35t41.5 98t-41.5 98t-115.5 35q-59 0 -117.5 -34.5t-103.5 -98.5q45 -64 103.5 -98.5t117.5 -34.5z" />
    <glyph glyph-name="integral" unicode="&#x222b;" horiz-adv-x="903" 
d="M645 1491h207v-279h-156q-57 0 -92 -31t-35 -83v-1143q0 -167 -113.5 -270t-299.5 -103h-207v279h155q57 0 92 31t35 83v1143q0 167 114 270t300 103z" />
    <glyph glyph-name="approxequal" unicode="&#x2248;" horiz-adv-x="1482" 
d="M946 739q-65 0 -125.5 22t-98 48t-82 48t-81.5 22q-103 0 -119 -152h-317q6 214 126 347.5t296 133.5q55 0 105 -14.5t86 -35t68.5 -40.5t64.5 -34.5t61 -14.5q94 0 112 152h318q-9 -220 -127 -351t-287 -131zM946 147q-65 0 -125.5 22t-98 48t-82 48t-81.5 22
q-103 0 -119 -152h-317q6 214 126 347.5t296 133.5q55 0 105 -14.5t86 -35t68.5 -40.5t64.5 -34.5t61 -14.5q94 0 112 152h318q-9 -220 -127 -351t-287 -131z" />
    <glyph glyph-name="notequal" unicode="&#x2260;" horiz-adv-x="1376" 
d="M1249 981v-287h-379l-69 -172h448v-286h-567l-98 -242h-295l98 242h-264v286h383l69 172h-452v287h571l99 240h294l-98 -240h260z" />
    <glyph glyph-name="lessequal" unicode="&#x2264;" horiz-adv-x="1036" 
d="M963 655v-344l-875 439v270l875 438v-344l-492 -229zM965 287v-287h-902v287h902z" />
    <glyph glyph-name="greaterequal" unicode="&#x2265;" horiz-adv-x="1036" 
d="M948 750l-874 -439v344l491 230l-491 229v344l874 -438v-270zM973 0h-901v287h901v-287z" />
    <glyph glyph-name="lozenge" unicode="&#x25ca;" horiz-adv-x="1247" 
d="M772 0h-297l-391 717l391 717h297l391 -717zM397 717l226 -434l225 434l-225 434z" />
    <glyph glyph-name="uni25CF" unicode="&#x25cf;" horiz-adv-x="1589" 
d="M61 717q0 150 58 285.5t156.5 233.5t234 156t285.5 58q200 0 368.5 -98t266.5 -266.5t98 -368.5q0 -201 -98 -369.5t-266.5 -266t-368.5 -97.5q-150 0 -285.5 57.5t-234 155.5t-156.5 234t-58 286z" />
    <glyph glyph-name="uniF8FF" unicode="&#xf8ff;" horiz-adv-x="1712" 
d="M455 -16q-137 0 -234.5 97.5t-97.5 233.5q0 138 98 237t234 99h67v129h-67q-136 0 -234 99t-98 237q0 136 98.5 235t233.5 99q137 0 236.5 -99t99.5 -235v-67h129v67q0 136 99 235t236 99t235.5 -99t98.5 -235q0 -137 -99 -236.5t-235 -99.5h-67v-129h67q136 0 235 -99.5
t99 -236.5q0 -135 -99 -233t-235 -98q-138 0 -236.5 97.5t-98.5 233.5v68h-129v-68q0 -136 -99 -233.5t-237 -97.5zM455 1049h67v67q0 26 -20 46t-47 20q-26 0 -45 -20t-19 -46q0 -28 19 -47.5t45 -19.5zM1188 1116v-67h67q27 0 46.5 19.5t19.5 47.5q0 26 -20 46t-46 20
q-27 0 -47 -20t-20 -46zM791 780v-129h129v129h-129zM455 252q29 0 48 18t19 45v68h-67q-27 0 -45.5 -19.5t-18.5 -48.5q0 -26 19 -44.5t45 -18.5zM1255 252q27 0 46.5 18.5t19.5 44.5q0 28 -20 48t-46 20h-67v-68q0 -26 19.5 -44.5t47.5 -18.5z" />
    <glyph glyph-name="i.loclTRK" horiz-adv-x="522" 
d="M86 1159v332h352v-332h-352zM430 0h-338v1032h338v-1032z" />
    <glyph glyph-name="germandbls.calt" horiz-adv-x="1314" 
d="M481 0h-358v961q0 220 155.5 354.5t399.5 134.5q147 0 268 -57.5t192.5 -165.5t71.5 -246l-237 -162q81 -21 137.5 -58.5t87.5 -89t44 -109.5t13 -130q0 -204 -146.5 -318t-381.5 -114h-137v311h110q113 0 164 36t51 108q0 73 -51.5 110t-163.5 37h-110v217l268 213
q-6 60 -55 97.5t-125 37.5q-89 0 -143 -60.5t-54 -160.5v-946z" />
    <glyph glyph-name="T_T.dlig" horiz-adv-x="2078" 
d="M2066 1434v-312h-409v-1122h-365v1122h-506v-1122h-364v1122h-410v312h2054z" />
    <glyph glyph-name="T_h.dlig" horiz-adv-x="2301" 
d="M1827 1049q171 0 277 -113t106 -287v-649h-338v569q0 77 -49 129t-125 52t-125 -52t-49 -129v-569h-338v1122h-400v-1122h-364v1122h-410v312h1512v-521q46 62 125.5 99t177.5 37z" />
    <glyph glyph-name="uni0414.loclBGR" horiz-adv-x="1509" 
d="M930 1434l409 -1123h156v-688h-354v377h-772v-377h-355v688h158l410 1123h348zM655 688l-118 -377h440l-121 377q-27 84 -51.5 171.5t-35.5 132.5l-11 46q-42 -160 -103 -350z" />
    <glyph glyph-name="uni041B.loclBGR" horiz-adv-x="1433" 
d="M387 0h-379l535 1434h348l534 -1434h-376l-224 645q-29 84 -55.5 171t-38.5 132l-12 45q-46 -160 -109 -348z" />
    <glyph glyph-name="uni0424.loclBGR" horiz-adv-x="1652" 
d="M1591 717q0 -252 -159 -415.5t-437 -201.5v-161h-338v163q-277 39 -436.5 201t-159.5 414t159.5 413.5t436.5 200.5v164h338v-162q278 -38 437 -201t159 -415zM995 1042v-651q117 33 180.5 116t63.5 210t-63.5 209.5t-180.5 115.5zM414 717q0 -127 63 -209.5t180 -116.5
v651q-117 -34 -180 -116t-63 -209z" />
    <glyph glyph-name="uni0432.loclBGR" horiz-adv-x="1189" 
d="M897 823q105 -39 171.5 -128.5t66.5 -233.5q0 -218 -142.5 -347.5t-376.5 -129.5q-246 0 -385 121.5t-139 351.5v540q0 235 141.5 373.5t356.5 138.5q201 0 331 -109.5t130 -291.5q0 -92 -41.5 -166.5t-112.5 -118.5zM590 1233q-79 0 -119.5 -53t-40.5 -154v-123h145
q79 0 117.5 46.5t38.5 121.5q0 74 -37.5 118t-103.5 44zM616 270q83 0 133 49t50 136q0 80 -52 129t-137 49h-180v-164q0 -93 50.5 -146t135.5 -53z" />
    <glyph glyph-name="uni0433.loclBGR" horiz-adv-x="933" 
d="M455 -16q-187 0 -299.5 91.5t-112.5 243.5q0 79 23 137.5t61 91t86 54.5t98.5 30.5t99 17.5t86.5 17t61.5 26.5t23.5 47.5q0 36 -29 58t-78 22q-54 0 -92 -32.5t-45 -86.5h-287q9 156 127.5 251.5t302.5 95.5q175 0 285.5 -88t110.5 -230q0 -75 -23.5 -131t-61.5 -87.5
t-86.5 -54t-99 -32t-98.5 -20.5t-86 -21t-61 -31t-23 -53q0 -31 33.5 -50.5t91.5 -19.5q61 0 104 34t49 89h285q-8 -170 -126 -270t-320 -100z" />
    <glyph glyph-name="uni0434.loclBGR" horiz-adv-x="1247" 
d="M799 946v86h338v-1005q0 -202 -145.5 -323.5t-387.5 -121.5q-246 0 -390 106.5t-144 297.5h336q0 -62 52.5 -93.5t145.5 -31.5q88 0 142.5 46.5t54.5 119.5v149q-76 -110 -258 -110q-220 0 -352 134t-132 357t130.5 357.5t347.5 134.5q181 0 262 -103zM602 350
q94 0 154.5 59t60.5 148t-60.5 147t-154.5 58q-92 0 -152.5 -58t-60.5 -147t60.5 -148t152.5 -59z" />
    <glyph glyph-name="uni0436.loclBGR" horiz-adv-x="1748" 
d="M1722 0h-393l-205 371h-80v-371h-339v371h-80l-205 -371h-393l348 547l-113 143q-32 43 -58.5 56.5t-76.5 13.5h-61v272h192q55 0 108 -25t83 -67l192 -274h64v825h339v-825h64l192 274q30 42 83 67t108 25h190v-272h-59q-52 0 -76.5 -13t-58.5 -57l-113 -143z" />
    <glyph glyph-name="uni0437.loclBGR" horiz-adv-x="1034" 
d="M791 371q109 -40 167 -131.5t58 -206.5q0 -204 -143 -327.5t-369 -123.5q-221 0 -356 111.5t-138 294.5h320q8 -53 57 -86t125 -33q79 0 126.5 45t47.5 125q0 65 -50 106t-134 41h-109v279h88q79 0 117.5 44.5t38.5 108.5q0 63 -39 103.5t-96 40.5q-61 0 -100.5 -35.5
t-55.5 -97.5h-313q0 75 32 148.5t90.5 134.5t152 99t206.5 38q196 0 319 -108t123 -273q0 -101 -42 -179t-123 -118z" />
    <glyph glyph-name="uni0438.loclBGR" 
d="M778 1032h338v-1032h-338v119q-46 -62 -125 -98.5t-178 -36.5q-171 0 -277 112.5t-106 286.5v649h338v-569q0 -77 49 -128.5t125 -51.5t125 51.5t49 128.5v569z" />
    <glyph glyph-name="uni0439.loclBGR" 
d="M608 1133q-163 0 -254.5 84t-91.5 217h256q0 -101 90 -101q92 0 92 101h256q0 -133 -92 -217t-256 -84zM778 1032h338v-1032h-338v119q-46 -62 -125 -98.5t-178 -36.5q-171 0 -277 112.5t-106 286.5v649h338v-569q0 -77 49 -128.5t125 -51.5t125 51.5t49 128.5v569z" />
    <glyph glyph-name="uni045D.loclBGR" 
d="M682 1450l127 -303h-277l-202 303h352zM778 1032h338v-1032h-338v119q-46 -62 -125 -98.5t-178 -36.5q-171 0 -277 112.5t-106 286.5v649h338v-569q0 -77 49 -128.5t125 -51.5t125 51.5t49 128.5v569z" />
    <glyph glyph-name="uni043A.loclBGR" horiz-adv-x="1191" 
d="M1165 0h-401l-236 375h-96v-375h-340v1491h340v-821h76l211 270q32 41 84 66.5t106 25.5h199v-272h-68q-36 0 -53 -2.5t-42 -18t-52 -49.5l-107 -129z" />
    <glyph glyph-name="uni043B.loclBGR" horiz-adv-x="1064" 
d="M332 0h-350l401 1032h299l401 -1032h-352l-98 305q-27 84 -51.5 171.5t-35.5 133.5l-11 45q-42 -160 -105 -350z" />
    <glyph glyph-name="uni043F.loclBGR" 
d="M430 0h-338v1032h338v-119q46 62 125.5 99t177.5 37q171 0 277 -113t106 -287v-649h-338v569q0 77 -49 129t-125 52t-125 -52t-49 -129v-569z" />
    <glyph glyph-name="uni0442.loclBGR" horiz-adv-x="1837" 
d="M430 0h-338v1032h338v-123q104 140 285 140q210 0 295 -175q45 74 139 124.5t221 50.5q164 0 269.5 -108t105.5 -255v-686h-338v578q0 86 -44 137t-116 51t-116 -51t-44 -137v-578h-337v578q0 86 -44 137t-116 51t-116 -51t-44 -137v-578z" />
    <glyph glyph-name="uni0446.loclBGR" horiz-adv-x="1302" 
d="M1276 -356h-328v356q-65 3 -108 36.5t-56 94.5q-45 -70 -124.5 -108.5t-184.5 -38.5q-171 0 -277 112.5t-106 286.5v649h338v-569q0 -77 49 -128.5t125 -51.5t125 51.5t49 128.5v569h338v-649q0 -55 28 -82t95 -27h37v-630z" />
    <glyph glyph-name="uni0448.loclBGR" horiz-adv-x="1837" 
d="M1407 1032h338v-1032h-338v123q-103 -139 -285 -139q-210 0 -295 174q-45 -74 -139 -124t-221 -50q-164 0 -269.5 107.5t-105.5 254.5v686h338v-577q0 -86 44 -137.5t116 -51.5t116 51.5t44 137.5v577h337v-577q0 -86 44 -137.5t116 -51.5t116 51.5t44 137.5v577z" />
    <glyph glyph-name="uni0449.loclBGR" horiz-adv-x="1931" 
d="M1892 -356h-315l-10 356q-58 3 -99.5 37t-54.5 94q-102 -147 -291 -147q-212 0 -297 174q-45 -74 -139 -124t-219 -50q-164 0 -269.5 107.5t-105.5 254.5v686h338v-577q0 -86 44 -137.5t116 -51.5t116 51.5t44 137.5v577h337v-577q0 -86 44 -137.5t116 -51.5t116 51.5
t44 137.5v577h338v-649q0 -55 28 -82t95 -27h37z" />
    <glyph glyph-name="uni044C.loclBGR" horiz-adv-x="1136" 
d="M430 752h211q224 0 338.5 -94.5t114.5 -274.5q0 -186 -114.5 -284.5t-338.5 -98.5h-549v1032h338v-280zM430 264h168q160 0 160 119q0 54 -42 84.5t-118 30.5h-168v-234z" />
    <glyph glyph-name="uni044A.loclBGR" horiz-adv-x="1378" 
d="M705 752h184q220 0 333 -94.5t113 -274.5q0 -186 -113 -284.5t-333 -98.5h-522v745h-312v287h650v-280zM705 264h141q73 0 113 30t40 89q0 54 -40.5 84.5t-112.5 30.5h-141v-234z" />
    <glyph glyph-name="uni044E.loclBGR" horiz-adv-x="1656" 
d="M1094 1049q233 0 377.5 -150.5t144.5 -382.5t-144.5 -382t-377.5 -150q-198 0 -332.5 109.5t-173.5 289.5h-158v-383h-338v1491h338v-813h164q45 169 178 270t322 101zM1094 270q84 0 134 65t50 181t-50 181t-134 65q-83 0 -133 -65.5t-50 -180.5t50 -180.5t133 -65.5z
" />
    <glyph glyph-name="uni0431.loclSRB" horiz-adv-x="1146" 
d="M655 1034q89 -40 153.5 -76.5t123.5 -84.5t95.5 -102t57.5 -124.5t21 -154.5q0 -121 -41 -218t-113 -160t-168.5 -96.5t-210.5 -33.5q-234 0 -383 129.5t-149 337.5q0 151 84.5 259t239.5 144q-244 107 -244 326q0 152 111 238.5t309 86.5h460v-276h-485q-70 0 -70 -53
q0 -34 37 -58t172 -84zM573 270q86 0 140.5 51t54.5 146t-54.5 146t-140.5 51q-85 0 -139.5 -51t-54.5 -146t54.5 -146t139.5 -51z" />
    <glyph glyph-name="uni0433.loclSRB" horiz-adv-x="894" 
d="M840 1032v-295h-410v-737h-338v1032h748z" />
    <glyph glyph-name="uni0434.loclSRB" horiz-adv-x="1294" 
d="M1137 1032v-751h131v-637h-328v356h-578v-356h-327v637h43q88 3 119.5 33.5t42.5 111.5l88 606h809zM596 750l-39 -375q-6 -54 -18 -94h270v469h-213z" />
    <glyph glyph-name="uni043F.loclSRB" horiz-adv-x="1193" 
d="M1102 1032v-1032h-338v737h-334v-737h-338v1032h1010z" />
    <glyph glyph-name="uni0442.loclSRB" horiz-adv-x="1050" 
d="M995 1032v-295h-301v-737h-338v737h-301v295h940z" />
    <glyph glyph-name="uni0448.loclSRB" horiz-adv-x="1693" 
d="M1276 295v737h326v-1032h-1510v1032h326v-737h268v737h322v-737h268z" />
    <glyph glyph-name="zero.inferior" horiz-adv-x="831" 
d="M444 -10h-57q-167 0 -254.5 109t-87.5 309v45q0 200 87.5 308.5t254.5 108.5h57q166 0 254 -109t88 -308v-45q0 -200 -88 -309t-254 -109zM401 190h29q46 0 83.5 36.5t37.5 99.5v211q0 62 -37.5 97.5t-83.5 35.5h-29q-46 0 -82 -35.5t-36 -97.5v-211q0 -63 36 -99.5
t82 -36.5z" />
    <glyph glyph-name="one.inferior" horiz-adv-x="542" 
d="M231 860h220v-860h-236v571q-12 -18 -55 -29.5t-78 -11.5h-49v201h51q63 0 98.5 28.5t48.5 100.5z" />
    <glyph glyph-name="two.inferior" horiz-adv-x="737" 
d="M274 537h-235q0 156 89.5 244.5t242.5 88.5q147 0 237 -76.5t90 -203.5q0 -87 -49.5 -151.5t-159.5 -123.5l-79 -43q-87 -47 -95 -71h377v-201h-639l-2 162q-1 87 57.5 153t133.5 103l143 69q33 16 55.5 45t22.5 62q0 42 -25 66t-67 24q-48 0 -74.5 -39.5t-22.5 -107.5z
" />
    <glyph glyph-name="three.inferior" horiz-adv-x="780" 
d="M389 -10q-143 0 -238.5 75t-95.5 209h226q0 -44 31 -64t77 -20q47 0 75 22t28 58q0 34 -29 56t-74 22h-88v187h82q36 0 58 21t22 56q0 32 -25.5 52t-64.5 20q-36 0 -64.5 -22.5t-27.5 -61.5h-209q-1 117 89 193.5t218 76.5q129 0 219 -71t90 -168q0 -46 -24 -94t-64 -80
q61 -35 93 -81t32 -114q0 -121 -98 -196.5t-238 -75.5z" />
    <glyph glyph-name="four.inferior" horiz-adv-x="819" 
d="M686 0h-235v141h-414v199l405 520h244v-520h78v-199h-78v-141zM451 565l-187 -225h187v225z" />
    <glyph glyph-name="five.inferior" horiz-adv-x="745" 
d="M373 -10q-124 0 -217.5 86t-96.5 190h199q6 -36 39 -60t78 -24q49 0 78.5 30t29.5 75q0 46 -31.5 76t-82.5 30q-58 0 -97 -45h-198l73 512h498v-201h-323l-21 -108q49 18 105 18q127 0 209.5 -80t82.5 -202q0 -130 -92.5 -213.5t-232.5 -83.5z" />
    <glyph glyph-name="six.inferior" horiz-adv-x="808" 
d="M440 575q133 0 215 -83.5t82 -206.5t-96.5 -209t-234.5 -86q-114 0 -194.5 59.5t-117.5 154t-37 212.5q0 208 98 331t265 123q140 0 231.5 -76.5t100.5 -187.5h-203q-6 34 -41.5 57t-81.5 23q-69 0 -112 -52.5t-46 -129.5q27 31 77 51t95 20zM408 174q59 0 93 29.5
t34 81.5q0 48 -34.5 77t-92.5 29t-92.5 -29t-34.5 -77q0 -52 34 -81.5t93 -29.5z" />
    <glyph glyph-name="seven.inferior" horiz-adv-x="653" 
d="M395 0h-235q-1 133 24 228.5t84 183.5l164 247h-391v201h649v-182l-211 -311q-45 -65 -64.5 -150t-19.5 -217z" />
    <glyph glyph-name="eight.inferior" horiz-adv-x="792" 
d="M397 -10q-150 0 -245 77t-95 193q0 133 129 203q-88 70 -88 170q0 103 84 170t215 67t215 -67t84 -170q0 -102 -90 -170q129 -65 129 -203q0 -116 -95 -193t-243 -77zM397 551q43 0 70 19.5t27 50.5q0 32 -27 51.5t-70 19.5q-42 0 -68 -19.5t-26 -51.5t26 -51t68 -19z
M397 184q55 0 87 23t32 61t-32 61t-87 23t-88 -23t-33 -61t33.5 -61t87.5 -23z" />
    <glyph glyph-name="nine.inferior" horiz-adv-x="808" 
d="M369 285q-133 0 -215 83.5t-82 206.5t96.5 209t234.5 86q114 0 194.5 -59.5t117.5 -154t37 -212.5q0 -208 -98 -331t-265 -123q-140 0 -231.5 76.5t-100.5 187.5h203q6 -34 41.5 -57t81.5 -23q69 0 112 52.5t46 129.5q-27 -31 -77 -51t-95 -20zM401 686q-59 0 -93 -29.5
t-34 -81.5q0 -48 34.5 -77t92.5 -29t92.5 29t34.5 77q0 52 -34 81.5t-93 29.5z" />
    <glyph glyph-name="zero.tf" horiz-adv-x="1392" 
d="M743 -16h-90q-251 0 -401 182.5t-150 488.5v123q0 306 150 489t401 183h90q252 0 402.5 -183t150.5 -489v-123q0 -306 -150.5 -488.5t-402.5 -182.5zM678 295h43q91 0 150 79t59 199v287q0 120 -59 199.5t-150 79.5h-43q-91 0 -150 -79.5t-59 -199.5v-287q0 -120 59 -199
t150 -79z" />
    <glyph glyph-name="one.tf" horiz-adv-x="1392" 
d="M909 1434v-1123h260v-311h-944v311h320v662q-20 -28 -87.5 -45t-123.5 -17h-88v312h88q103 0 159 47t74 164h342z" />
    <glyph glyph-name="two.tf" horiz-adv-x="1392" 
d="M522 905h-364q0 254 145.5 399.5t394.5 145.5q242 0 389.5 -126t147.5 -335q0 -291 -346 -465l-236 -118q-4 -2 -17 -9t-18 -9.5t-17 -9t-17 -10.5t-14 -10t-13 -11t-9 -11t-7 -12.5t-2 -12.5h688v-311h-1051l-2 272q-1 73 29 142t80 121t100.5 89t103.5 62l240 117
q65 31 104 78.5t39 107.5q0 79 -44 124.5t-128 45.5q-88 0 -133 -68.5t-43 -185.5z" />
    <glyph glyph-name="three.tf" horiz-adv-x="1392" 
d="M682 -16q-154 0 -277.5 53.5t-198.5 162t-75 255.5h350q0 -81 57 -120.5t144 -39.5q88 0 140 40.5t52 108.5q0 66 -52 106t-140 40h-145v293h137q66 0 107.5 36t41.5 93t-46 92t-120 35q-77 0 -124 -37.5t-46 -118.5h-344q0 87 29 162.5t79.5 130.5t117 95t142.5 59.5
t155 19.5q141 0 258.5 -54.5t183.5 -145t66 -195.5q0 -95 -41.5 -174t-114.5 -123q101 -40 158 -126.5t57 -197.5q0 -135 -76.5 -239t-201 -157.5t-273.5 -53.5z" />
    <glyph glyph-name="four.tf" horiz-adv-x="1392" 
d="M1147 0h-367v250h-698v311l682 873h383v-873h143v-311h-143v-250zM782 979l-346 -418h346v418z" />
    <glyph glyph-name="five.tf" horiz-adv-x="1392" 
d="M692 -16q-218 0 -368.5 131t-155.5 323h342q11 -68 58 -105.5t124 -37.5q86 0 139.5 51.5t53.5 136.5t-53 138t-138 53q-63 0 -105 -20.5t-75 -65.5h-324l123 846h842v-312h-571l-37 -213q81 62 227 62q200 0 337.5 -142.5t137.5 -345.5q0 -140 -74 -255t-201.5 -179.5
t-281.5 -64.5z" />
    <glyph glyph-name="six.tf" horiz-adv-x="1392" 
d="M754 956q148 0 262.5 -64.5t174.5 -174t60 -244.5q0 -134 -73.5 -246.5t-200 -177.5t-275.5 -65q-142 0 -254 56t-182 153t-106.5 223.5t-36.5 273.5q0 348 161.5 554t436.5 206q158 0 282 -60.5t192.5 -158t80.5 -215.5h-332q-11 57 -69.5 97t-139.5 40
q-115 0 -189.5 -89t-82.5 -230q42 52 127 87t164 35zM711 295q81 0 128.5 49t47.5 129q0 78 -47.5 126t-128.5 48q-83 0 -133 -48.5t-50 -125.5q0 -80 50 -129t133 -49z" />
    <glyph glyph-name="seven.tf" horiz-adv-x="1392" 
d="M741 0h-364q0 215 43.5 374.5t146.5 317.5l279 430h-676v312h1077v-283l-356 -537q-82 -120 -116 -260.5t-34 -353.5z" />
    <glyph glyph-name="eight.tf" horiz-adv-x="1392" 
d="M680 -16q-245 0 -402 126t-157 322q0 115 59.5 200.5t161.5 139.5q-71 54 -112.5 128.5t-41.5 156.5q0 172 138 282.5t354 110.5q217 0 355.5 -110.5t138.5 -282.5q0 -83 -42.5 -157t-117.5 -128q223 -109 223 -340q0 -197 -156.5 -322.5t-400.5 -125.5zM680 915
q74 0 119 33t45 90t-45 91t-119 34t-118 -34t-44 -91t44 -90t118 -33zM680 293q95 0 149 40t54 109t-54 109.5t-149 40.5q-94 0 -150.5 -40.5t-56.5 -109.5t56.5 -109t150.5 -40z" />
    <glyph glyph-name="nine.tf" horiz-adv-x="1392" 
d="M641 477q-148 0 -262.5 65t-175 174.5t-60.5 244.5q0 134 73.5 246.5t200 177.5t275.5 65q142 0 254 -56t182.5 -153.5t107 -224t36.5 -273.5q0 -348 -161.5 -553.5t-436.5 -205.5q-158 0 -282 60.5t-192.5 158t-80.5 215.5h332q11 -57 69 -97t139 -40q115 0 190 89
t83 230q-42 -52 -127 -87.5t-164 -35.5zM684 1139q-81 0 -128.5 -49t-47.5 -129q0 -78 47.5 -126.5t128.5 -48.5q82 0 132 49t50 126q0 80 -49.5 129t-132.5 49z" />
    <glyph glyph-name="zero.dnom" horiz-adv-x="831" 
d="M444 -10h-57q-167 0 -254.5 109t-87.5 309v45q0 200 87.5 308.5t254.5 108.5h57q166 0 254 -109t88 -308v-45q0 -200 -88 -309t-254 -109zM401 190h29q46 0 83.5 36.5t37.5 99.5v211q0 62 -37.5 97.5t-83.5 35.5h-29q-46 0 -82 -35.5t-36 -97.5v-211q0 -63 36 -99.5
t82 -36.5z" />
    <glyph glyph-name="one.dnom" horiz-adv-x="542" 
d="M231 860h220v-860h-236v571q-12 -18 -55 -29.5t-78 -11.5h-49v201h51q63 0 98.5 28.5t48.5 100.5z" />
    <glyph glyph-name="two.dnom" horiz-adv-x="737" 
d="M274 537h-235q0 156 89.5 244.5t242.5 88.5q147 0 237 -76.5t90 -203.5q0 -87 -49.5 -151.5t-159.5 -123.5l-79 -43q-87 -47 -95 -71h377v-201h-639l-2 162q-1 87 57.5 153t133.5 103l143 69q33 16 55.5 45t22.5 62q0 42 -25 66t-67 24q-48 0 -74.5 -39.5t-22.5 -107.5z
" />
    <glyph glyph-name="three.dnom" horiz-adv-x="780" 
d="M389 -10q-143 0 -238.5 75t-95.5 209h226q0 -44 31 -64t77 -20q47 0 75 22t28 58q0 34 -29 56t-74 22h-88v187h82q36 0 58 21t22 56q0 32 -25.5 52t-64.5 20q-36 0 -64.5 -22.5t-27.5 -61.5h-209q-1 117 89 193.5t218 76.5q129 0 219 -71t90 -168q0 -46 -24 -94t-64 -80
q61 -35 93 -81t32 -114q0 -121 -98 -196.5t-238 -75.5z" />
    <glyph glyph-name="four.dnom" horiz-adv-x="819" 
d="M686 0h-235v141h-414v199l405 520h244v-520h78v-199h-78v-141zM451 565l-187 -225h187v225z" />
    <glyph glyph-name="five.dnom" horiz-adv-x="745" 
d="M373 -10q-124 0 -217.5 86t-96.5 190h199q6 -36 39 -60t78 -24q49 0 78.5 30t29.5 75q0 46 -31.5 76t-82.5 30q-58 0 -97 -45h-198l73 512h498v-201h-323l-21 -108q49 18 105 18q127 0 209.5 -80t82.5 -202q0 -130 -92.5 -213.5t-232.5 -83.5z" />
    <glyph glyph-name="six.dnom" horiz-adv-x="808" 
d="M440 575q133 0 215 -83.5t82 -206.5t-96.5 -209t-234.5 -86q-114 0 -194.5 59.5t-117.5 154t-37 212.5q0 208 98 331t265 123q140 0 231.5 -76.5t100.5 -187.5h-203q-6 34 -41.5 57t-81.5 23q-69 0 -112 -52.5t-46 -129.5q27 31 77 51t95 20zM408 174q59 0 93 29.5
t34 81.5q0 48 -34.5 77t-92.5 29t-92.5 -29t-34.5 -77q0 -52 34 -81.5t93 -29.5z" />
    <glyph glyph-name="seven.dnom" horiz-adv-x="653" 
d="M395 0h-235q-1 133 24 228.5t84 183.5l164 247h-391v201h649v-182l-211 -311q-45 -65 -64.5 -150t-19.5 -217z" />
    <glyph glyph-name="eight.dnom" horiz-adv-x="792" 
d="M397 -10q-150 0 -245 77t-95 193q0 133 129 203q-88 70 -88 170q0 103 84 170t215 67t215 -67t84 -170q0 -102 -90 -170q129 -65 129 -203q0 -116 -95 -193t-243 -77zM397 551q43 0 70 19.5t27 50.5q0 32 -27 51.5t-70 19.5q-42 0 -68 -19.5t-26 -51.5t26 -51t68 -19z
M397 184q55 0 87 23t32 61t-32 61t-87 23t-88 -23t-33 -61t33.5 -61t87.5 -23z" />
    <glyph glyph-name="nine.dnom" horiz-adv-x="808" 
d="M369 285q-133 0 -215 83.5t-82 206.5t96.5 209t234.5 86q114 0 194.5 -59.5t117.5 -154t37 -212.5q0 -208 -98 -331t-265 -123q-140 0 -231.5 76.5t-100.5 187.5h203q6 -34 41.5 -57t81.5 -23q69 0 112 52.5t46 129.5q-27 -31 -77 -51t-95 -20zM401 686q-59 0 -93 -29.5
t-34 -81.5q0 -48 34.5 -77t92.5 -29t92.5 29t34.5 77q0 52 -34 81.5t-93 29.5z" />
    <glyph glyph-name="zero.numr" horiz-adv-x="831" 
d="M444 563h-57q-167 0 -254.5 109t-87.5 309v45q0 200 87.5 309t254.5 109h57q166 0 254 -109t88 -309v-45q0 -200 -88 -309t-254 -109zM401 764h29q46 0 83.5 36t37.5 99v211q0 62 -37.5 97.5t-83.5 35.5h-29q-46 0 -82 -35.5t-36 -97.5v-211q0 -63 36 -99t82 -36z" />
    <glyph glyph-name="one.numr" horiz-adv-x="542" 
d="M231 1434h220v-861h-236v572q-12 -18 -55 -29.5t-78 -11.5h-49v201h51q63 0 98.5 28.5t48.5 100.5z" />
    <glyph glyph-name="two.numr" horiz-adv-x="737" 
d="M274 1110h-235q0 156 89.5 245t242.5 89q147 0 237 -77t90 -204q0 -87 -49.5 -151t-159.5 -123l-79 -43q-87 -47 -95 -72h377v-201h-639l-2 162q-1 87 57.5 153t133.5 103l143 70q34 16 56 44.5t22 61.5q0 42 -25 66t-67 24q-48 0 -74.5 -39.5t-22.5 -107.5z" />
    <glyph glyph-name="three.numr" horiz-adv-x="780" 
d="M389 563q-143 0 -238.5 75.5t-95.5 209.5h226q0 -44 31 -64t77 -20q47 0 75 22t28 58q0 34 -29 56t-74 22h-88v186h82q35 0 57.5 21.5t22.5 56.5q0 32 -25.5 51.5t-64.5 19.5q-36 0 -64.5 -22.5t-27.5 -60.5h-209q-1 117 89 193.5t218 76.5q129 0 219 -71.5t90 -168.5
q0 -46 -24 -94t-64 -80q61 -35 93 -80.5t32 -113.5q0 -121 -98.5 -197t-237.5 -76z" />
    <glyph glyph-name="four.numr" horiz-adv-x="819" 
d="M686 573h-235v142h-414v198l405 521h244v-521h78v-198h-78v-142zM451 1139l-187 -226h187v226z" />
    <glyph glyph-name="five.numr" horiz-adv-x="745" 
d="M373 563q-124 0 -217.5 86t-96.5 191h199q6 -36 39 -60t78 -24q49 0 78.5 29.5t29.5 74.5q0 46 -32 76.5t-82 30.5q-58 0 -97 -45h-198l73 512h498v-201h-323l-21 -109q51 19 105 19q127 0 209.5 -80.5t82.5 -202.5q0 -130 -92.5 -213.5t-232.5 -83.5z" />
    <glyph glyph-name="six.numr" horiz-adv-x="808" 
d="M440 1149q133 0 215 -84t82 -207t-96.5 -209t-234.5 -86q-114 0 -194.5 59.5t-117.5 154t-37 212.5q0 208 98 331.5t265 123.5q140 0 231.5 -76.5t100.5 -187.5h-203q-6 34 -41.5 57t-81.5 23q-68 0 -111.5 -52.5t-46.5 -130.5q27 31 77.5 51.5t94.5 20.5zM408 748
q59 0 93 29t34 81q0 48 -34.5 77.5t-92.5 29.5t-92.5 -29.5t-34.5 -77.5q0 -52 34 -81t93 -29z" />
    <glyph glyph-name="seven.numr" horiz-adv-x="653" 
d="M395 573h-235q-1 133 24 228.5t84 183.5l164 248h-391v201h649v-183l-211 -311q-45 -65 -64.5 -150t-19.5 -217z" />
    <glyph glyph-name="eight.numr" horiz-adv-x="792" 
d="M397 563q-149 0 -244.5 77t-95.5 194q0 132 129 202q-88 70 -88 170q0 103 84 170.5t215 67.5t215 -67.5t84 -170.5q0 -102 -90 -170q129 -64 129 -202q0 -116 -95 -193.5t-243 -77.5zM397 1124q43 0 70 19.5t27 50.5q0 32 -27 52t-70 20q-41 0 -67.5 -20t-26.5 -52
t26 -51t68 -19zM397 758q55 0 87 23t32 61t-32 61t-87 23t-88 -23t-33 -61t33.5 -61t87.5 -23z" />
    <glyph glyph-name="nine.numr" horiz-adv-x="808" 
d="M369 858q-133 0 -215 84t-82 207t96.5 209t234.5 86q114 0 194.5 -59.5t117.5 -154t37 -212.5q0 -208 -98 -331.5t-265 -123.5q-140 0 -231.5 76.5t-100.5 187.5h203q6 -34 41.5 -56.5t81.5 -22.5q69 0 112 52.5t46 129.5q-27 -31 -77.5 -51.5t-94.5 -20.5zM401 1260
q-59 0 -93 -29.5t-34 -81.5q0 -48 34.5 -77.5t92.5 -29.5t92.5 29.5t34.5 77.5q0 52 -34 81.5t-93 29.5z" />
    <glyph glyph-name="colon.cap" horiz-adv-x="606" 
d="M92 854v340h361v-340h-361zM92 143v340h361v-340h-361z" />
    <glyph glyph-name="bullet.case" horiz-adv-x="706" 
d="M352 444q-120 0 -206.5 86t-86.5 209t86.5 209t206.5 86q122 0 208.5 -86t86.5 -209t-86.5 -209t-208.5 -86z" />
    <glyph glyph-name="emdash.alt" horiz-adv-x="2293" 
d="M2171 506h-2048v287h2048v-287z" />
    <glyph glyph-name="tonos.case" horiz-adv-x="546" 
d="M311 1147h-209l23 323h319z" />
    <glyph glyph-name="brevecombcy" horiz-adv-x="0" 
d="M-532 1133q-163 0 -255 84t-92 217h256q0 -101 91 -101q92 0 92 101h256q0 -133 -92 -217t-256 -84z" />
    <glyph glyph-name="enel_logo" horiz-adv-x="4147" 
d="M4045 119l-92 -135q-71 47 -115 91t-74 115t-30 162v1061h161v-1061q0 -82 33.5 -128.5t116.5 -104.5zM645 1075q103 0 199.5 -36t173 -102t122.5 -169t46 -227v-78h-570v158h398q-17 129 -122.5 213t-246.5 84q-156 0 -266.5 -114t-110.5 -274t110.5 -274.5
t266.5 -114.5q91 0 171.5 42t137.5 112l127 -96q-79 -101 -191 -158t-245 -57q-148 0 -273 73t-197.5 199t-72.5 274q0 150 72.5 275.5t197.5 197.5t273 72zM1874 1075q189 0 323 -130.5t134 -319.5v-625h-162v625q0 123 -90.5 208t-225.5 85q-97 0 -178 -51.5
t-123.5 -128.5t-42.5 -158v-117h-161v569h161v-147q50 96 146.5 143t218.5 47zM3029 1075q102 0 198 -36t172.5 -102t122.5 -169t46 -227v-78h-572v158h400q-17 129 -123 213t-244 84q-159 0 -269 -113.5t-110 -274.5t110 -275t269 -114q90 0 169 42t136 112l127 -96
q-77 -100 -189 -157.5t-243 -57.5q-112 0 -213.5 43.5t-174.5 116.5t-116 174t-43 212q0 112 43 213.5t116 174t174.5 115t213.5 42.5z" />
    </font>
</defs>
</svg>
